<svg width="70" height="70" viewBox="0 0 70 70" fill="none" xmlns="http://www.w3.org/2000/svg">
<g clip-path="url(#clip0)">
<path d="M39.1608 30.3187C39.1555 30.3043 39.1493 30.2907 39.1424 30.2771L23.5391 0.203164C23.4743 0.0784764 23.3456 0 23.205 0C23.0643 0 22.9356 0.0784764 22.8708 0.203164L7.26754 30.2771C7.26043 30.2907 7.25428 30.3045 7.24909 30.3187C5.60464 34.7217 5.77294 39.5012 7.72336 43.7768C9.67365 48.0527 13.1726 51.3128 17.5754 52.9569C19.3788 53.6304 21.2687 54.0017 23.1935 54.0603C23.1973 54.0604 23.2011 54.0604 23.205 54.0604C23.2088 54.0604 23.2126 54.0604 23.2164 54.0603C25.141 54.0015 27.0312 53.6303 28.8342 52.9569C33.2369 51.3128 36.736 48.0526 38.6864 43.7768C40.6367 39.5012 40.8053 34.7217 39.1608 30.3187Z" fill="#94E0FF"/>
<path d="M24.4081 51.043C20.6679 47.3574 18.5869 42.4354 18.5482 37.1837C18.548 37.1669 18.549 37.1498 18.5511 37.133L22.7446 0.446533L7.26754 30.2771C7.26043 30.2907 7.25428 30.3045 7.24909 30.3187C5.60464 34.7217 5.77294 39.5013 7.72336 43.7769C9.67365 48.0527 13.1726 51.3128 17.5754 52.957C19.3787 53.6304 21.2687 54.0018 23.1935 54.0603C23.1973 54.0604 23.2011 54.0604 23.205 54.0604C23.2088 54.0604 23.2126 54.0604 23.2164 54.0603C24.6196 54.0175 26.004 53.8065 27.3501 53.4355C26.3063 52.7412 25.3211 51.9424 24.4081 51.043Z" fill="#5F727B"/>
<path d="M63.3122 38.3878C63.3068 38.3736 63.3007 38.3598 63.2937 38.3462L55.6001 23.5176C55.5353 23.3929 55.4067 23.3145 55.266 23.3145C55.1253 23.3145 54.9967 23.3928 54.9319 23.5176L47.2383 38.3462C47.2312 38.3598 47.2251 38.3736 47.2199 38.3878C46.3912 40.6065 46.4761 43.0149 47.459 45.1693C48.4416 47.3239 50.2047 48.9667 52.4236 49.7953C53.3323 50.1345 54.2848 50.3216 55.2545 50.3512C55.2584 50.3514 55.2622 50.3514 55.266 50.3514C55.2698 50.3514 55.2737 50.3514 55.2775 50.3512C56.247 50.3216 57.1995 50.1345 58.1082 49.7953C62.6876 48.0851 65.0222 42.9676 63.3122 38.3878Z" fill="#5F727B"/>
<path d="M63.3122 38.3878C63.3068 38.3736 63.3007 38.3598 63.2937 38.3462L55.6001 23.5176C55.5353 23.3929 55.4067 23.3145 55.266 23.3145C55.2653 23.3145 55.2645 23.3147 55.2637 23.3147L52.2351 40.9269C52.2322 40.9435 52.2304 40.9602 52.2298 40.9768C52.1015 43.5838 52.9959 46.0841 54.7484 48.0177C55.4992 48.8462 56.3699 49.5268 57.3242 50.0461C57.5886 49.9744 57.8503 49.8918 58.1082 49.7955C62.6876 48.0851 65.0222 42.9676 63.3122 38.3878Z" fill="#94E0FF"/>
<path d="M47.9759 61.8166L42.8496 51.9358C42.7848 51.8111 42.6562 51.7327 42.5155 51.7327C42.3748 51.7327 42.2461 51.8111 42.1813 51.9358L37.0544 61.8166C37.0473 61.8301 37.0411 61.8442 37.0359 61.8583C35.8723 64.9749 37.4608 68.4574 40.5775 69.6216C41.1959 69.8521 41.844 69.9795 42.5038 69.9999C42.5078 70 42.5116 70 42.5155 70C42.5193 70 42.5231 70 42.5271 69.9999C43.1863 69.9795 43.8344 69.8524 44.4533 69.6215C47.5698 68.4576 49.1584 64.9749 47.9945 61.8582C47.9891 61.8438 47.9828 61.83 47.9759 61.8166Z" fill="#5F727B"/>
<path d="M47.9944 61.8582C47.989 61.8438 47.9829 61.83 47.9759 61.8166L42.8496 51.9358C42.7848 51.8111 42.6562 51.7327 42.5155 51.7327C42.4754 51.7327 42.437 51.7405 42.4001 51.7525L40.2955 64.1345C40.2925 64.1512 40.2908 64.1686 40.2899 64.1857C40.1797 66.5282 41.2715 68.6539 43.0203 69.9645C43.5092 69.9094 43.9896 69.7945 44.4533 69.6216C47.5698 68.4574 49.1584 64.9748 47.9944 61.8582Z" fill="#94E0FF"/>
</g>
<defs>
<clipPath id="clip0">
<rect width="70" height="70" fill="white"/>
</clipPath>
</defs>
</svg>
