<svg width="128" height="128" viewBox="0 0 128 128" fill="none" xmlns="http://www.w3.org/2000/svg">
<g clip-path="url(#clip0)">
<path d="M66.4175 106.576H118.839C122.692 107.256 125.46 110.664 125.334 114.574C125.334 121.576 117.336 122.573 117.336 122.573H54.1904L66.4175 106.576Z" fill="#4CAF50"/>
<path d="M66.4175 106.576H10.6897C6.27227 106.576 2.69122 110.157 2.69122 114.574C2.69122 118.992 6.27227 122.573 10.6897 122.573H54.1904L66.4175 106.576Z" fill="#4CAF50"/>
<path d="M21.3543 125.239C19.8819 125.239 18.6886 124.044 18.6891 122.572C18.6893 121.949 18.9078 121.345 19.3067 120.866L32.6374 104.87C33.5812 103.739 35.2631 103.587 36.3939 104.531C37.5247 105.475 37.6764 107.157 36.7326 108.287L23.4019 124.284C22.8945 124.89 22.1444 125.24 21.3543 125.239Z" fill="white"/>
<path d="M53.3481 125.239C51.8756 125.239 50.6823 124.044 50.6828 122.572C50.6831 121.949 50.9015 121.345 51.3005 120.866L64.6311 104.87C65.5749 103.739 67.2568 103.587 68.3876 104.531C69.5184 105.475 69.6701 107.157 68.7263 108.287L55.3957 124.284C54.8883 124.89 54.1382 125.24 53.3481 125.239Z" fill="white"/>
<path d="M98.5483 35.0544L98.8578 36.5483L100.38 36.6447C114.766 37.5559 125.971 49.4846 125.98 63.8996C125.99 78.9921 113.764 91.2353 98.671 91.2453H24.0202H24.0182C12.7587 91.2563 3.30921 82.7623 2.12398 71.5652C0.845271 59.485 9.60169 48.6555 21.6819 47.3768L23.6243 47.1712L23.4647 45.2245C23.3892 44.3032 23.3543 43.4366 23.3542 42.5931C23.4335 24.6447 36.0631 9.20002 53.6392 5.55898C74.1853 1.30266 94.292 14.5083 98.5483 35.0544Z" fill="#94E0FF" stroke="#5F727B" stroke-width="4"/>
<path d="M117.336 123.739H10.6897C5.62827 123.739 1.52502 119.636 1.52502 114.574C1.52502 109.513 5.62827 105.41 10.6897 105.41H117.336C122.397 105.41 126.5 109.513 126.5 114.574C126.5 119.636 122.397 123.739 117.336 123.739ZM10.6897 107.742C6.91634 107.742 3.85748 110.801 3.85748 114.574C3.85748 118.348 6.91634 121.407 10.6897 121.407H117.336C121.109 121.407 124.168 118.348 124.168 114.574C124.168 110.801 121.109 107.742 117.336 107.742H10.6897Z" fill="#4CAF50" stroke="#5F727B" stroke-width="3"/>
</g>
<defs>
<clipPath id="clip0">
<rect width="128" height="128" fill="white"/>
</clipPath>
</defs>
</svg>
