<svg width="124" height="124" viewBox="0 0 124 124" fill="none" xmlns="http://www.w3.org/2000/svg">
<circle cx="94.5" cy="91.5" r="22.5" fill="#94E0FF"/>
<path d="M103.333 62C103.333 73.4183 84.8263 82.6667 62 82.6667C39.1737 82.6667 20.6667 73.4183 20.6667 62M20.6667 36.1667V87.8333C20.6667 99.2517 39.1737 108.5 62 108.5C84.8263 108.5 103.333 99.2517 103.333 87.8333V36.1667H20.6667ZM20.6667 36.1667C20.6667 47.585 39.1737 56.8333 62 56.8333C84.8263 56.8333 103.333 47.585 103.333 36.1667H20.6667ZM20.6667 36.1667C20.6667 24.7483 39.1737 15.5 62 15.5C84.8263 15.5 103.333 24.7483 103.333 36.1667H20.6667Z" stroke="#5F727B" stroke-width="4" stroke-linecap="round" stroke-linejoin="round"/>
</svg>
