<svg width="44" height="44" viewBox="0 0 44 44" fill="none" xmlns="http://www.w3.org/2000/svg">
<g clip-path="url(#clip0)">
<path d="M16.2217 42.4599L21.8875 26.3168L7.00348 26.2719C6.37394 26.2719 5.8793 25.7772 5.8793 25.1477C5.8793 24.8779 5.96924 24.653 6.1491 24.4282C10.5109 19.0771 14.8727 13.7261 19.2345 8.37502C21.3929 5.76694 23.5513 3.1139 25.7547 0.415883C26.1594 -0.0787532 26.8339 -0.12372 27.3285 0.236015C27.6883 0.550783 27.8232 1.04542 27.6883 1.49509L21.9775 17.6832L36.8615 17.7281C37.491 17.7281 37.9857 18.2228 37.9857 18.8523C37.9857 19.1221 37.8957 19.3469 37.7608 19.5268C33.5789 24.9228 29.1722 30.2289 24.7654 35.58C22.607 38.1881 20.4486 40.7962 18.1553 43.5841C17.7506 44.0787 17.0761 44.1237 16.5814 43.764C16.1767 43.4042 16.0418 42.9096 16.2217 42.4599Z" fill="#4CAF50"/>
<path d="M13.4338 37.4236C13.9734 37.7383 14.1982 38.4128 13.8834 38.9524C13.5687 39.492 12.8941 39.7169 12.3545 39.4021C9.11693 37.6484 6.46388 35.0853 4.62024 31.9826C2.82156 28.9248 1.78732 25.4174 1.78732 21.6852C1.78732 17.0086 3.40613 12.6468 6.14911 9.18435C8.89209 5.7219 12.8042 3.15879 17.3459 2.07958C17.9304 1.94468 18.56 2.30442 18.6949 2.93395C18.8298 3.51852 18.47 4.14806 17.8405 4.28296C13.7935 5.22727 10.331 7.52058 7.90282 10.5783C5.47461 13.6361 4.03567 17.5482 4.03567 21.6852C4.03567 24.9677 4.93501 28.1154 6.55381 30.8584C8.21759 33.6014 10.5559 35.8947 13.4338 37.4236Z" fill="#5E9641"/>
<path d="M30.701 6.0366C30.1614 5.72183 29.9366 5.04733 30.2514 4.50772C30.5661 3.96812 31.2406 3.74329 31.7803 4.05805C35.0179 5.81176 37.6259 8.41985 39.4246 11.4326C41.2233 14.4904 42.2126 17.9978 42.2126 21.6851C42.2126 26.4066 40.5488 30.8134 37.7608 34.2758C34.9729 37.7383 31.0158 40.3014 26.4292 41.3356C25.8446 41.4705 25.2151 41.0658 25.0802 40.4813C24.9453 39.8967 25.35 39.2671 25.9346 39.1322C30.0265 38.2329 33.534 35.9396 36.0071 32.8818C38.4803 29.7791 39.9642 25.867 39.9642 21.6851C39.9642 18.4025 39.0649 15.2998 37.491 12.6018C35.8722 9.90375 33.5789 7.61044 30.701 6.0366Z" fill="#5E9641"/>
</g>
<defs>
<clipPath id="clip0">
<rect width="44" height="44" fill="white"/>
</clipPath>
</defs>
</svg>
