<svg width="128" height="128" viewBox="0 0 128 128" fill="none" xmlns="http://www.w3.org/2000/svg">
<g clip-path="url(#clip0)">
<path d="M98.5204 37.7832L98.8293 39.2841L100.359 39.3764C114.792 40.2475 126.039 52.2268 126 66.6858C125.958 81.7547 113.709 93.937 98.6406 93.8958H98.6352H97.9593C97.966 93.6761 97.9699 93.4541 97.9699 93.2306C97.9699 72.9912 81.5629 56.5837 61.3233 56.5837C41.0836 56.5837 24.6763 72.9912 24.6763 93.2306C24.6763 93.4541 24.6802 93.6761 24.687 93.8958H24.0111H24.0092C12.7543 93.9068 3.30867 85.4162 2.12393 74.2238C0.845746 62.1486 9.59856 51.3235 21.6739 50.0453L23.6162 49.8397L23.4566 47.8931C23.3812 46.9721 23.3463 46.1059 23.3461 45.2628C23.4288 27.3052 36.0784 11.8595 53.6682 8.23981C74.212 4.01248 94.2931 17.2395 98.5204 37.7832Z" fill="#94E0FF" stroke="#5F727B" stroke-width="4"/>
<path d="M88.6399 93.2306C88.6399 108.317 76.4099 120.547 61.3234 120.547C46.2369 120.547 34.0069 108.317 34.0069 93.2306C34.0069 78.1442 46.2369 65.9142 61.3234 65.9142C76.4099 65.9142 88.6399 78.1442 88.6399 93.2306Z" fill="#4CAF50" stroke="#5F727B" stroke-width="4"/>
<path d="M61.3234 111.887C59.8515 111.887 58.6582 110.693 58.6582 109.222V77.2398C58.6582 75.7679 59.8515 74.5746 61.3234 74.5746C62.7953 74.5746 63.9886 75.7679 63.9886 77.2398V109.222C63.9884 110.693 62.7953 111.887 61.3234 111.887Z" fill="#FAFAFA"/>
<path d="M71.9838 90.5657C71.2765 90.567 70.5976 90.2871 70.0969 89.7874L61.3232 81.0084L52.5494 89.7874C51.4908 90.8101 49.8035 90.7806 48.7808 89.722C47.7832 88.6891 47.7832 87.0517 48.7808 86.0188L59.4415 75.3582C60.4821 74.3178 62.1692 74.3178 63.2101 75.3582L73.8707 86.0188C74.9099 87.0612 74.9074 88.7488 73.8647 89.7879C73.3655 90.2859 72.6891 90.5655 71.9838 90.5657Z" fill="#FAFAFA"/>
</g>
<defs>
<clipPath id="clip0">
<rect width="128" height="128" fill="white"/>
</clipPath>
</defs>
</svg>
