<svg width="128" height="128" viewBox="0 0 128 128" fill="none" xmlns="http://www.w3.org/2000/svg">
<circle cx="89.5" cy="33.5" r="22.5" fill="#94E0FF"/>
<path d="M64.0001 53.3334V117.333M37.3334 85.3334C32.0802 85.3392 27.0094 83.4066 23.0927 79.9057C19.176 76.4049 16.6887 71.5819 16.1073 66.3609C15.526 61.14 16.8915 55.888 19.9421 51.6113C22.9928 47.3346 27.5142 44.3339 32.6401 43.1841C31.157 36.2672 32.4824 29.0445 36.3246 23.1049C40.1669 17.1652 46.2112 12.9952 53.1281 11.5121C60.0449 10.029 67.2676 11.3543 73.2073 15.1966C79.1469 19.0388 83.317 25.0832 84.8001 32.0001H85.3334C91.9465 31.9934 98.3261 34.4442 103.234 38.8767C108.142 43.3092 111.227 49.4072 111.892 55.9867C112.556 62.5663 110.753 69.1582 106.83 74.4826C102.908 79.807 97.1476 83.4841 90.6668 84.8001L37.3334 85.3334ZM80.0001 69.3334L64.0001 53.3334L80.0001 69.3334ZM64.0001 53.3334L48.0001 69.3334L64.0001 53.3334Z" stroke="#5F727B" stroke-width="4" stroke-linecap="round" stroke-linejoin="round"/>
</svg>
