<svg width="44" height="44" viewBox="0 0 44 44" fill="none" xmlns="http://www.w3.org/2000/svg">
<path d="M11.6618 7.4616C11.9858 7.98779 12.5482 8.27757 13.1239 8.27757C13.4308 8.27757 13.7415 8.19516 14.0219 8.02251C14.8285 7.52562 15.0797 6.46902 14.5828 5.66241L13.2951 3.5719C12.7983 2.7653 11.7415 2.51427 10.935 3.01099C10.1284 3.50788 9.87729 4.56448 10.3741 5.37109L11.6618 7.4616Z" fill="#5E9641"/>
<path d="M5.7748 29.4182L3.59844 30.62C2.76914 31.0779 2.46811 32.1215 2.92615 32.9508C3.23896 33.5172 3.82488 33.8372 4.42928 33.8372C4.7097 33.8372 4.99406 33.7684 5.25694 33.6232L7.43331 32.4213C8.2626 31.9634 8.56364 30.9198 8.1056 30.0905C7.64764 29.2612 6.60427 28.9602 5.7748 29.4182Z" fill="#5E9641"/>
<path d="M21.9563 6.04741C22.9037 6.04741 23.6716 5.27947 23.6716 4.3321V1.75913C23.6716 0.811759 22.9037 0.0438232 21.9563 0.0438232C21.0089 0.0438232 20.241 0.811759 20.241 1.75913V4.3321C20.241 5.27938 21.0089 6.04741 21.9563 6.04741Z" fill="#5E9641"/>
<path d="M6.00367 22C6.00367 21.0526 5.23573 20.2847 4.28836 20.2847H1.71531C0.767936 20.2847 0 21.0526 0 22C0 22.9474 0.767936 23.7153 1.71531 23.7153H4.28827C5.23573 23.7154 6.00367 22.9474 6.00367 22Z" fill="#5E9641"/>
<path d="M20.4184 31.831C20.3202 31.8157 20.2227 31.7992 20.1255 31.7811C15.4216 30.9071 12.0074 26.7934 12.0074 21.9999C12.0074 17.065 15.6861 12.8293 20.5645 12.1474C20.685 12.1304 20.808 12.1157 20.9302 12.1031C21.8727 12.0067 22.5585 11.1647 22.4622 10.2221C22.3658 9.27974 21.5236 8.5937 20.5812 8.69021C20.417 8.70696 20.2515 8.72699 20.0894 8.74967C16.9222 9.19242 14.0115 10.7665 11.8934 13.1822C9.75449 15.6213 8.57672 18.7528 8.57672 21.9999C8.57672 28.446 13.1702 33.9781 19.4987 35.154C19.628 35.178 19.7604 35.2006 19.892 35.221C19.9812 35.235 20.0697 35.2417 20.1573 35.2417C20.9886 35.2416 21.7188 34.6361 21.8503 33.7892C21.9955 32.853 21.3545 31.9764 20.4184 31.831Z" fill="#4CAF50"/>
<path d="M7.62891 11.1634L5.53514 9.96269C4.7134 9.49149 3.66505 9.77552 3.19377 10.5973C2.72249 11.4192 3.0066 12.4674 3.82842 12.9387L5.92228 14.1394C6.19135 14.2937 6.48466 14.3671 6.77401 14.3671C7.36852 14.367 7.94662 14.0574 8.26365 13.5048C8.73493 12.6829 8.45073 11.6347 7.62891 11.1634Z" fill="#5E9641"/>
<path d="M13.4724 35.6133C12.6543 35.136 11.6038 35.412 11.1262 36.2302L9.8729 38.3775C9.39543 39.1957 9.67155 40.2461 10.4898 40.7237C10.7617 40.8823 11.0592 40.9578 11.3528 40.9578C11.9427 40.9578 12.517 40.6532 12.8359 40.1069L14.0892 37.9596C14.5667 37.1413 14.2906 36.0909 13.4724 35.6133Z" fill="#5E9641"/>
<path d="M25.6975 40.5999L30.4622 25.9244L17.9454 25.8835C17.416 25.8835 17 25.4338 17 24.8615C17 24.6163 17.0756 24.4119 17.2269 24.2075C20.895 19.3429 24.563 14.4783 28.2311 9.61366C30.0462 7.24268 31.8613 4.83082 33.7143 2.37808C34.0546 1.92841 34.6219 1.88753 35.0378 2.21456C35.3403 2.50071 35.4538 2.95038 35.3403 3.35917L30.5378 18.0756L43.0546 18.1165C43.584 18.1165 44 18.5662 44 19.1385C44 19.3837 43.9244 19.5881 43.8109 19.7517C40.2941 24.6571 36.5882 29.4809 32.8824 34.3455C31.0672 36.7164 29.2521 39.0874 27.3235 41.6219C26.9832 42.0716 26.416 42.1125 26 41.7854C25.6597 41.4584 25.5462 41.0087 25.6975 40.5999Z" fill="#4CAF50"/>
</svg>
