<svg width="10" height="8" viewBox="0 0 10 8" fill="none" xmlns="http://www.w3.org/2000/svg">
<path d="M9.2067 0.782904C8.68904 0.27805 7.97874 0 7.2065 0C6.62926 0 6.10062 0.1641 5.63522 0.487703C5.40039 0.651048 5.18761 0.85089 5 1.08414C4.81247 0.850959 4.59961 0.651048 4.3647 0.487703C3.89938 0.1641 3.37074 0 2.7935 0C2.02126 0 1.31088 0.27805 0.793228 0.782904C0.281754 1.28186 0 1.9635 0 2.70236C0 3.46283 0.31517 4.15895 0.991821 4.89315C1.59714 5.54989 2.46712 6.21658 3.47458 6.98858C3.81859 7.25222 4.20853 7.55106 4.61342 7.86938C4.72038 7.95362 4.85764 8 5 8C5.14229 8 5.27962 7.95362 5.38643 7.86952C5.79132 7.55113 6.18149 7.25215 6.52565 6.98837C7.53296 6.21651 8.40294 5.54989 9.00826 4.89308C9.68491 4.15895 10 3.46283 10 2.70229C10 1.9635 9.71825 1.28186 9.2067 0.782904Z" fill="#4CAF50"/>
</svg>
