<svg width="1641" height="1194" viewBox="0 0 1641 1194" fill="none" xmlns="http://www.w3.org/2000/svg">
<path d="M1639 2L640.376 555.132C627.969 562.05 627.969 579.257 640.376 586.177L805.177 677.36L537.049 825.666C524.088 832.939 507.979 832.939 494.832 825.666L435.576 792.846C425.577 787.348 413.357 787.348 403.358 792.846L82.2715 970.601L10.0549 1010.52C-0.684972 1016.55 -0.684972 1031.27 10.0549 1037.3L178.56 1130.61L275.034 1184.01" stroke="#485E68" stroke-width="3" stroke-linecap="round" stroke-linejoin="round"/>
<path d="M1233.85 776.35L1243.47 771.028" stroke="#485E68" stroke-width="3" stroke-miterlimit="10"/>
<path d="M1263.47 760.026L1461.05 650.749C1467.16 647.378 1467.16 638.863 1461.05 635.315L1378.47 589.723L1344.21 570.741C1338.1 567.37 1338.1 558.857 1344.21 555.308L1636.04 382.343" stroke="#485E68" stroke-width="3" stroke-miterlimit="10" stroke-dasharray="12.41 12.41"/>
<path d="M501.313 709.291L462.983 730.58L463.167 730.401C463.167 730.401 463.167 730.225 463.352 730.225L463.538 730.048C463.538 730.048 463.538 729.869 463.723 729.869L463.907 729.693C463.907 729.693 463.907 729.516 464.093 729.516L464.278 729.337C464.278 729.337 464.278 729.337 464.278 729.161C464.278 728.982 464.464 728.982 464.464 728.805C464.833 728.273 465.204 727.918 465.575 727.386C465.759 727.21 465.759 727.21 465.944 727.031C466.13 726.854 466.13 726.854 466.314 726.678C466.87 726.146 467.425 725.612 467.982 724.903L491.683 711.774C492.609 711.421 493.72 711.066 494.646 710.889C494.832 710.889 495.017 710.711 495.201 710.711C495.388 710.711 495.572 710.534 495.756 710.534C495.943 710.534 496.127 710.355 496.314 710.355C496.869 710.179 497.424 710.002 498.164 709.823C498.164 709.823 498.164 709.823 498.35 709.823C498.535 709.823 498.719 709.823 498.719 709.647H498.906C499.09 709.647 499.09 709.647 499.274 709.47C499.461 709.47 499.461 709.47 499.645 709.47C499.832 709.47 499.832 709.47 500.016 709.291C500.201 709.291 500.2 709.291 500.387 709.291C500.571 709.291 500.571 709.291 500.756 709.291C500.942 709.291 500.942 709.291 501.313 709.291C501.127 709.47 501.127 709.47 501.313 709.291Z" fill="#485E68"/>
<path d="M458.907 743.706C458.907 743.53 458.907 743.174 458.907 742.998C458.907 742.287 458.907 741.4 459.094 740.691L519.459 707.163C520.756 707.163 522.237 706.985 523.532 706.985C524.087 706.985 524.458 706.985 524.829 706.985L458.907 743.706Z" fill="#485E68"/>
<path d="M541.864 708.227L461.315 753.109C461.315 752.93 461.13 752.754 461.13 752.577C460.944 752.398 460.944 752.222 460.944 752.043C460.76 751.69 460.575 751.158 460.389 750.802L537.791 707.693C538.531 707.693 539.273 707.872 539.828 707.872C540.199 707.872 540.567 708.048 540.754 708.048C541.125 708.227 541.494 708.227 541.864 708.227Z" fill="#485E68"/>
<path d="M555.568 711.422L466.686 760.914C466.13 760.206 465.575 759.674 465.02 758.963L552.235 710.534C553.161 710.711 553.9 711.066 554.827 711.243C555.011 711.243 555.382 711.243 555.568 711.422Z" fill="#485E68"/>
<path d="M567.233 715.678L474.648 767.124C474.463 766.947 474.277 766.947 474.093 766.771C473.908 766.592 473.722 766.592 473.537 766.415C473.351 766.239 473.166 766.06 472.982 766.06C472.795 765.883 472.611 765.705 472.427 765.705L564.455 714.437C564.825 714.614 565.012 714.614 565.196 714.793C565.567 714.969 565.752 714.969 565.936 715.146C566.307 715.325 566.491 715.325 566.678 715.501C566.678 715.501 566.862 715.501 567.233 715.678Z" fill="#485E68"/>
<path d="M576.677 721.178L484.463 772.445C484.276 772.269 483.908 772.269 483.721 772.092C483.537 771.913 483.166 771.913 482.981 771.737C482.795 771.558 482.426 771.558 482.24 771.381C482.055 771.205 481.684 771.205 481.5 771.026L574.085 719.403C574.27 719.58 574.454 719.582 574.641 719.759C574.825 719.935 575.011 720.114 575.196 720.114C575.38 720.291 575.567 720.467 575.751 720.467C576.306 720.823 576.493 720.999 576.677 721.178Z" fill="#485E68"/>
<path d="M584.083 727.742L496.498 776.526C496.127 776.526 495.942 776.347 495.571 776.347C495.2 776.171 495.016 776.171 494.832 776.171C494.461 775.994 494.274 775.994 493.906 775.994C493.535 775.815 493.164 775.815 492.979 775.639L582.231 725.967C582.415 726.144 582.602 726.323 582.602 726.323C582.786 726.499 582.973 726.676 582.973 726.855C583.157 727.031 583.342 727.208 583.342 727.387C583.712 727.387 583.897 727.563 584.083 727.742Z" fill="#485E68"/>
<path d="M583.528 760.206L554.826 776.171C554.455 776.347 554.087 776.347 553.9 776.526H553.716C552.974 776.703 552.419 776.881 551.679 777.058H551.492C550.753 777.235 550.011 777.413 549.456 777.59C548.53 777.767 547.974 777.945 547.235 778.122C546.864 778.301 546.493 778.301 546.124 778.301L587.602 755.237C587.417 755.416 587.417 755.593 587.231 755.769C586.86 756.301 586.676 756.657 586.305 757.012C585.936 757.367 585.749 757.72 585.378 758.252C585.378 758.252 585.378 758.252 585.378 758.431C585.01 758.786 584.823 759.14 584.455 759.495C584.455 759.495 584.455 759.495 584.455 759.672C583.897 759.85 583.713 760.027 583.528 760.206Z" fill="#485E68"/>
<path d="M589.084 735.725L510.757 779.364C510.386 779.364 510.015 779.365 509.831 779.188C508.718 779.009 507.608 778.833 506.682 778.656L588.157 733.24C588.528 733.772 588.713 734.306 588.899 735.015C588.899 735.37 589.084 735.547 589.084 735.725Z" fill="#485E68"/>
<path d="M528.532 780.073C527.237 780.073 525.94 780.073 524.643 780.073C524.088 780.073 523.719 780.073 523.348 780.073L590.75 742.642C590.75 742.819 590.75 743.174 590.75 743.351C590.75 744.062 590.75 744.949 590.75 745.657L528.532 780.073Z" fill="#485E68"/>
<path d="M487.609 744.061V705.744H557.418V744.061L522.606 763.22L487.609 744.061Z" fill="white"/>
<path d="M556.492 706.629V743.53L522.422 762.333L488.352 743.53V706.629H556.492ZM558.345 704.857H486.684V744.594L522.606 764.463L558.531 744.594L558.345 704.857Z" fill="#485E68"/>
<path d="M522.606 722.42C521.124 722.42 519.829 722.064 518.719 721.354L488.72 704.678L522.792 685.875L556.863 704.678L526.866 721.354C525.384 722.064 523.903 722.42 522.606 722.42Z" fill="white"/>
<path d="M522.606 687.117L554.827 704.857L526.124 720.645C525.014 721.177 523.903 721.532 522.606 721.532C521.311 721.532 520.199 721.177 519.088 720.645L490.388 704.857L522.606 687.117ZM522.606 684.987L486.684 704.857L518.162 722.241C519.459 722.952 521.125 723.307 522.606 723.307C524.088 723.307 525.756 722.952 527.051 722.241L558.531 704.857L522.606 684.987Z" fill="#485E68"/>
<path d="M554.271 668.667C585.872 668.667 611.489 644.125 611.489 613.851C611.489 583.576 585.872 559.034 554.271 559.034C522.671 559.034 497.053 583.576 497.053 613.851C497.053 644.125 522.671 668.667 554.271 668.667Z" fill="#94E0FF"/>
<path d="M522.793 603.384V722.064" stroke="#485E68" stroke-width="3" stroke-miterlimit="10"/>
<path d="M489.462 639.395C504.085 639.395 515.941 628.038 515.941 614.027C515.941 600.017 504.085 588.659 489.462 588.659C474.837 588.659 462.983 600.017 462.983 614.027C462.983 628.038 474.837 639.395 489.462 639.395Z" fill="#4CAF50"/>
<path d="M487.055 623.43L522.793 675.409" stroke="#485E68" stroke-width="3" stroke-miterlimit="10"/>
<path d="M522.793 614.028L547.79 597.886" stroke="#485E68" stroke-width="3" stroke-miterlimit="10"/>
<path d="M522.978 653.943L547.791 623.43" stroke="#485E68" stroke-width="3" stroke-miterlimit="10"/>
<path d="M752.033 639.039L761.663 633.718" stroke="#485E68" stroke-width="3" stroke-miterlimit="10"/>
<path d="M781.106 623.075L988.311 508.476C991.274 506.878 994.792 506.878 997.755 508.476L1084.6 556.551C1087.56 558.147 1091.08 558.147 1094.04 556.551L1147.37 527.102" stroke="#485E68" stroke-width="3" stroke-miterlimit="10" stroke-dasharray="12.1 12.1"/>
<path d="M1155.52 524.265C1160.89 527.28 1161.08 532.248 1155.52 535.263L1124.6 552.471C1119.23 555.486 1110.34 555.486 1104.97 552.471C1099.6 549.456 1099.41 544.666 1104.97 541.649L1135.89 524.441C1141.26 521.25 1150.15 521.25 1155.52 524.265Z" fill="#4CAF50"/>
<path d="M935.353 748.496C1012.94 791.427 1013.31 861.676 936.277 904.786C859.248 947.893 733.516 947.716 656.116 904.786C578.529 861.855 578.158 791.606 655.19 748.496C732.035 705.566 857.766 705.566 935.353 748.496Z" fill="white" stroke="#485E68" stroke-width="3" stroke-miterlimit="10"/>
<path d="M597.6 833.115L596.674 776.17L992.939 773.687L993.681 820.697" fill="white"/>
<path d="M597.6 833.115L596.674 776.17L992.939 773.687L993.681 820.697" stroke="#485E68" stroke-width="3" stroke-miterlimit="10"/>
<path d="M796.25 654.957C850.57 655.104 899.662 667.461 935.117 687.268C970.605 707.094 992.224 734.249 992.137 763.944C992.049 793.641 970.269 820.679 934.664 840.312C899.093 859.926 849.929 872.015 795.609 871.868C741.289 871.72 692.197 859.364 656.743 839.558C621.254 819.732 599.635 792.577 599.722 762.88C599.811 733.183 621.59 706.146 657.195 686.513C692.766 666.898 741.93 654.809 796.25 654.957Z" fill="white" stroke="black" stroke-width="2"/>
<path d="M848.693 660.328C850.359 661.037 852.211 660.684 854.062 660.328C861.284 659.264 870.357 660.86 873.32 667.425C873.875 668.489 874.246 669.908 875.357 670.44C876.283 670.972 877.58 670.795 878.875 670.618C884.985 669.552 891.652 669.908 897.023 672.923C904.43 677.004 907.948 685.164 910.911 692.792C917.205 688.179 926.094 687.115 933.685 689.245C941.279 691.373 947.944 696.339 952.943 702.372C954.98 704.855 956.832 707.693 957.017 710.887C957.203 714.081 955.351 717.452 952.204 718.16C957.017 719.403 961.645 720.822 966.461 722.418C972.757 724.548 979.238 727.207 982.94 732.352C986.274 736.966 986.829 743.351 984.238 748.317C981.646 753.462 976.275 757.012 970.534 757.544" fill="white"/>
<path d="M844.25 661.392C847.213 662.456 850.544 661.216 853.507 661.216C856.47 661.216 859.619 661.571 862.396 662.812C865.358 664.054 867.024 666.182 868.321 668.844C869.432 671.327 871.284 672.214 873.876 671.859C881.468 670.795 889.43 670.972 895.356 676.472C900.171 680.906 902.763 687.294 905.17 693.148C905.355 693.68 906.281 694.212 906.836 693.856C915.724 687.647 927.391 688.535 936.464 693.68C940.909 696.163 944.798 699.712 947.76 703.614C950.537 707.34 953.87 715.322 947.203 717.273C946.092 717.628 946.092 719.047 947.203 719.403C952.944 720.822 958.499 722.418 964.054 724.548C968.869 726.32 974.053 728.806 977.202 733.063C983.867 742.464 977.386 755.414 965.722 756.656C964.24 756.833 964.24 758.963 965.722 758.963C977.757 757.72 985.533 745.658 980.72 734.836C978.313 729.691 973.497 726.32 968.314 724.016C961.833 721.177 954.797 719.226 947.945 717.452C947.945 718.16 947.945 718.871 947.945 719.579C953.499 717.984 954.61 711.951 952.76 707.34C950.537 702.016 945.537 697.227 940.722 693.856C930.723 686.76 916.28 684.809 905.725 692.084C906.281 692.26 906.836 692.437 907.391 692.792C904.986 686.939 902.578 680.73 897.95 676.117C892.948 670.972 886.098 669.021 878.876 669.376C877.21 669.376 875.544 669.731 873.876 669.908C871.839 670.263 870.913 669.731 870.174 667.957C869.803 667.248 869.618 666.714 869.247 666.182C867.95 663.876 865.729 662.28 863.322 661.216C860.73 660.152 857.951 659.441 855.175 659.441C851.841 659.265 847.768 660.684 844.619 659.797C843.508 658.909 842.769 661.037 844.25 661.392Z" fill="#485E68"/>
<path d="M761.663 615.091C762.774 623.606 764.995 631.945 768.515 639.75L761.663 615.091Z" fill="white"/>
<path d="M760.551 615.091C761.664 623.607 764.071 632.122 767.403 640.106C767.958 641.346 770.181 640.814 769.626 639.572C766.292 631.767 764.071 623.607 762.774 615.091C762.59 613.672 760.367 613.672 760.551 615.091Z" fill="#485E68"/>
<path d="M821.473 610.833C821.473 619.704 821.473 628.575 819.62 637.09C819.065 639.395 818.51 641.701 819.249 644.008" fill="white"/>
<path d="M820.176 610.833C820.176 616.689 820.176 622.366 819.621 628.22C819.437 631.058 818.881 633.897 818.326 636.912C817.769 639.395 817.213 641.88 817.955 644.363C818.326 645.782 820.547 645.072 820.176 643.831C819.25 641.169 820.363 638.331 820.918 635.671C821.473 633.009 821.658 630.347 822.029 627.688C822.584 622.187 822.584 616.51 822.584 611.012C822.584 609.416 820.176 609.414 820.176 610.833Z" fill="#485E68"/>
<path d="M776.291 680.198C776.291 682.682 776.106 685.344 776.106 687.827C776.106 691.02 775.92 694.212 774.809 697.229C773.883 699.713 772.402 702.019 770.92 704.324C765.552 712.307 760.182 720.467 752.59 726.676" fill="white"/>
<path d="M775.18 680.198C774.996 684.811 775.365 689.601 774.439 694.211C773.699 698.648 770.736 702.374 768.329 706.276C763.513 713.372 758.514 720.29 751.849 725.79C750.738 726.678 752.404 728.273 753.514 727.386C760.553 721.533 765.921 714.257 770.921 706.808C773.328 703.082 776.107 699.356 776.846 694.922C777.772 690.132 777.588 685.164 777.588 680.198C777.402 678.778 775.18 678.778 775.18 680.198Z" fill="#485E68"/>
<path d="M812.4 675.764C813.14 685.52 814.621 695.278 817.029 704.857C817.955 708.404 818.881 711.952 820.731 715.145C826.657 726.144 840.36 731.644 853.322 732.532" fill="white"/>
<path d="M811.103 675.763C811.658 683.391 812.769 691.019 814.25 698.647C815.731 705.565 817.213 712.838 821.473 718.694C828.693 728.45 841.286 732.707 853.135 733.595C854.617 733.771 854.617 731.465 853.135 731.288C841.655 730.401 829.251 725.966 822.768 716.387C819.065 710.887 817.768 703.969 816.473 697.581C814.992 690.309 813.881 683.036 813.51 675.763C813.326 674.344 811.103 674.344 811.103 675.763Z" fill="#485E68"/>
<path d="M931.649 698.114C935.354 699.889 938.13 703.259 939.427 707.162C940.537 710.887 940.167 715.145 938.13 718.694" fill="white"/>
<path d="M931.094 699.001C938.13 702.727 940.908 711.242 937.204 717.983C936.464 719.226 938.501 720.29 939.24 719.047C943.5 711.242 940.537 701.308 932.391 697.05C930.909 696.518 929.799 698.293 931.094 699.001Z" fill="#485E68"/>
<path d="M674.449 752.577C677.78 753.109 690.373 769.606 728.888 761.624C728.888 761.624 744.813 780.072 776.291 763.752" fill="white"/>
<path d="M674.077 753.641C674.816 753.818 676.298 754.882 677.04 755.416C679.076 756.835 681.113 758.076 683.334 759.139C690.557 762.865 698.89 764.463 707.037 764.816C714.444 764.995 721.851 764.108 729.071 762.51C728.703 762.333 728.332 762.333 727.961 762.157C731.108 765.704 736.107 768.187 740.552 769.606C752.774 773.509 765.736 770.138 776.661 764.463C777.956 763.753 776.845 761.801 775.55 762.51C764.994 767.834 752.403 771.204 740.738 767.3C736.665 765.883 732.405 763.753 729.626 760.559C729.442 760.206 728.887 760.205 728.516 760.205C711.296 763.753 693.335 763.397 678.521 753.462C677.41 752.754 676.113 751.511 674.816 751.335C673.335 751.158 672.595 753.286 674.077 753.641Z" fill="#485E68"/>
<path d="M644.82 739.626C644.82 739.626 589.455 715.145 590.936 764.285C591.12 770.67 593.157 776.703 596.862 782.024C604.824 793.202 621.859 810.941 648.709 804.909C648.709 804.909 652.598 845.533 712.221 824.778C712.221 824.778 739.626 858.306 778.514 838.971C778.514 838.971 831.288 886.691 863.506 832.583C863.506 832.583 893.505 864.871 924.797 815.199C926.465 812.537 929.612 811.297 932.759 812.182C948.129 815.731 992.756 822.295 1000.35 777.59C1000.35 777.59 999.236 737.853 953.683 754.705" fill="white"/>
<path d="M645.375 738.562C641.302 736.789 636.858 735.37 632.598 734.304C624.635 732.353 615.933 731.289 607.971 733.419C598.712 735.902 592.788 742.998 590.749 751.867C589.084 759.142 589.084 767.123 591.491 774.043C593.712 780.428 597.972 785.929 602.787 790.895C607.971 796.395 614.268 801.006 621.488 803.845C630.192 807.394 639.636 807.747 648.893 805.619C648.338 805.264 647.967 804.909 647.412 804.555C647.783 809.166 649.82 813.956 652.598 817.861C658.708 826.729 669.078 830.987 680.003 831.519C691.113 832.051 702.038 829.212 712.408 825.665C712.037 825.489 711.666 825.489 711.297 825.31C714.629 829.391 718.889 832.938 723.333 835.777C732.59 842.164 743.702 846.067 755.182 845.711C763.513 845.535 771.662 843.228 779.069 839.502C778.514 839.502 778.143 839.326 777.588 839.326C783.514 844.648 790.734 849.259 798.141 852.631C811.287 858.84 826.843 861.678 840.545 855.47C851.099 850.856 858.693 841.986 864.248 832.585C863.692 832.585 862.951 832.762 862.395 832.762C869.247 840.034 880.357 844.469 890.542 843.228C901.467 841.809 910.54 834.536 917.206 826.553C919.797 823.359 922.205 820.167 924.428 816.795C926.465 813.603 928.873 812.005 932.946 812.892C935.909 813.603 939.056 814.135 942.019 814.49C958.314 816.618 976.647 814.843 988.682 802.957C992.2 799.41 994.977 795.329 997.015 790.718C998.866 786.637 1000.9 781.492 1001.09 776.881C1001.27 773.687 1000.16 770.14 999.052 767.123C997.015 761.446 993.682 756.303 988.496 752.933C980.904 748.141 971.276 748.32 962.759 750.094C959.425 750.803 956.091 751.867 952.944 753.109C951.647 753.641 952.204 755.769 953.499 755.237C962.759 751.867 973.868 749.028 983.496 752.933C989.422 755.237 993.497 760.027 995.903 765.527C997.384 768.898 998.497 772.8 998.681 776.526C998.866 779.541 997.571 782.735 996.645 785.573C994.977 790.363 992.571 795.153 989.237 799.055C978.497 811.828 960.722 814.49 944.611 812.716C941.463 812.36 938.501 811.828 935.353 811.296C931.094 810.409 926.649 809.7 923.686 813.603C921.095 816.795 919.242 820.344 916.65 823.538C914.614 826.197 912.206 828.681 909.798 830.987C905.912 834.536 901.467 837.728 896.281 839.679C884.801 843.937 872.765 839.858 864.248 832.051C864.061 831.874 863.877 831.698 863.692 831.519C863.137 830.987 862.211 831.166 861.84 831.698C856.841 840.034 850.175 848.018 841.1 852.631C834.435 856.002 827.028 857.421 819.621 856.71C807.03 855.646 795.178 849.969 785.179 842.873C782.958 841.277 780.551 839.679 778.514 837.728C778.143 837.375 777.588 837.375 777.033 837.551C764.81 843.584 751.109 845.18 737.961 840.922C729.627 838.083 722.036 833.294 715.742 827.261C714.444 826.021 713.147 824.778 712.037 823.538C711.853 823.182 711.297 823.182 710.926 823.182C696.667 828.149 678.706 832.585 664.447 825.489C657.411 822.118 652.412 815.909 650.004 808.634C649.635 807.571 649.264 806.507 649.08 805.264C648.893 804.555 648.893 804.377 648.893 804.2C648.893 803.491 648.154 802.957 647.412 803.136C632.043 806.507 617.415 801.894 606.305 791.606C601.861 787.524 597.788 782.911 595.009 777.59C591.12 770.494 590.565 762.157 591.676 754.35C592.973 745.658 597.788 738.208 606.674 735.37C614.081 733.063 622.23 733.951 629.637 735.723C634.266 736.789 639.079 738.208 643.154 739.981C645.562 741.047 646.672 739.272 645.375 738.562Z" fill="#485E68"/>
<path d="M674.449 752.577C677.78 753.109 690.373 769.606 728.888 761.624C728.888 761.624 744.813 780.072 776.291 763.752" fill="white"/>
<path d="M674.077 753.641C674.816 753.818 676.298 754.882 677.04 755.416C679.076 756.835 681.113 758.076 683.334 759.139C690.557 762.865 698.89 764.463 707.037 764.816C714.444 764.995 721.851 764.108 729.071 762.51C728.703 762.333 728.332 762.333 727.961 762.157C731.108 765.704 736.107 768.187 740.552 769.606C752.774 773.509 765.736 770.138 776.661 764.463C777.956 763.753 776.845 761.801 775.55 762.51C764.994 767.834 752.403 771.204 740.738 767.3C736.665 765.883 732.405 763.753 729.626 760.559C729.442 760.206 728.887 760.205 728.516 760.205C711.296 763.753 693.335 763.397 678.521 753.462C677.41 752.754 676.113 751.511 674.816 751.335C673.335 751.158 672.595 753.286 674.077 753.641Z" fill="#485E68"/>
<path d="M815.732 768.011C818.695 768.011 834.064 785.218 866.469 769.43C866.469 769.43 885.172 788.233 909.43 764.108" fill="white"/>
<path d="M815.732 769.253C815.732 769.253 815.918 769.253 816.103 769.43C816.474 769.606 816.844 769.785 817.213 770.138C818.326 770.672 819.25 771.381 820.363 771.913C823.51 773.688 827.028 775.107 830.546 775.994C842.952 779.186 855.914 775.815 867.024 770.494C866.469 770.494 866.1 770.317 865.542 770.317C869.063 773.688 874.062 776.171 878.875 777.058C890.911 779.541 902.023 772.977 910.169 764.995C911.28 763.929 909.614 762.334 908.504 763.397C900.726 771.026 890.171 777.413 878.691 774.751C874.617 773.864 870.173 771.736 867.21 768.719C866.839 768.366 866.284 768.366 865.729 768.542C854.619 773.864 841.655 777.235 829.435 773.332C826.288 772.268 823.139 770.849 820.363 769.253C819.065 768.366 817.4 766.947 815.547 766.947C814.25 766.947 814.25 769.074 815.732 769.253Z" fill="#485E68"/>
<path d="M666.855 723.837C673.522 720.466 680.743 718.515 688.15 718.338C692.223 718.16 696.112 718.692 699.446 721.177C701.854 723.128 703.89 725.435 706.298 727.386C710.74 730.756 716.297 733.063 721.852 733.063C727.591 733.063 732.777 730.046 736.108 725.611C739.813 720.645 741.85 714.613 743.515 708.936C745.552 702.016 746.665 694.922 747.22 687.826C748.331 673.278 746.665 658.732 743.886 644.363C742.405 636.38 740.923 628.041 737.961 620.412C735.74 614.914 730.183 607.107 725.37 601.077C724.628 600.19 722.036 601.254 722.962 602.141C727.222 607.463 731.664 612.784 734.443 618.817C737.405 625.202 738.702 632.298 739.997 639.218C742.96 653.232 745.183 667.601 744.812 682.149C744.441 695.454 742.405 709.644 735.924 721.709C732.961 727.386 728.146 731.997 720.925 731.465C714.444 731.11 709.074 727.386 704.63 723.128C702.409 720.998 700.186 718.87 697.223 717.806C694.076 716.564 690.373 716.74 686.853 716.919C679.261 717.272 672.041 719.226 665.373 722.596C664.078 723.305 665.56 724.547 666.855 723.837Z" fill="#485E68"/>
<path d="M870.358 599.657C859.988 606.93 854.249 619.526 849.804 630.702C844.618 643.651 841.655 657.133 840.361 670.97C839.805 677.535 839.434 683.922 839.805 690.484C839.99 695.808 840.545 701.483 842.582 706.451C844.434 711.065 847.581 715.32 852.212 717.805C857.396 720.644 863.506 720.644 869.431 719.757C876.839 718.693 884.246 716.031 891.837 716.031C895.355 716.031 899.244 716.739 901.652 719.401C903.873 721.708 904.799 724.902 907.391 727.029C908.133 727.561 910.725 726.674 909.798 725.966C907.762 724.368 906.651 722.063 905.17 719.933C903.688 717.805 901.652 716.386 899.244 715.499C894.06 713.724 888.135 714.612 882.764 715.675C876.099 716.918 869.431 718.869 862.766 718.514C856.47 718.159 851.099 715.32 847.581 710.354C841.287 700.951 842.026 688.001 842.582 677.358C843.323 664.053 845.544 650.924 849.618 638.33C852.025 631.057 854.988 623.961 858.506 617.22C861.84 611.011 865.913 604.802 872.023 600.544C873.505 599.48 871.284 599.125 870.358 599.657Z" fill="#485E68"/>
<path d="M745.923 656.25C745.923 656.427 746.294 657.846 746.294 657.846L842.213 657.491L842.952 654.12C842.952 654.12 774.254 642.766 747.404 654.12L745.923 656.25Z" fill="white"/>
<path d="M837.582 507.944C837.582 507.944 818.511 556.372 845.916 604.448C845.916 604.448 880.541 561.162 862.766 507.944H837.582Z" fill="#94E0FF"/>
<path d="M843.692 507.941L848.878 564.888L857.58 507.941H843.692Z" fill="#0135AF"/>
<path d="M738.887 512.023C738.887 512.023 721.296 556.551 746.665 600.546C746.665 600.546 778.514 560.809 762.218 512.023H738.887Z" fill="#94E0FF"/>
<path d="M744.441 512.023L749.257 564.179L757.219 512.023H744.441Z" fill="#0135AF"/>
<path d="M865.913 347.927L865.729 484.347C865.729 487.897 863.321 491.267 858.693 493.75C849.063 499.072 833.693 499.072 824.065 493.75C819.25 491.09 816.844 487.541 816.844 484.171V347.751C816.844 351.298 819.25 354.67 824.065 357.33C833.693 362.652 849.063 362.652 858.693 357.33C863.506 354.847 865.913 351.3 865.913 347.927Z" fill="white"/>
<path d="M865.913 347.929L865.729 484.349C865.729 486.655 864.616 488.962 862.579 490.913V354.493C864.616 352.542 865.913 350.235 865.913 347.929Z" fill="white" stroke="#485E68" stroke-width="3" stroke-miterlimit="10"/>
<path d="M862.579 354.492V490.912C861.469 491.976 860.174 492.863 858.692 493.751C857.211 494.638 855.172 495.347 853.322 496.057V359.637C855.172 359.105 857.024 358.218 858.692 357.331C860.358 356.443 861.469 355.556 862.579 354.492Z" fill="white" stroke="#485E68" stroke-width="3" stroke-miterlimit="10"/>
<path d="M853.322 359.637V496.057C849.062 497.477 844.434 497.832 839.805 497.653V361.233C844.434 361.588 849.062 361.056 853.322 359.637Z" fill="white" stroke="#485E68" stroke-width="3" stroke-miterlimit="10"/>
<path d="M839.805 361.234V497.654C835.545 497.477 831.285 496.767 827.583 495.171V358.751C831.285 360.347 835.545 361.234 839.805 361.234Z" fill="white" stroke="#485E68" stroke-width="3" stroke-miterlimit="10"/>
<path d="M827.583 359.105V495.525C826.286 494.993 825.176 494.461 824.065 493.929C819.25 491.267 816.844 487.72 816.844 484.347V347.751C816.844 351.298 819.25 354.67 824.065 357.33C825.176 358.041 826.286 358.573 827.583 359.105Z" fill="white" stroke="#485E68" stroke-width="3" stroke-miterlimit="10"/>
<path d="M865.913 347.927L865.729 484.347C865.729 487.897 863.321 491.267 858.693 493.75C849.063 499.072 833.693 499.072 824.065 493.75C819.25 491.09 816.844 487.541 816.844 484.171V347.751C816.844 351.298 819.25 354.67 824.065 357.33C833.693 362.652 849.063 362.652 858.693 357.33C863.506 354.847 865.913 351.3 865.913 347.927Z" stroke="#485E68" stroke-width="3" stroke-miterlimit="10"/>
<path d="M858.506 338.349C868.321 343.85 868.321 352.01 858.693 357.508C849.063 362.832 833.693 362.832 824.065 357.508C814.437 352.186 814.437 343.671 823.881 338.349C833.509 333.028 849.063 333.028 858.506 338.349Z" fill="white" stroke="#485E68" stroke-width="3" stroke-miterlimit="10"/>
<path fill-rule="evenodd" clip-rule="evenodd" d="M865.915 349.348C865.36 324.512 853.508 293.112 841.473 293.112C829.437 293.112 817.215 324.512 816.846 349.348C819.067 356.267 829.251 361.412 841.288 361.412C853.695 361.589 863.878 356.267 865.915 349.348Z" fill="white" stroke="#485E68" stroke-width="3" stroke-miterlimit="10"/>
<path d="M781.29 347.927L781.106 484.347C781.106 487.897 778.698 491.267 774.07 493.75C764.441 499.072 749.072 499.072 739.442 493.75C734.629 491.09 732.221 487.541 732.221 484.171V347.751C732.221 351.298 734.629 354.67 739.442 357.33C749.072 362.652 764.441 362.652 774.07 357.33C778.514 354.847 781.29 351.3 781.29 347.927Z" fill="white"/>
<path d="M781.291 347.929L781.106 484.349C781.106 486.655 779.994 488.962 777.957 490.913V354.493C779.809 352.542 781.291 350.235 781.291 347.929Z" fill="white" stroke="#485E68" stroke-width="3" stroke-miterlimit="10"/>
<path d="M777.772 354.492V490.912C776.661 491.976 775.364 492.863 773.883 493.751C772.401 494.638 770.365 495.347 768.512 496.057V359.637C770.365 359.105 772.217 358.218 773.883 357.331C775.551 356.443 776.661 355.556 777.772 354.492Z" fill="white" stroke="#485E68" stroke-width="3" stroke-miterlimit="10"/>
<path d="M768.513 359.637V496.057C764.255 497.477 759.624 497.832 754.996 497.653V361.233C759.624 361.588 764.255 361.056 768.513 359.637Z" fill="white" stroke="#485E68" stroke-width="3" stroke-miterlimit="10"/>
<path d="M754.996 361.234V497.654C750.738 497.477 746.478 496.767 742.776 495.171V358.751C746.294 360.347 750.552 361.234 754.996 361.234Z" fill="white" stroke="#485E68" stroke-width="3" stroke-miterlimit="10"/>
<path d="M742.776 359.105V495.525C741.479 494.993 740.368 494.461 739.258 493.929C734.443 491.267 732.035 487.72 732.035 484.347V347.751C732.035 351.298 734.443 354.67 739.258 357.33C740.368 358.041 741.479 358.573 742.776 359.105Z" fill="white" stroke="#485E68" stroke-width="3" stroke-miterlimit="10"/>
<path d="M781.29 347.927L781.106 484.347C781.106 487.897 778.698 491.267 774.07 493.75C764.441 499.072 749.072 499.072 739.442 493.75C734.629 491.09 732.221 487.541 732.221 484.171V347.751C732.221 351.298 734.629 354.67 739.442 357.33C749.072 362.652 764.441 362.652 774.07 357.33C778.514 354.847 781.29 351.3 781.29 347.927Z" stroke="#485E68" stroke-width="3" stroke-miterlimit="10"/>
<path d="M773.699 338.349C783.513 343.85 783.513 352.01 773.883 357.508C764.255 362.832 748.885 362.832 739.257 357.508C729.627 352.186 729.627 343.671 739.071 338.349C748.701 333.028 764.068 333.028 773.699 338.349Z" fill="white" stroke="#485E68" stroke-width="3" stroke-miterlimit="10"/>
<path fill-rule="evenodd" clip-rule="evenodd" d="M781.292 349.348C780.735 324.512 768.886 293.112 756.848 293.112C744.812 293.112 732.592 324.512 732.221 349.348C734.442 356.267 744.628 361.412 756.663 361.412C768.886 361.589 779.069 356.267 781.292 349.348Z" fill="white" stroke="#485E68" stroke-width="3" stroke-miterlimit="10"/>
<path d="M839.805 342.252L839.434 469.804C839.434 475.302 835.545 480.979 827.767 485.237C812.213 493.752 787.031 493.752 771.475 485.237C763.7 480.802 759.626 475.125 759.626 469.627L759.995 342.076C759.995 347.753 763.884 353.606 771.846 357.687C787.4 366.203 812.584 366.203 828.138 357.687C836.1 353.606 839.805 348.108 839.805 342.252Z" fill="#37404A"/>
<path d="M839.805 342.254L839.434 469.803C839.434 473.529 837.768 477.255 834.248 480.625L834.619 353.074C838.137 349.882 839.805 346.157 839.805 342.254Z" fill="#37404A"/>
<path d="M834.619 353.252L834.249 480.801C832.583 482.399 830.546 483.995 827.954 485.414C825.362 486.834 822.213 488.074 819.25 488.962L819.621 361.412C822.768 360.525 825.731 359.106 828.325 357.863C830.917 356.444 832.954 355.025 834.619 353.252Z" fill="#37404A"/>
<path d="M819.621 361.589L819.25 489.14C812.4 491.268 804.806 492.155 797.215 491.8L797.586 364.25C805.177 364.606 812.769 363.719 819.621 361.589Z" fill="#37404A"/>
<path d="M797.587 364.25L797.216 491.8C790.179 491.446 783.328 490.38 777.218 488.074L777.588 360.525C783.699 362.831 790.735 364.072 797.587 364.25Z" fill="#37404A"/>
<path d="M777.588 360.35L777.217 487.899C775.18 487.188 773.512 486.303 771.475 485.416C763.7 480.979 759.624 475.305 759.624 469.804L759.995 342.255C759.995 347.93 763.884 353.785 771.846 357.864C773.883 358.931 775.735 359.639 777.588 360.35Z" fill="#37404A"/>
<path d="M828.325 326.642C843.878 335.157 844.063 349.171 828.509 357.863C812.955 366.379 787.771 366.379 772.217 357.863C756.664 349.348 756.477 335.334 772.031 326.642C787.4 318.127 812.584 318.127 828.325 326.642Z" fill="#37404A"/>
<path d="M843.692 298.789L843.136 438.403C843.136 444.612 838.879 450.821 830.546 455.434C813.51 464.835 786.105 464.835 768.883 455.434C760.182 450.644 755.922 444.435 755.922 438.226L756.477 298.613C756.477 304.821 760.737 311.03 769.439 315.82C786.66 325.223 814.066 325.223 831.101 315.82C839.434 311.03 843.692 304.998 843.692 298.789Z" fill="white"/>
<path d="M843.692 298.789L843.136 438.403C843.136 444.612 838.879 450.821 830.546 455.434C813.51 464.835 786.105 464.835 768.883 455.434C760.182 450.644 755.922 444.435 755.922 438.226L756.477 298.613C756.477 304.821 760.737 311.03 769.439 315.82C786.66 325.223 814.066 325.223 831.101 315.82C839.434 311.03 843.692 304.998 843.692 298.789Z" stroke="#485E68" stroke-width="3" stroke-miterlimit="10"/>
<path d="M830.918 281.581C848.14 290.984 848.14 306.24 831.105 315.82C814.067 325.222 786.662 325.222 769.443 315.82C752.221 306.417 752.221 291.16 769.256 281.581C786.294 272.002 813.699 272.178 830.918 281.581Z" fill="white" stroke="#485E68" stroke-width="3" stroke-miterlimit="10"/>
<path d="M837.769 255.149L837.583 296.128C837.583 301.45 833.88 306.772 826.657 310.851C811.843 319.013 787.956 319.013 773.144 310.851C765.737 306.772 762.032 301.45 762.032 295.95L762.219 254.97C762.219 260.471 765.921 265.792 773.329 269.873C788.143 278.034 812.03 278.034 826.844 269.873C834.249 265.792 837.769 260.647 837.769 255.149Z" fill="#485E68"/>
<path d="M837.769 255.149L837.583 296.128C837.583 301.45 833.88 306.772 826.657 310.851C811.843 319.013 787.956 319.013 773.144 310.851C765.737 306.772 762.032 301.45 762.032 295.95L762.219 254.97C762.219 260.471 765.921 265.792 773.329 269.873C788.143 278.034 812.03 278.034 826.844 269.873C834.249 265.792 837.769 260.647 837.769 255.149Z" fill="#485E68"/>
<path d="M837.767 255.149L837.582 296.128C837.582 296.837 837.398 297.724 837.211 298.611L837.398 257.632C837.767 256.745 837.767 256.036 837.767 255.149Z" fill="#485E68"/>
<path d="M837.582 257.633L837.397 298.612C836.471 303.047 832.953 307.128 827.212 310.675L827.399 269.696C833.324 266.325 836.656 261.891 837.582 257.633Z" fill="#485E68"/>
<path d="M818.694 273.422L818.51 314.401C811.287 316.708 802.77 317.416 794.807 316.884L794.994 275.905C802.956 276.615 811.287 275.549 818.694 273.422Z" fill="#485E68"/>
<path d="M794.994 275.727L794.81 316.706C787.032 316.174 779.441 314.223 773.515 310.851C766.108 306.772 762.406 301.45 762.406 295.95L762.59 254.97C762.59 260.471 766.292 265.792 773.699 269.873C779.441 273.244 787.032 275.195 794.994 275.727Z" fill="#485E68"/>
<path d="M826.659 240.246C841.471 248.409 841.658 261.714 826.844 269.874C812.03 278.034 788.143 278.034 773.328 269.874C758.516 261.714 758.33 248.409 773.144 240.246C787.958 232.086 811.845 232.086 826.659 240.246Z" fill="#485E68"/>
<path d="M839.248 394.584C837.398 396.358 834.99 398.131 832.212 399.729C814.621 409.485 786.106 409.485 768.329 399.729C765.55 398.131 762.958 396.358 761.108 394.407C758.885 392.277 757.403 389.971 756.477 387.843V401.148V412.679C758.33 417.113 762.403 421.194 768.513 424.741C786.106 434.499 814.806 434.499 832.398 424.741C837.953 421.726 841.471 418.177 843.508 414.274V399.905V389.083C842.397 391.037 840.916 392.809 839.248 394.584Z" fill="#94E0FF"/>
<path d="M865.913 374.894L865.729 511.314C865.729 514.861 863.321 518.231 858.693 520.717C849.063 526.038 833.693 526.038 824.065 520.717C819.25 518.055 816.844 514.508 816.844 511.135V374.715C816.844 378.264 819.25 381.635 824.065 384.297C833.693 389.618 849.063 389.618 858.693 384.297C863.506 381.811 865.913 378.264 865.913 374.894Z" fill="white"/>
<path d="M865.913 374.894L865.729 511.314C865.729 514.861 863.321 518.231 858.693 520.717C849.063 526.038 833.693 526.038 824.065 520.717C819.25 518.055 816.844 514.508 816.844 511.135V374.715C816.844 378.264 819.25 381.635 824.065 384.297C833.693 389.618 849.063 389.618 858.693 384.297C863.506 381.811 865.913 378.264 865.913 374.894Z" stroke="#485E68" stroke-width="3" stroke-miterlimit="10"/>
<path d="M858.506 365.315C868.321 370.813 868.321 378.973 858.693 384.474C849.063 389.796 833.693 389.796 824.065 384.474C814.437 379.152 814.437 370.637 823.881 365.315C833.509 359.991 849.063 359.991 858.506 365.315Z" fill="white" stroke="#485E68" stroke-width="3" stroke-miterlimit="10"/>
<path fill-rule="evenodd" clip-rule="evenodd" d="M865.915 376.489C865.36 351.654 853.508 320.254 841.473 320.254C829.437 320.254 817.215 351.654 816.846 376.489C819.067 383.409 829.251 388.552 841.288 388.552C853.695 388.552 863.878 383.409 865.915 376.489Z" fill="white" stroke="#485E68" stroke-width="3" stroke-miterlimit="10"/>
<path d="M781.29 374.894L781.106 511.314C781.106 514.861 778.698 518.231 774.07 520.717C764.439 526.038 749.07 526.038 739.442 520.717C734.627 518.055 732.219 514.508 732.219 511.135V374.715C732.219 378.264 734.627 381.635 739.442 384.297C749.07 389.618 764.439 389.618 774.07 384.297C778.512 381.811 781.29 378.264 781.29 374.894Z" fill="white"/>
<path d="M781.29 374.894L781.106 511.314C781.106 514.861 778.698 518.231 774.07 520.717C764.439 526.038 749.07 526.038 739.442 520.717C734.627 518.055 732.219 514.508 732.219 511.135V374.715C732.219 378.264 734.627 381.635 739.442 384.297C749.07 389.618 764.439 389.618 774.07 384.297C778.512 381.811 781.29 378.264 781.29 374.894Z" stroke="#485E68" stroke-width="3" stroke-miterlimit="10"/>
<path d="M773.699 365.315C783.513 370.813 783.513 378.973 773.883 384.474C764.255 389.796 748.885 389.796 739.257 384.474C729.627 379.152 729.627 370.637 739.071 365.315C748.701 359.991 764.068 359.991 773.699 365.315Z" fill="white" stroke="#485E68" stroke-width="3" stroke-miterlimit="10"/>
<path fill-rule="evenodd" clip-rule="evenodd" d="M781.292 376.489C780.735 351.654 768.886 320.254 756.848 320.254C744.812 320.254 732.592 351.654 732.221 376.489C734.442 383.409 744.628 388.552 756.663 388.552C768.886 388.552 779.069 383.409 781.292 376.489Z" fill="white" stroke="#485E68" stroke-width="3" stroke-miterlimit="10"/>
<path d="M841.842 141.084L841.287 274.665C841.287 280.519 837.211 286.375 829.249 290.986C813.14 300.033 786.661 300.033 770.365 290.986C762.218 286.551 758.145 280.519 758.145 274.489L758.7 140.907C758.7 146.937 762.774 152.793 770.92 157.404C787.216 166.452 813.695 166.452 829.806 157.404C837.768 152.793 841.842 146.937 841.842 141.084Z" fill="white"/>
<path d="M836.471 152.436C840.174 148.887 842.026 144.984 842.026 140.903L841.471 274.485C841.471 278.389 839.618 282.292 835.916 286.017" fill="white"/>
<path d="M836.471 152.436C840.174 148.887 842.026 144.984 842.026 140.903L841.471 274.485C841.471 278.389 839.618 282.292 835.916 286.017" stroke="#485E68" stroke-width="3" stroke-miterlimit="10"/>
<path d="M820.731 161.128C824.064 160.064 827.027 158.821 829.806 157.225C832.398 155.806 834.619 154.031 836.471 152.436" fill="white"/>
<path d="M820.731 161.128C824.064 160.064 827.027 158.821 829.806 157.225C832.398 155.806 834.619 154.031 836.471 152.436" stroke="#485E68" stroke-width="3" stroke-miterlimit="10"/>
<path d="M836.101 286.018C834.435 287.613 832.212 289.388 829.436 290.807C826.657 292.227 823.694 293.646 820.363 294.71" fill="white"/>
<path d="M836.101 286.018C834.435 287.613 832.212 289.388 829.436 290.807C826.657 292.227 823.694 293.646 820.363 294.71" stroke="#485E68" stroke-width="3" stroke-miterlimit="10"/>
<path d="M820.176 294.71C813.14 297.017 805.177 297.904 797.031 297.548L820.176 294.71Z" fill="white"/>
<path d="M820.176 294.71C813.14 297.017 805.177 297.904 797.031 297.548" stroke="#485E68" stroke-width="3" stroke-miterlimit="10"/>
<path d="M797.586 163.965C805.362 164.32 813.695 163.433 820.731 161.129L797.586 163.965Z" fill="white"/>
<path d="M797.586 163.965C805.362 164.32 813.695 163.433 820.731 161.129" stroke="#485E68" stroke-width="3" stroke-miterlimit="10"/>
<path d="M776.661 159.886C782.956 162.37 790.179 163.612 797.586 163.968L776.661 159.886Z" fill="white"/>
<path d="M776.661 159.886C782.956 162.37 790.179 163.612 797.586 163.968" stroke="#485E68" stroke-width="3" stroke-miterlimit="10"/>
<path d="M797.215 297.549C789.808 297.194 782.587 295.951 776.291 293.468L797.215 297.549Z" fill="white"/>
<path d="M797.215 297.549C789.808 297.194 782.587 295.951 776.291 293.468" stroke="#485E68" stroke-width="3" stroke-miterlimit="10"/>
<path d="M776.29 293.467C774.254 292.759 772.217 291.871 770.551 290.807C762.405 286.371 758.329 280.341 758.329 274.308L758.887 140.727C758.887 146.759 762.96 152.613 771.107 157.224C772.959 158.29 774.811 159.177 776.848 159.886" fill="white"/>
<path d="M776.29 293.467C774.254 292.759 772.217 291.871 770.551 290.807C762.405 286.371 758.329 280.341 758.329 274.308L758.887 140.727C758.887 146.759 762.96 152.613 771.107 157.224C772.959 158.29 774.811 159.177 776.848 159.886" stroke="#485E68" stroke-width="3" stroke-miterlimit="10"/>
<path d="M841.842 141.084L841.287 274.665C841.287 280.519 837.211 286.375 829.249 290.986C813.14 300.033 786.661 300.033 770.365 290.986C762.218 286.551 758.145 280.519 758.145 274.489L758.7 140.907C758.7 146.937 762.774 152.793 770.92 157.404C787.216 166.452 813.695 166.452 829.806 157.404C837.768 152.793 841.842 146.937 841.842 141.084Z" stroke="#485E68" stroke-width="3" stroke-miterlimit="10"/>
<path d="M829.623 124.583C845.917 133.631 845.917 148.176 829.808 157.224C813.699 166.271 787.218 166.271 770.924 157.224C754.629 148.176 754.629 133.631 770.738 124.583C786.849 115.536 813.328 115.536 829.623 124.583Z" fill="white" stroke="#485E68" stroke-width="3" stroke-miterlimit="10"/>
<path d="M835.76 71.1112L835.384 144.767C835.384 148.014 831.825 151.263 825.078 153.698C811.214 158.685 788.729 158.685 774.865 153.698C767.932 151.263 764.373 147.899 764.373 144.65L764.748 70.9951C764.748 74.243 768.308 77.6067 775.238 80.0427C789.291 85.0304 811.589 85.0304 825.453 80.0427C832.198 77.6067 835.571 74.3589 835.76 71.1112Z" fill="white"/>
<path d="M830.73 35.3508C833.693 32.3351 835.361 28.9644 835.361 25.7712L834.99 138.42C834.99 141.791 833.509 144.984 830.361 147.999" fill="white"/>
<path d="M830.541 67.1053C833.881 64.9281 835.761 62.4946 835.761 60.1892L835.343 141.517C835.343 143.951 833.673 146.257 830.125 148.433" stroke="#485E68" stroke-width="3" stroke-miterlimit="10"/>
<path d="M817.584 42.624C820.362 41.737 822.954 40.6726 825.362 39.2534C827.583 38.0116 829.435 36.7698 831.101 35.1731" fill="white"/>
<path d="M817.584 42.624C820.362 41.737 822.954 40.6726 825.362 39.2534C827.583 38.0116 829.435 36.7698 831.101 35.1731" stroke="#485E68" stroke-width="3" stroke-miterlimit="10"/>
<path d="M830.362 147.999C828.88 149.418 827.028 150.837 824.62 152.08C822.213 153.499 819.805 154.563 816.844 155.45" fill="white"/>
<path d="M830.362 147.999C828.88 149.418 827.028 150.837 824.62 152.08C822.213 153.499 819.805 154.563 816.844 155.45" stroke="#485E68" stroke-width="3" stroke-miterlimit="10"/>
<path d="M798.142 45.1078C804.993 45.4628 811.659 44.5757 817.584 42.6243L798.142 45.1078Z" fill="white"/>
<path d="M798.142 45.1078C804.993 45.4628 811.659 44.5757 817.584 42.6243" stroke="#485E68" stroke-width="3" stroke-miterlimit="10"/>
<path d="M817.029 155.452C811.103 157.224 804.251 158.111 797.586 157.935L817.029 155.452Z" fill="white"/>
<path d="M817.029 155.452C811.103 157.224 804.251 158.111 797.586 157.935" stroke="#485E68" stroke-width="3" stroke-miterlimit="10"/>
<path d="M780.364 41.7373C785.735 43.866 791.845 44.9305 797.957 45.2852L780.364 41.7373Z" fill="white"/>
<path d="M780.364 41.7373C785.735 43.866 791.845 44.9305 797.957 45.2852" stroke="#485E68" stroke-width="3" stroke-miterlimit="10"/>
<path d="M797.77 157.934C791.66 157.579 785.55 156.515 780.18 154.387L797.77 157.934Z" fill="white"/>
<path d="M797.77 157.934C791.66 157.579 785.55 156.515 780.18 154.387" stroke="#485E68" stroke-width="3" stroke-miterlimit="10"/>
<path d="M779.993 154.385C778.327 153.853 776.475 152.965 775.18 152.078C768.328 148.354 764.81 143.209 764.81 138.241L765.181 25.5933C765.181 30.5606 768.699 35.705 775.551 39.4306C777.03 40.3175 778.698 41.0271 780.364 41.7367" fill="white"/>
<path d="M780.877 153.836C779.066 153.449 777.053 152.804 775.645 152.159C768.197 149.451 764.373 145.71 764.373 142.098L764.776 60.1892C764.776 63.8011 768.6 67.5417 776.048 70.2506C777.656 70.8955 779.469 71.4115 781.28 71.9274" stroke="#485E68" stroke-width="3" stroke-miterlimit="10"/>
<path d="M835.76 53.1263L835.384 142.127C835.384 146.051 831.825 149.976 825.078 152.918C811.214 158.945 788.729 158.945 774.865 152.918C767.932 149.976 764.373 145.911 764.373 141.986L764.748 52.9861C764.748 56.9107 768.308 60.9751 775.238 63.9186C789.291 69.9454 811.589 69.9454 825.453 63.9186C832.198 60.9751 835.571 57.0507 835.76 53.1263Z" stroke="#485E68" stroke-width="3" stroke-miterlimit="10"/>
<path d="M825.176 39.4312C811.474 47.0593 789.253 47.0593 775.549 39.4312H825.176Z" fill="white"/>
<path d="M825.176 39.4312C811.474 47.0593 789.253 47.0593 775.549 39.4312" stroke="#485E68" stroke-width="3" stroke-miterlimit="10"/>
<path fill-rule="evenodd" clip-rule="evenodd" d="M835.76 60.018C835.196 31.1466 817.35 2.41827 799.878 2.56108C782.406 2.70405 764.936 31.8613 764.373 60.3038C767.565 68.3079 782.032 74.5966 799.878 74.5966C817.724 74.5966 832.567 68.0219 835.76 60.018Z" fill="white" stroke="#485E68" stroke-width="3" stroke-miterlimit="10"/>
<path d="M810.361 185.254C814.044 185.254 817.029 182.394 817.029 178.868C817.029 175.34 814.044 172.481 810.361 172.481C806.681 172.481 803.696 175.34 803.696 178.868C803.696 182.394 806.681 185.254 810.361 185.254Z" fill="#37404A"/>
<path d="M810.361 205.3C814.044 205.3 817.029 202.44 817.029 198.915C817.029 195.387 814.044 192.527 810.361 192.527C806.681 192.527 803.696 195.387 803.696 198.915C803.696 202.44 806.681 205.3 810.361 205.3Z" fill="#37404A"/>
<path fill-rule="evenodd" clip-rule="evenodd" d="M816.842 219.136C816.842 222.685 813.882 225.524 810.177 225.524C806.475 225.524 803.512 222.685 803.512 219.136C803.512 215.589 806.475 212.75 810.177 212.75C813.882 212.927 816.842 215.766 816.842 219.136Z" fill="#37404A"/>
<path d="M836.699 57.4878C836.699 57.4878 944.932 123.454 857.928 203.132C786.846 268.278 702.988 248.274 674.481 238.868C665.966 235.962 658.375 231.173 653.008 224.506C640.79 209.459 630.794 185.008 749.451 186.719" stroke="#485E68" stroke-width="3" stroke-miterlimit="10"/>
<path d="M865.818 90.8049C865.818 90.8049 900.964 130.326 879.586 168.244" stroke="#485E68" stroke-width="3" stroke-miterlimit="10"/>
<path d="M650.375 186.672C650.375 186.672 585.381 227.119 652.967 242.907" stroke="#485E68" stroke-width="3" stroke-miterlimit="10"/>
<path d="M425.392 872.677L505.387 917.027" stroke="#485E68" stroke-width="3" stroke-miterlimit="10"/>
<path d="M347.992 924.832L425.022 967.407C425.577 967.586 426.134 967.586 426.503 967.407L543.53 902.656C544.457 902.124 544.457 900.704 543.53 900.172L468.722 858.84C466.87 857.774 464.833 857.774 462.983 858.84L348.177 922.348C346.88 922.88 346.88 924.3 347.992 924.832Z" fill="white" stroke="#485E68" stroke-width="3" stroke-miterlimit="10"/>
<path d="M435.207 860.791C436.504 861.499 436.504 862.563 435.207 863.274C433.91 863.982 431.874 863.982 430.579 863.274L414.654 854.582C413.357 853.871 413.357 852.807 414.654 852.098C415.949 851.388 417.985 851.388 419.283 852.098L435.207 860.791Z" fill="#80C1DC"/>
<path d="M403.358 915.96L406.505 931.395C406.505 935.121 412.246 938.313 419.467 938.313C426.689 938.313 432.429 935.298 432.429 931.395L435.578 915.96H403.358Z" fill="white" stroke="#485E68" stroke-width="3" stroke-miterlimit="10"/>
<path d="M438.354 903.188H429.466C426.689 902.302 423.171 901.592 419.653 901.592C415.578 901.592 411.691 902.303 408.541 903.543L400.766 903.722L401.321 911.35C401.321 916.672 409.468 921.106 419.653 921.106C429.837 921.106 437.983 916.672 437.983 911.35L438.354 903.188Z" fill="white" stroke="#485E68" stroke-width="3" stroke-miterlimit="10"/>
<path d="M419.653 901.592C427.245 901.592 433.726 904.078 436.502 907.448C437.428 906.206 437.983 904.963 437.983 903.544C437.983 898.222 429.837 893.788 419.653 893.788C409.468 893.788 401.321 898.222 401.321 903.544C401.321 904.963 401.876 906.206 402.802 907.448C405.394 904.078 412.06 901.592 419.653 901.592Z" fill="white" stroke="#485E68" stroke-width="3" stroke-miterlimit="10"/>
<path d="M419.653 893.789C409.285 893.789 400.768 898.226 400.768 903.903C400.768 909.401 409.285 914.014 419.653 914.014C430.023 914.014 438.54 909.58 438.54 903.903C438.356 898.226 430.023 893.789 419.653 893.789ZM419.653 911.531C411.506 911.531 404.841 907.982 404.841 903.724C404.841 899.466 411.506 895.919 419.653 895.919C427.802 895.919 434.467 899.466 434.467 903.724C434.283 908.16 427.802 911.531 419.653 911.531Z" fill="white" stroke="#485E68" stroke-width="3" stroke-miterlimit="10"/>
<path d="M419.653 914.189C408.913 914.189 400.395 909.399 400.395 903.722C400.395 897.866 409.097 893.255 419.653 893.255C430.392 893.255 438.91 898.045 438.91 903.722C438.91 909.576 430.208 914.189 419.653 914.189ZM419.653 894.143C409.468 894.143 401.321 898.4 401.321 903.722C401.321 909.044 409.468 913.302 419.653 913.302C429.837 913.302 437.983 909.044 437.983 903.722C437.983 898.4 429.652 894.143 419.653 894.143ZM419.653 896.447C411.875 896.447 405.395 899.818 405.395 903.899C405.395 907.98 411.875 911.35 419.653 911.35C427.429 911.35 433.91 907.98 433.91 903.899C433.91 899.818 427.429 896.447 419.653 896.447Z" fill="white" stroke="#485E68" stroke-width="3" stroke-miterlimit="10"/>
<path d="M419.653 907.624C417.985 907.624 416.69 906.382 416.69 904.786V881.546C416.69 879.95 417.985 878.708 419.653 878.708C421.319 878.708 422.616 879.95 422.616 881.546V904.786C422.616 906.382 421.135 907.624 419.653 907.624Z" fill="#E5E5E5"/>
<path d="M401.138 831.343C401.322 831.164 401.509 830.988 401.693 830.988C403.914 830.632 414.471 829.924 422.802 840.212C431.322 850.857 425.951 859.017 425.209 860.258C425.209 860.437 425.025 860.437 424.841 860.437C423.359 860.969 413.545 863.631 405.211 853.164C396.878 842.874 400.396 833.118 401.138 831.343Z" fill="#4CAF50"/>
<path d="M420.022 861.676C415.949 861.676 410.023 860.257 404.653 853.516C396.135 843.049 399.84 832.938 400.579 831.163C400.766 830.81 401.134 830.455 401.505 830.455C403.542 830.278 414.652 829.391 422.985 839.858C431.502 850.677 426.503 859.016 425.392 860.612C425.208 860.791 425.022 860.968 424.837 860.968C424.282 861.144 422.43 861.676 420.022 861.676ZM403.913 831.163C402.987 831.163 402.247 831.163 401.69 831.342C401.69 831.342 401.505 831.342 401.505 831.519C400.766 833.293 397.248 842.873 405.394 852.984C413.541 863.274 422.8 860.791 424.466 860.08C425.577 858.484 430.392 850.677 422.245 840.39C415.949 832.406 407.802 831.163 403.913 831.163Z" fill="#4CAF50"/>
<path d="M424.282 860.792C418.172 846.599 408.542 838.971 408.542 838.793L409.097 838.084C409.284 838.084 418.912 846.068 425.208 860.437L424.282 860.792Z" fill="#485E68"/>
<path d="M414.283 847.308C411.875 847.308 407.615 846.6 402.616 843.406L403.171 842.698C410.578 847.664 416.319 846.244 416.319 846.244L416.504 847.132C416.504 846.955 415.578 847.308 414.283 847.308Z" fill="#485E68"/>
<path d="M422.985 856.178L422.245 855.646C425.948 850.678 422.614 845.356 422.614 845.356L423.54 844.824C423.356 844.824 427.058 850.857 422.985 856.178Z" fill="#485E68"/>
<path d="M438.912 833.472C439.096 833.472 439.467 833.472 439.467 833.825C440.762 835.6 446.319 844.292 440.577 856.001C434.652 868.064 424.653 867.532 422.987 867.355C422.8 867.355 422.8 867.355 422.616 867.177C421.505 866.113 414.469 859.193 420.208 847.131C426.134 835.068 436.875 833.649 438.912 833.472Z" fill="#94E0FF"/>
<path d="M424.652 867.709C423.911 867.709 423.54 867.709 423.171 867.709C422.984 867.709 422.613 867.532 422.429 867.353C420.948 866.113 414.096 859.017 420.022 846.775C425.947 834.713 436.688 833.294 438.909 833.117C439.28 833.117 439.651 833.294 440.02 833.649C441.317 835.245 447.058 844.292 441.132 856.355C436.133 866.466 428.17 867.709 424.652 867.709ZM439.096 833.826C437.059 834.002 426.689 835.421 421.134 846.954C415.393 858.661 422.058 865.226 423.355 866.468C425.208 866.645 434.836 867.177 440.391 855.467C445.945 844.116 440.391 835.6 439.096 833.826Z" fill="#94E0FF"/>
<path d="M423.171 867.353L422.429 866.821C432.615 855.114 435.391 843.404 435.391 843.228L436.317 843.404C436.317 843.404 433.539 855.29 423.171 867.353Z" fill="#485E68"/>
<path d="M431.502 853.872C431.317 853.696 427.244 849.259 428.539 840.212L429.465 840.39C428.355 849.083 432.244 853.164 432.244 853.34L431.502 853.872Z" fill="#485E68"/>
<path d="M427.429 863.45C426.874 863.45 426.503 863.45 425.948 863.274L426.134 862.387C432.428 863.274 435.762 857.952 435.946 857.774L436.873 858.308C436.688 858.484 433.355 863.45 427.429 863.45Z" fill="#485E68"/>
<path d="M382.435 852.809C382.249 852.986 382.064 853.165 382.064 853.341C382.064 855.648 382.804 866.823 395.581 874.098C408.914 881.547 417.432 874.806 418.913 873.742C419.097 873.564 419.097 873.564 419.097 873.387C419.468 871.791 421.134 861.146 407.988 853.873C395.21 846.6 384.656 851.745 382.435 852.809Z" fill="#94E0FF"/>
<path d="M407.802 878.176C404.284 878.176 400.208 877.288 395.579 874.629C382.433 867.354 381.691 855.646 381.691 853.516C381.691 853.163 381.878 852.631 382.247 852.453C384.283 851.389 395.024 846.067 408.357 853.516C421.874 860.968 420.208 871.611 419.837 873.563C419.837 873.741 419.653 874.097 419.466 874.273C418.172 874.982 414.096 878.176 407.802 878.176ZM394.098 850.501C388.172 850.501 383.915 852.631 382.804 853.163L382.618 853.34C382.618 855.468 383.173 866.645 395.95 873.741C408.728 880.838 417.059 874.629 418.54 873.386C418.54 873.386 418.54 873.386 418.54 873.209C418.911 871.258 420.393 861.323 407.615 854.227C402.802 851.389 397.987 850.501 394.098 850.501Z" fill="#94E0FF"/>
<path d="M419.096 873.918C401.876 869.483 391.506 860.436 391.506 860.259L392.246 859.549C392.432 859.727 402.432 868.596 419.467 872.854L419.096 873.918Z" fill="#485E68"/>
<path d="M402.616 866.821L401.689 866.644C401.689 866.644 402.431 860.436 395.766 853.339L396.505 852.629C403.357 860.08 402.616 866.466 402.616 866.821Z" fill="#485E68"/>
<path d="M457.615 852.099C457.615 851.922 457.431 851.745 457.244 851.567C455.394 850.858 445.579 847.664 435.209 855.116C424.655 862.921 427.431 871.792 427.802 873.211C427.802 873.387 427.989 873.387 427.989 873.564C429.284 874.451 437.617 879.241 448.171 871.436C458.541 863.985 457.799 854.052 457.615 852.099Z" fill="#4CAF50"/>
<path d="M436.134 876.402C431.69 876.402 428.54 874.629 427.801 874.097C427.616 873.918 427.43 873.742 427.43 873.565C426.875 871.791 424.096 862.92 435.021 854.936C445.578 847.132 455.577 850.502 457.427 851.213C457.798 851.389 457.984 851.745 458.169 852.098C458.353 854.051 459.279 864.163 448.725 871.967C443.91 875.338 439.652 876.402 436.134 876.402ZM449.651 850.681C445.762 850.681 440.763 851.745 435.579 855.47C425.393 862.92 427.801 871.435 428.356 873.031C429.837 874.097 437.8 878.532 447.983 870.903C458.169 863.452 457.427 853.872 457.058 851.921V851.745C456.132 851.745 453.353 850.681 449.651 850.681Z" fill="#4CAF50"/>
<path d="M428.54 873.919L427.8 873.387C437.244 861.501 448.353 856.535 448.353 856.535L448.724 857.422C448.724 857.422 437.799 862.212 428.54 873.919Z" fill="#485E68"/>
<path d="M445.391 864.339C441.502 864.339 439.281 863.098 439.097 863.098L439.652 862.211C439.652 862.211 444.651 864.871 452.798 862.032L453.169 862.919C450.206 863.983 447.614 864.339 445.391 864.339Z" fill="#485E68"/>
<path d="M430.947 870.015C428.54 863.983 433.539 859.372 433.539 859.372L434.281 860.08C434.097 860.257 429.837 864.338 431.873 869.838L430.947 870.015Z" fill="#485E68"/>
<path d="M393.172 871.258C392.988 871.258 392.804 871.434 392.617 871.611C391.877 873.385 388.728 882.788 396.877 892.544C405.21 902.479 414.467 899.64 415.949 899.109C416.133 899.109 416.133 898.932 416.32 898.932C417.246 897.689 422.059 889.706 413.541 879.771C405.395 870.015 395.209 870.902 393.172 871.258Z" fill="#4CAF50" stroke="#485E68" stroke-width="3" stroke-miterlimit="10"/>
<path d="M411.133 900.352C407.247 900.352 401.69 898.932 396.506 892.724C388.172 882.789 391.322 873.209 392.061 871.258C392.246 870.903 392.617 870.547 392.988 870.547C395.024 870.194 405.579 869.307 413.912 879.242C422.429 889.353 417.614 897.513 416.69 899.109C416.504 899.288 416.319 899.464 416.133 899.464C415.578 899.82 413.728 900.352 411.133 900.352ZM393.172 871.614C393.172 871.79 393.172 871.79 393.172 871.614C392.432 873.386 389.285 882.612 397.248 892.192C405.394 901.771 414.096 899.288 415.764 898.577C416.875 897.158 421.319 889.53 413.172 879.774C405.21 870.371 395.209 871.435 393.172 871.614Z" fill="#4CAF50" stroke="#485E68" stroke-width="3" stroke-miterlimit="10"/>
<path d="M416.133 899.288C403.542 890.417 398.172 879.95 397.987 879.95L398.913 879.595C398.913 879.773 404.284 889.885 416.69 898.577L416.133 899.288Z" fill="#485E68"/>
<path d="M405.023 888.642L404.097 888.11C404.097 888.11 406.691 883.32 403.542 875.515L404.468 875.16C407.986 883.32 405.21 888.286 405.023 888.642Z" fill="#485E68"/>
<path d="M408.912 896.981C404.468 896.981 401.321 894.143 401.321 893.964L402.061 893.255C402.247 893.432 406.691 897.513 412.246 895.383L412.615 896.271C411.32 896.803 410.023 896.981 408.912 896.981Z" fill="#485E68"/>
<path d="M449.281 870.014C449.281 869.838 448.911 869.661 448.724 869.482C446.503 869.127 435.393 867.708 425.95 877.998C416.319 888.641 421.319 897.512 422.245 898.931C422.245 899.108 422.432 899.108 422.616 899.287C424.097 899.995 434.096 903.366 443.725 892.722C453.168 882.432 450.021 872.144 449.281 870.014Z" fill="#94E0FF"/>
<path d="M428.54 900.884C425.577 900.884 423.356 900.173 422.43 899.818C422.245 899.641 422.059 899.641 421.874 899.286C420.764 897.513 415.949 888.466 425.763 877.821C435.207 867.354 446.688 868.773 448.909 869.128C449.28 869.128 449.65 869.484 449.835 869.837C450.577 871.79 453.724 882.61 444.28 893.077C438.539 899.286 432.8 900.884 428.54 900.884ZM445.206 869.837C440.762 869.837 433.171 871.08 426.503 878.531C417.246 888.819 421.874 897.335 422.801 898.933C424.653 899.818 434.097 902.835 443.354 892.545C452.613 882.434 449.464 872.144 448.724 870.192C448.724 870.192 448.724 870.016 448.54 870.016C448.169 870.016 446.872 869.837 445.206 869.837Z" fill="#94E0FF"/>
<path d="M423.171 899.464L422.245 899.109C429.652 884.385 440.391 876.756 440.577 876.756L441.133 877.467C440.946 877.467 430.392 885.095 423.171 899.464Z" fill="#485E68"/>
<path d="M435.578 885.981C433.539 885.981 432.244 885.627 432.058 885.627L432.429 884.74C432.429 884.74 438.354 886.515 446.501 881.725L447.058 882.61C442.243 885.272 438.17 885.981 435.578 885.981Z" fill="#485E68"/>
<path d="M424.837 894.85C420.948 888.997 425.208 882.965 425.208 882.965L425.948 883.497C425.948 883.497 422.059 888.997 425.577 894.495L424.837 894.85Z" fill="#485E68"/>
<path d="M424.1 854.584C423.913 854.407 423.729 854.407 423.358 854.407C421.321 855.295 411.322 859.729 409.47 873.034C407.618 886.695 416.693 891.484 418.174 892.193C418.359 892.193 418.359 892.193 418.543 892.193C420.211 891.838 430.21 889.533 432.247 876.049C434.099 862.744 425.766 855.827 424.1 854.584Z" fill="#4CAF50" stroke="#485E68" stroke-width="3" stroke-miterlimit="10"/>
<path d="M418.54 892.721C418.356 892.721 418.171 892.721 417.985 892.544C416.133 891.657 407.06 886.691 409.096 872.854C410.949 859.372 421.319 854.58 423.355 853.872C423.726 853.695 424.281 853.695 424.466 854.048C426.134 855.291 434.836 862.387 432.799 876.045C430.762 889.883 420.763 892.368 418.54 892.721C418.727 892.721 418.54 892.721 418.54 892.721ZM423.726 854.936C423.726 854.936 423.54 854.936 423.726 854.936C421.69 855.646 411.875 860.257 410.023 873.209C408.17 886.335 416.69 890.949 418.356 891.836C420.392 891.48 429.836 889.174 431.689 876.045C433.725 862.919 425.392 856.178 423.726 854.936Z" fill="#4CAF50"/>
<path d="M418.54 892.721C418.356 892.721 418.171 892.721 417.985 892.544C416.133 891.657 407.06 886.691 409.096 872.854C410.949 859.372 421.319 854.58 423.355 853.872C423.726 853.695 424.281 853.695 424.466 854.048C426.134 855.291 434.836 862.387 432.799 876.045C430.762 889.883 420.763 892.368 418.54 892.721ZM418.54 892.721C418.727 892.721 418.54 892.721 418.54 892.721V892.721ZM423.726 854.936C423.726 854.936 423.54 854.936 423.726 854.936C421.69 855.646 411.875 860.257 410.023 873.209C408.17 886.335 416.69 890.949 418.356 891.836C420.392 891.48 429.836 889.174 431.689 876.045C433.725 862.919 425.392 856.178 423.726 854.936Z" stroke="#485E68" stroke-width="3" stroke-miterlimit="10"/>
<path d="M418.172 892.367C415.949 876.4 420.577 864.693 420.577 864.514L421.503 864.869C421.503 865.046 417.059 876.579 419.096 892.188L418.172 892.367Z" fill="#485E68"/>
<path d="M418.727 876.224L418.54 875.337C418.54 875.337 424.466 873.741 428.539 865.581L429.465 865.936C425.021 874.45 418.911 876.048 418.727 876.224Z" fill="#485E68"/>
<path d="M417.985 887.578C411.504 884.74 411.504 877.644 411.504 877.467H412.431C412.431 877.467 412.431 884.029 418.172 886.691L417.985 887.578Z" fill="#485E68"/>
<path d="M216.52 890.77C216.52 893.432 214.484 894.496 212.076 893.255C209.669 891.836 207.632 888.642 207.632 885.98C207.632 883.32 209.669 882.256 212.076 883.497C214.484 884.739 216.52 888.11 216.52 890.77Z" fill="#198CBF"/>
<path d="M215.595 897.866C214.669 897.866 213.743 897.69 212.817 897.158C210.04 895.56 207.632 891.836 207.632 888.642C207.632 886.868 208.373 885.449 209.669 884.74C210.965 884.029 212.632 884.208 214.298 885.093C217.076 886.691 219.483 890.417 219.483 893.609C219.483 895.383 218.743 896.803 217.446 897.513C216.891 897.69 216.335 897.866 215.595 897.866ZM211.706 887.047C211.521 887.047 211.336 887.047 211.336 887.223C210.965 887.4 210.78 887.932 210.78 888.819C210.78 890.949 212.447 893.787 214.484 894.851C215.224 895.207 215.78 895.383 216.15 895.207C216.52 895.028 216.706 894.496 216.706 893.609C216.706 891.481 215.039 888.642 213.002 887.579C212.447 887.223 212.076 887.047 211.706 887.047Z" fill="#454646"/>
<path d="M119.12 838.083L223 780.605V665.65L119.12 723.128V838.083Z" fill="white" stroke="#485E68" stroke-width="3" stroke-miterlimit="10"/>
<path d="M110.788 733.949L217.631 674.874V793.023L110.788 852.097V733.949ZM214.668 679.843L113.751 735.723V847.484L214.668 791.604V679.843Z" fill="#454646"/>
<path d="M175.071 819.888L172.467 821.239L209.099 885.961L211.704 884.607L175.071 819.888Z" fill="#454646"/>
<path d="M187.634 736.966C187.634 750.092 174.857 767.655 161.895 785.75C149.118 782.024 136.156 778.654 136.156 765.527C136.156 755.237 142.082 743.53 150.229 739.094C158.192 734.659 161.895 739.449 161.895 739.449C161.895 739.449 165.598 730.578 173.561 726.144C181.708 721.709 187.634 726.676 187.634 736.966Z" fill="#94E0FF"/>
<path d="M199.114 740.867C199.114 753.994 186.337 771.557 173.375 789.651C160.598 785.926 147.637 782.555 147.637 769.429C147.637 759.139 153.562 747.429 161.709 742.995C169.672 738.561 173.375 743.35 173.375 743.35C173.375 743.35 177.079 734.48 185.041 730.045C193.189 725.611 199.114 730.756 199.114 740.867Z" stroke="#485E68" stroke-width="3" stroke-miterlimit="10"/>
<path d="M1135.52 527.458C1135.52 531.36 1138.3 536.15 1141.82 538.101C1145.33 540.052 1148.11 538.456 1148.11 534.554C1148.11 530.652 1145.33 525.86 1141.82 523.908C1138.3 522.136 1135.52 523.732 1135.52 527.458Z" fill="#198CBF"/>
<path d="M1142.56 542.36C1141.45 542.36 1140.15 542.005 1138.85 541.294C1134.78 538.988 1131.63 533.845 1131.63 529.232C1131.63 526.749 1132.56 524.798 1134.41 523.91C1136.26 523.023 1138.49 523.023 1140.71 524.266C1144.78 526.57 1147.93 531.715 1147.93 536.328C1147.93 538.811 1147 540.763 1145.15 541.65C1144.41 542.182 1143.48 542.36 1142.56 542.36ZM1136.82 526.57C1136.45 526.57 1136.26 526.57 1136.08 526.749C1135.52 527.104 1135.15 527.989 1135.15 529.232C1135.15 532.602 1137.74 536.683 1140.71 538.279C1141.82 538.811 1142.74 538.988 1143.48 538.635C1144.04 538.279 1144.41 537.392 1144.41 536.152C1144.41 532.779 1141.82 528.7 1138.85 527.104C1138.11 526.749 1137.37 526.57 1136.82 526.57Z" fill="#454646"/>
<path d="M1217.37 481.865L1308.84 532.424V431.306L1217.37 380.748V481.865Z" fill="white" stroke="#485E68" stroke-width="3" stroke-miterlimit="10"/>
<path d="M1303.29 539.166L1208.48 486.656V381.635L1303.29 434.146V539.166ZM1212 484.704L1299.77 533.312V436.097L1212 387.489V484.704Z" fill="#454646"/>
<path d="M1208.86 484.424L1143.13 528.099L1145.13 530.868L1210.86 487.192L1208.86 484.424Z" fill="#454646"/>
<path d="M1270.7 451.884C1271.62 453.482 1272.55 455.256 1273.29 456.852C1273.47 457.561 1273.47 458.272 1273.66 458.98L1272.18 457.916C1271.99 456.676 1271.81 455.256 1271.44 454.014L1268.84 452.063C1268.29 451.707 1267.73 451.352 1267.18 450.82C1266.99 450.111 1266.62 449.401 1266.25 448.692C1267.18 449.401 1268.1 449.933 1269.03 450.643L1270.7 451.884Z" fill="#94E0FF"/>
<path d="M1243.85 460.755C1244.03 461.287 1244.03 461.819 1244.22 462.529L1242.92 461.642C1241.44 458.272 1240.14 454.901 1239.59 451.352L1241.07 452.239C1241.25 453.482 1241.62 454.722 1242 455.965L1243.29 456.852C1243.29 457.384 1243.48 458.093 1243.48 458.627L1242.74 458.093C1243.11 458.98 1243.47 459.868 1243.85 460.755Z" fill="#94E0FF"/>
<path d="M1277.73 468.205C1277.92 469.447 1277.92 470.688 1277.92 471.754C1277.92 473.173 1277.73 474.592 1277.55 475.833C1277.36 476.365 1277.36 476.899 1277.18 477.252C1276.99 478.139 1276.62 479.027 1276.25 479.914C1275.51 481.51 1274.58 482.752 1273.29 483.64C1269.4 487.01 1263.29 487.187 1256.44 483.284C1244.59 476.72 1235.14 460.932 1235.14 447.803C1235.14 440.177 1238.48 435.209 1243.66 433.789C1245.14 433.434 1246.81 433.257 1248.66 433.434C1249.96 433.613 1251.25 433.789 1252.55 434.321C1253.29 434.5 1254.03 434.853 1254.77 435.209C1255.51 435.564 1256.07 435.919 1256.81 436.272C1257.92 436.804 1259.03 437.515 1259.96 438.224C1260.51 438.579 1260.88 438.934 1261.44 439.29C1264.59 441.773 1267.36 444.788 1269.77 448.158C1270.7 449.401 1271.62 450.82 1272.36 452.24C1272.55 452.595 1272.92 453.127 1273.1 453.48C1273.47 454.367 1274.03 455.078 1274.4 455.965C1275.88 459.336 1277.18 462.706 1277.73 466.253C1277.73 466.964 1277.73 467.673 1277.73 468.205ZM1238.85 460.044C1241.25 466.609 1245.33 472.641 1250.33 477.252C1247.92 473.526 1246.07 469.271 1244.96 465.366C1244.96 465.013 1244.77 464.657 1244.77 464.302L1244.22 463.947L1238.85 460.044ZM1272.36 482.042C1273.1 481.333 1273.85 480.622 1274.4 479.735L1271.07 478.495L1269.21 477.784L1268.47 477.607C1268.29 478.316 1268.1 478.85 1267.73 479.382C1266.99 480.978 1265.88 482.22 1264.59 483.284C1264.03 483.64 1263.48 483.993 1262.73 484.348C1264.77 484.704 1266.62 484.704 1268.47 484.172C1269.96 483.64 1271.25 482.929 1272.36 482.042ZM1240.88 437.692C1240.14 438.402 1239.4 439.111 1238.85 439.998L1239.77 440.354L1241.25 440.886L1244.59 442.128C1244.77 441.594 1244.96 441.062 1245.33 440.53C1245.51 439.998 1245.88 439.643 1246.07 439.29C1247.18 437.692 1248.66 436.451 1250.33 435.564C1248.29 435.209 1246.44 435.209 1244.59 435.741C1243.29 436.096 1242 436.804 1240.88 437.692ZM1270.7 451.884C1268.47 448.337 1265.88 445.143 1262.92 442.481C1264.21 444.611 1265.33 446.739 1266.44 448.869C1266.81 449.578 1266.99 450.288 1267.36 450.997C1267.92 452.416 1268.29 453.835 1268.66 455.255L1272.18 457.917L1273.66 458.98L1274.4 459.512C1274.03 458.625 1273.66 457.738 1273.29 456.674C1272.55 455.255 1271.62 453.659 1270.7 451.884ZM1255.88 454.546V448.514C1253.48 447.271 1251.07 446.207 1248.85 445.32C1248.66 445.32 1248.48 445.143 1248.29 445.143L1247.36 444.788L1245.7 444.256C1245.33 445.499 1244.96 446.918 1244.77 448.514C1244.77 449.046 1244.59 449.578 1244.59 449.933C1244.59 450.82 1244.4 451.708 1244.4 452.416L1247 453.835L1248.48 454.546L1255.88 458.625V455.965V454.546ZM1255.88 466.077V460.4L1248.66 456.497L1247.18 455.787L1244.4 454.191C1244.4 455.431 1244.59 456.851 1244.59 458.093C1244.59 458.625 1244.77 459.336 1244.77 459.868C1244.96 461.108 1245.14 462.527 1245.51 463.77L1248.11 465.721C1248.66 466.077 1249.22 466.432 1249.77 466.964C1250.33 467.317 1250.88 467.673 1251.44 468.205C1252.92 469.092 1254.4 469.979 1255.7 470.866V468.028L1255.88 466.077ZM1257.36 456.851V459.512L1259.77 460.932L1261.25 461.642L1268.84 465.721C1268.84 464.834 1268.84 463.947 1268.66 463.059C1268.66 462.528 1268.47 461.996 1268.47 461.464C1268.29 459.689 1267.92 458.093 1267.55 456.319L1264.96 454.367C1263.66 453.48 1262.36 452.595 1261.25 451.708C1260.7 451.352 1260.33 451.176 1259.77 450.82C1259.03 450.288 1258.1 449.756 1257.36 449.401V455.433V456.851ZM1257.36 468.56V471.222C1258.1 471.575 1259.03 472.107 1259.77 472.462C1260.33 472.641 1260.7 472.994 1261.25 473.173C1262.55 473.705 1263.84 474.237 1264.96 474.769L1267.55 475.656C1267.73 475.124 1267.92 474.592 1268.1 473.882C1268.29 473.35 1268.29 472.994 1268.47 472.462C1268.84 470.866 1268.85 469.271 1269.03 467.496L1261.44 463.415L1259.96 462.706L1257.55 461.287V467.141L1257.36 468.56ZM1255.88 475.656V472.107C1254.77 471.398 1253.66 470.866 1252.55 470.156C1251.99 469.802 1251.44 469.447 1250.7 468.915C1249.77 468.204 1248.85 467.673 1247.92 466.964L1246.44 465.898L1246.25 465.721C1246.62 466.964 1247 468.383 1247.55 469.624C1249.59 475.124 1252.55 479.559 1255.88 481.688V478.495V475.656ZM1257.18 482.22C1259.03 483.108 1260.88 483.108 1262.36 482.397C1263.1 482.042 1263.84 481.51 1264.59 480.801C1265.51 479.914 1266.25 478.495 1266.99 477.075L1265.14 476.365C1263.84 475.833 1262.55 475.301 1261.07 474.769C1260.51 474.592 1260.14 474.413 1259.59 474.06C1258.84 473.705 1257.92 473.173 1257.18 472.818V477.252V479.382V482.22ZM1255.88 443.013V437.515C1254.59 436.983 1253.48 436.804 1252.36 436.983C1251.25 437.16 1250.14 437.515 1249.22 438.402C1248.66 438.758 1248.29 439.29 1247.73 439.998C1247.36 440.354 1247.18 440.886 1246.81 441.241C1246.44 441.773 1246.25 442.305 1246.07 442.837L1247.55 443.369L1247.92 443.547C1248.29 443.724 1248.66 443.901 1249.03 443.901C1251.25 444.788 1253.48 445.852 1255.88 447.094V444.611V443.013ZM1257.36 445.143V447.626C1258.1 448.158 1259.03 448.514 1259.77 449.046C1260.33 449.401 1260.7 449.578 1261.25 449.933C1262.55 450.82 1263.84 451.708 1265.33 452.771L1267.18 454.014C1266.81 452.595 1266.25 450.997 1265.7 449.756C1265.33 449.046 1265.14 448.337 1264.77 447.626C1263.84 445.499 1262.73 443.547 1261.44 441.949C1261.07 441.417 1260.51 440.709 1259.96 440.354C1259.22 439.466 1258.29 438.758 1257.55 438.224V443.547L1257.36 445.143ZM1276.07 475.301C1276.25 474.237 1276.44 472.994 1276.44 471.754L1273.66 470.156L1272.18 469.447L1269.96 468.205C1269.96 469.803 1269.77 471.398 1269.59 472.994C1269.59 473.526 1269.4 474.06 1269.21 474.413C1269.03 474.945 1269.03 475.656 1268.84 476.188L1269.96 476.543L1271.62 477.075L1274.96 478.316C1275.14 477.784 1275.33 477.252 1275.51 476.72C1275.88 476.188 1276.07 475.833 1276.07 475.301ZM1273.85 468.736L1276.44 470.156C1276.44 469.271 1276.25 468.383 1276.25 467.317C1276.25 466.785 1276.07 466.253 1276.07 465.545C1275.88 464.302 1275.51 463.059 1275.14 461.819L1273.85 460.932L1272.36 459.868L1269.03 457.385C1269.4 458.98 1269.59 460.576 1269.77 462.174C1269.77 462.706 1269.96 463.238 1269.96 463.77C1269.96 464.657 1270.14 465.545 1270.14 466.432L1272.55 467.673L1273.85 468.736ZM1236.63 449.578C1236.63 452.24 1237.18 454.899 1238.11 457.917L1242.92 461.464L1244.22 462.351C1244.03 461.819 1244.03 461.287 1243.85 460.576C1243.66 459.868 1243.66 459.157 1243.48 458.449C1243.48 457.917 1243.29 457.206 1243.29 456.674C1243.11 455.431 1243.11 454.191 1243.11 453.127L1241.07 452.061L1239.59 451.176L1236.63 449.578ZM1238.11 441.417C1237.18 443.369 1236.81 445.499 1236.63 448.158L1239.22 449.578L1240.7 450.465L1242.92 451.708C1242.92 450.82 1242.92 449.933 1243.11 449.222C1243.11 448.69 1243.29 448.158 1243.29 447.803C1243.48 446.386 1243.85 445.143 1244.22 443.901L1241.07 442.66L1239.59 442.128L1238.11 441.417Z" fill="#485E68"/>
<path d="M1257.36 456.853V455.257L1259.77 456.677V450.821C1260.33 451.176 1260.7 451.353 1261.25 451.708V457.385L1268.48 461.288C1268.48 461.819 1268.66 462.351 1268.66 462.886L1261.25 458.804V461.466L1259.77 460.756V458.096L1257.36 456.853Z" fill="#94E0FF"/>
<path d="M1261.07 480.092C1262.36 480.624 1263.48 480.801 1264.59 480.624C1263.84 481.333 1263.1 481.865 1262.36 482.22C1261.62 481.865 1261.07 481.512 1260.33 481.156C1259.22 480.624 1258.11 479.914 1257.18 479.205V477.075C1257.92 477.962 1258.84 478.673 1259.59 479.205V473.883C1260.14 474.06 1260.51 474.415 1261.07 474.592V480.092Z" fill="#94E0FF"/>
<path d="M1271.07 478.494C1269.96 480.09 1268.47 481.333 1266.81 482.22C1268.84 482.576 1270.7 482.576 1272.55 482.044C1271.44 483.108 1270.14 483.639 1268.66 484.171C1267.36 483.995 1266.07 483.816 1264.77 483.284C1266.07 482.397 1267.18 480.978 1267.92 479.382C1268.47 479.026 1268.84 478.494 1269.4 477.786L1271.07 478.494Z" fill="#94E0FF"/>
<path d="M1257.36 468.56V466.964C1258.1 467.496 1259.03 468.028 1259.77 468.384V462.351L1261.25 463.062V469.092C1263.66 470.335 1265.88 471.399 1268.29 472.286C1268.29 472.818 1268.1 473.35 1267.92 473.705C1265.7 472.818 1263.47 471.754 1261.07 470.511V472.997C1260.51 472.818 1260.14 472.641 1259.59 472.286V469.803C1258.85 469.448 1258.1 468.916 1257.36 468.56Z" fill="#94E0FF"/>
<path d="M1276.07 475.3C1275.88 475.832 1275.88 476.366 1275.69 476.72L1272.36 475.479C1272.18 476.011 1271.99 476.543 1271.62 477.075L1269.96 476.543C1270.32 476.011 1270.51 475.479 1270.7 474.947L1269.21 474.413C1269.4 473.881 1269.4 473.349 1269.58 472.994L1271.25 473.528C1271.62 472.285 1271.99 470.866 1272.18 469.27L1273.66 469.979C1273.47 471.398 1273.1 472.641 1272.92 473.881L1276.07 475.3Z" fill="#94E0FF"/>
<path d="M1273.84 468.738L1272.36 468.028C1272.36 467.14 1272.55 466.255 1272.55 465.545L1269.96 464.125C1269.96 463.593 1269.77 463.061 1269.77 462.529L1272.55 464.125C1272.55 462.885 1272.36 461.466 1272.36 460.223L1273.84 461.287C1274.03 462.529 1274.03 463.77 1274.03 464.836L1276.07 465.9C1276.25 466.432 1276.25 467.14 1276.25 467.675L1274.03 466.432C1274.03 466.964 1274.03 467.851 1273.84 468.738Z" fill="#94E0FF"/>
<path d="M1259.77 440.354C1260.33 440.886 1260.7 441.42 1261.25 441.952V445.499C1262.36 446.21 1263.48 446.742 1264.59 447.45C1264.96 448.161 1265.14 448.87 1265.51 449.58C1264.03 448.693 1262.55 447.806 1261.25 446.918V449.757C1260.7 449.402 1260.33 449.225 1259.77 448.87V446.21C1259.03 445.854 1258.11 445.322 1257.36 444.967V443.371C1258.11 443.724 1259.03 444.259 1259.77 444.612V440.354Z" fill="#94E0FF"/>
<path d="M1244.03 463.949L1244.59 464.302C1244.59 464.658 1244.77 465.013 1244.77 465.368C1244.59 464.836 1244.4 464.481 1244.03 463.949Z" fill="#94E0FF"/>
<path d="M1249.59 461.466L1252.18 463.418C1253.48 464.303 1254.77 465.19 1255.88 466.077V467.675C1254.59 466.788 1253.29 465.901 1251.81 464.837L1249.96 463.594C1250.33 465.013 1250.88 466.609 1251.44 467.852C1250.88 467.497 1250.33 467.141 1249.77 466.609C1249.22 465.19 1248.85 463.771 1248.47 462.352L1244.96 459.692C1244.96 459.16 1244.77 458.449 1244.77 457.917L1248.11 460.4C1247.73 458.804 1247.55 457.209 1247.36 455.611L1248.85 456.321C1248.85 457.917 1249.22 459.692 1249.59 461.466Z" fill="#94E0FF"/>
<path d="M1248.85 445.323C1248.47 446.919 1248.47 448.515 1248.29 450.289L1255.88 454.37V455.966L1248.29 451.885C1248.29 452.772 1248.29 453.66 1248.47 454.547L1247 453.836C1247 452.951 1246.81 452.064 1246.81 451.176L1244.4 449.934C1244.4 449.402 1244.59 448.87 1244.59 448.515L1246.81 449.757C1246.81 448.161 1246.99 446.563 1247.18 444.968L1248.11 445.323C1248.47 445.144 1248.66 445.144 1248.85 445.323Z" fill="#94E0FF"/>
<path d="M1250.14 440.709L1251.99 441.418C1253.29 441.952 1254.59 442.484 1256.07 443.016V444.611C1254.77 444.079 1253.48 443.547 1252.36 443.016L1249.77 442.128C1249.59 442.66 1249.4 443.192 1249.22 443.903C1248.84 443.724 1248.47 443.547 1248.11 443.547L1247.73 443.369C1247.92 442.837 1247.92 442.128 1248.11 441.596L1246.99 441.241C1247.18 440.709 1247.55 440.354 1247.92 439.998L1248.66 440.177C1248.84 439.466 1249.03 438.934 1249.4 438.402C1250.33 437.515 1251.44 437.16 1252.55 436.983C1251.62 437.87 1250.88 439.113 1250.14 440.709Z" fill="#94E0FF"/>
<path d="M1252.55 469.979C1253.48 472.109 1254.59 474.06 1255.88 475.656V478.318C1252.73 475.835 1249.96 472.818 1247.55 469.447C1246.99 468.207 1246.62 466.964 1246.25 465.545L1246.44 465.724C1248.66 469.271 1251.25 472.465 1254.22 475.303C1252.92 473.173 1251.81 471.045 1250.7 468.915C1251.25 469.271 1251.81 469.626 1252.55 469.979Z" fill="#94E0FF"/>
<path d="M1240.51 447.627C1240.51 448.514 1240.7 449.401 1240.7 450.465L1239.22 449.58C1239.03 448.337 1239.03 447.273 1239.03 446.031C1239.03 444.611 1239.22 443.192 1239.4 441.952L1240.88 442.484C1240.7 443.548 1240.51 444.79 1240.51 446.031L1243.29 447.627C1243.29 448.161 1243.11 448.693 1243.11 449.046L1240.51 447.627Z" fill="#94E0FF"/>
<path d="M1241.99 439.29C1241.81 439.822 1241.62 440.354 1241.25 440.886L1239.77 440.354C1239.96 439.467 1240.33 438.58 1240.7 437.694C1241.81 436.628 1243.11 436.096 1244.59 435.564C1243.85 436.275 1243.11 436.984 1242.55 437.871L1245.88 439.114C1245.7 439.467 1245.33 439.999 1245.14 440.354L1241.99 439.29Z" fill="#94E0FF"/>
<path d="M1260.51 434.324C1272.36 440.886 1281.81 456.674 1281.81 469.803C1281.81 477.431 1278.47 482.397 1273.29 483.816C1274.4 482.753 1275.51 481.51 1276.25 480.093C1276.99 479.382 1277.73 478.674 1278.29 477.786L1277.36 477.431C1277.55 476.899 1277.55 476.544 1277.73 476.012L1279.03 476.544C1279.96 474.592 1280.32 472.465 1280.51 469.803L1277.92 468.383C1277.92 467.852 1277.73 467.32 1277.73 466.609L1280.69 468.207C1280.69 465.545 1280.14 462.883 1279.21 459.868L1274.4 456.321C1274.03 455.434 1273.66 454.546 1273.1 453.836L1278.47 457.74C1276.07 451.353 1271.99 445.144 1266.99 440.533C1269.4 444.256 1271.25 448.514 1272.36 452.416C1271.62 450.999 1270.7 449.757 1269.77 448.337C1267.73 442.837 1264.77 438.403 1261.44 436.275V439.467C1260.88 439.113 1260.51 438.758 1259.96 438.403V435.564C1258.1 434.677 1256.44 434.677 1254.77 435.388C1254.03 435.032 1253.29 434.856 1252.55 434.5C1253.11 434.145 1253.66 433.79 1254.22 433.436C1252.18 433.081 1250.33 433.081 1248.47 433.613C1246.62 433.436 1244.96 433.613 1243.48 433.968C1247.55 430.598 1253.66 430.419 1260.51 434.324Z" fill="#94E0FF"/>
<path d="M274.108 1179.05C274.108 1182.95 276.886 1187.74 280.404 1189.69C283.922 1191.64 286.699 1190.04 286.699 1186.14C286.699 1182.24 283.922 1177.45 280.404 1175.5C276.886 1173.72 274.108 1175.32 274.108 1179.05Z" fill="#198CBF"/>
<path d="M281.144 1193.95C280.033 1193.95 278.738 1193.59 277.441 1192.88C273.368 1190.58 270.219 1185.43 270.219 1180.82C270.219 1178.34 271.145 1176.38 272.997 1175.5C274.849 1174.61 277.07 1174.61 279.294 1175.85C283.367 1178.16 286.514 1183.3 286.514 1187.92C286.514 1190.4 285.588 1192.35 283.738 1193.24C282.996 1193.77 282.07 1193.95 281.144 1193.95ZM275.405 1178.16C275.034 1178.16 274.849 1178.16 274.663 1178.34C274.108 1178.69 273.737 1179.58 273.737 1180.82C273.737 1184.19 276.331 1188.27 279.294 1189.87C280.404 1190.4 281.33 1190.58 282.07 1190.22C282.625 1189.87 282.996 1188.98 282.996 1187.74C282.996 1184.37 280.404 1180.29 277.441 1178.69C276.699 1178.34 275.96 1178.16 275.405 1178.16Z" fill="#454646"/>
<path d="M355.955 1133.45L447.428 1184.01V1082.89L355.955 1032.33V1133.45Z" fill="white" stroke="#485E68" stroke-width="3" stroke-miterlimit="10"/>
<path d="M441.872 1190.75L347.066 1138.24V1033.22L441.872 1085.73V1190.75ZM350.584 1136.29L438.354 1184.9V1087.68L350.584 1039.08V1136.29Z" fill="#454646"/>
<path d="M347.619 1135.88L281.888 1179.56L283.894 1182.33L349.625 1138.65L347.619 1135.88Z" fill="#454646"/>
<path d="M424.281 1096.55L426.134 1099.75L424.281 1100.81V1098.68V1096.55Z" fill="#94E0FF"/>
<path d="M382.618 1127.42V1129.02V1130.61L380.766 1127.95L382.618 1127.42Z" fill="#94E0FF"/>
<path d="M402.987 1087.33C416.32 1094.6 426.874 1112.52 426.874 1127.07C426.874 1141.61 416.136 1147.47 402.803 1140.19C389.47 1132.92 378.916 1115.01 378.916 1100.46C378.916 1085.91 389.654 1080.06 402.987 1087.33Z" fill="#94E0FF"/>
<path d="M373.73 1128.13L374.471 1129.55L374.101 1129.73L373.174 1130.08L374.101 1131.15L374.471 1131.86L373.545 1132.57L371.138 1128.84L373.73 1128.13Z" fill="#485E68"/>
<path d="M374.1 1129.73L386.323 1136.65L395.951 1142.15V1143.39V1143.57L374.1 1131.15L373.174 1130.08L374.1 1129.73Z" fill="#485E68"/>
<path d="M400.95 1092.65C411.32 1101.52 418.912 1116.42 418.912 1128.84C418.912 1143.21 408.728 1149.24 395.951 1143.21V1141.97L386.323 1136.47C376.508 1127.42 369.472 1113.41 369.656 1101.34C369.656 1086.62 380.581 1080.41 393.914 1087.51V1088.39L400.95 1092.65ZM394.098 1140.9C407.06 1148 417.43 1142.32 417.43 1128.13C417.43 1113.94 407.06 1096.73 394.098 1089.46C381.137 1082.36 370.767 1088.04 370.582 1102.23C370.767 1116.42 381.323 1133.81 394.098 1140.9Z" fill="#485E68"/>
<path d="M416.136 1097.8L418.541 1101.7L416.136 1103.12L415.209 1101.52L415.949 1100.99L416.691 1100.64L415.949 1099.57L415.209 1098.33L416.136 1097.8Z" fill="#485E68"/>
<path d="M393.729 1087.33L415.949 1099.57L416.69 1100.64L415.949 1100.99L400.95 1092.65L393.729 1088.75V1087.86V1087.33Z" fill="#485E68"/>
<path d="M629.635 733.772C629.635 733.772 624.822 707.873 655.561 706.277C655.561 706.277 650.375 665.651 700.185 678.424C700.185 678.424 704.63 656.427 745.183 666.185" stroke="#485E68" stroke-width="3" stroke-miterlimit="10"/>
<path d="M1188.66 823.817L1129.12 791.191V726.436H1248.03V791.192L1188.66 823.817Z" fill="white" stroke="black" stroke-width="2"/>
<path d="M1247.36 726.855V790.719L1188.3 823.359L1129.41 790.895V727.031H1247.36V726.855ZM1250.51 723.837H1126.45V792.67L1188.66 827.085L1250.88 792.67L1250.51 723.837Z" fill="#485E68"/>
<path d="M1188.67 754.351C1186.07 754.351 1183.85 753.817 1182 752.577L1129.97 723.66L1189.04 691.019L1248.11 723.66L1196.07 752.398C1193.48 753.641 1190.89 754.351 1188.67 754.351Z" fill="white"/>
<path d="M1189.39 691.834L1188.66 691.436L1187.94 691.834L1132.2 722.523L1129.82 723.837L1132.2 725.151L1181.82 752.466C1183.91 753.661 1186.2 754.254 1188.66 754.254C1191.21 754.254 1193.48 753.444 1195.42 752.511L1195.46 752.493L1195.5 752.472L1245.12 725.151L1247.51 723.837L1245.12 722.523L1189.39 691.834ZM1181.62 752.687L1181.62 752.685L1129.54 723.838L1188.66 691.136L1247.78 723.838L1195.74 752.673C1193.58 753.777 1191.06 754.269 1188.66 754.269C1186.23 754.269 1183.55 753.763 1181.62 752.687Z" fill="#485E68" stroke="black" stroke-width="3"/>
<path d="M1183.67 713.016C1184.96 713.725 1186.07 714.612 1186.63 715.855C1188.48 719.225 1185.15 722.951 1179.22 724.015C1175.15 724.724 1170.7 724.015 1167.93 722.419C1166.63 721.709 1165.52 720.645 1164.96 719.581C1163.11 716.21 1166.45 712.485 1172.37 711.597C1176.44 710.71 1180.7 711.418 1183.67 713.016Z" fill="#94E0FF"/>
<path d="M1211.81 727.386C1213.11 728.094 1214.22 728.982 1214.77 730.224C1216.63 733.595 1213.29 737.32 1207.37 738.384C1203.29 739.093 1198.85 738.384 1196.07 736.789C1194.78 736.078 1193.66 735.191 1193.11 733.95C1191.26 730.58 1194.59 726.854 1200.52 725.788C1204.59 725.079 1209.03 725.788 1211.81 727.386Z" fill="#94E0FF"/>
<path d="M485.944 896.802C487.425 897.511 487.425 898.753 485.944 899.641C484.647 900.349 482.239 900.528 480.944 899.641L464.833 890.949C463.352 890.238 463.352 888.819 464.833 888.11C466.13 887.399 468.538 887.223 469.833 888.11L485.944 896.802Z" fill="#94E0FF"/>
<path d="M524.458 900.528C526.124 901.415 526.124 902.835 524.458 903.72C522.977 904.607 520.385 904.607 518.719 903.72L479.647 882.61C477.981 881.722 477.981 880.303 479.647 879.416C481.128 878.531 483.72 878.531 485.388 879.416L524.458 900.528Z" fill="#94E0FF"/>
</svg>
