<svg width="649" height="637" viewBox="0 0 649 637" fill="none" xmlns="http://www.w3.org/2000/svg">
<path d="M873 2L341.661 296.305C335.06 299.986 335.06 309.142 341.661 312.823L429.347 361.339L286.684 440.249C279.788 444.118 271.216 444.118 264.222 440.249L232.693 422.786C227.373 419.861 220.871 419.861 215.551 422.786L44.7101 517.364L6.28579 538.602C0.571405 541.811 0.571405 549.645 6.28579 552.855L95.9425 602.503L147.273 630.914" stroke="#485E68" stroke-width="3" stroke-linecap="round" stroke-linejoin="round"/>
<path d="M267.67 378.329L247.276 389.656L247.374 389.561C247.374 389.561 247.374 389.467 247.472 389.467L247.571 389.373C247.571 389.373 247.571 389.278 247.669 389.278L247.767 389.184C247.767 389.184 247.767 389.09 247.866 389.09L247.965 388.995C247.965 388.995 247.965 388.995 247.965 388.901C247.965 388.806 248.064 388.806 248.064 388.712C248.26 388.429 248.457 388.24 248.655 387.957C248.753 387.863 248.753 387.863 248.851 387.768C248.95 387.674 248.95 387.674 249.048 387.58C249.344 387.297 249.639 387.013 249.936 386.636L262.546 379.65C263.039 379.462 263.63 379.273 264.122 379.179C264.222 379.179 264.32 379.084 264.418 379.084C264.517 379.084 264.615 378.99 264.713 378.99C264.813 378.99 264.911 378.895 265.01 378.895C265.305 378.801 265.601 378.707 265.994 378.612C265.994 378.612 265.994 378.612 266.094 378.612C266.192 378.612 266.29 378.612 266.29 378.518H266.389C266.487 378.518 266.487 378.518 266.585 378.424C266.684 378.424 266.684 378.424 266.783 378.424C266.882 378.424 266.882 378.424 266.98 378.329C267.078 378.329 267.078 378.329 267.177 378.329C267.275 378.329 267.275 378.329 267.373 378.329C267.473 378.329 267.473 378.329 267.67 378.329C267.571 378.424 267.571 378.424 267.67 378.329Z" fill="#485E68"/>
<path d="M245.107 396.64C245.107 396.546 245.107 396.357 245.107 396.263C245.107 395.885 245.107 395.413 245.206 395.036L277.325 377.197C278.015 377.197 278.803 377.102 279.492 377.102C279.788 377.102 279.985 377.102 280.182 377.102L245.107 396.64Z" fill="#485E68"/>
<path d="M289.246 377.763L246.388 401.643C246.388 401.548 246.29 401.454 246.29 401.36C246.191 401.265 246.191 401.171 246.191 401.076C246.093 400.888 245.995 400.605 245.895 400.416L287.079 377.479C287.472 377.479 287.867 377.574 288.163 377.574C288.36 377.574 288.556 377.668 288.655 377.668C288.853 377.763 289.049 377.763 289.246 377.763Z" fill="#485E68"/>
<path d="M296.538 379.463L249.246 405.796C248.95 405.419 248.655 405.136 248.359 404.758L294.764 378.99C295.257 379.084 295.65 379.274 296.143 379.367C296.241 379.367 296.438 379.367 296.538 379.463Z" fill="#485E68"/>
<path d="M302.744 381.727L253.482 409.1C253.384 409.006 253.285 409.006 253.187 408.912C253.089 408.817 252.989 408.817 252.891 408.723C252.792 408.629 252.694 408.534 252.596 408.534C252.496 408.44 252.398 408.345 252.3 408.345L301.266 381.067C301.463 381.161 301.562 381.161 301.66 381.256C301.858 381.35 301.956 381.35 302.054 381.444C302.251 381.539 302.349 381.539 302.448 381.633C302.448 381.633 302.547 381.633 302.744 381.727Z" fill="#485E68"/>
<path d="M307.769 384.654L258.704 411.932C258.605 411.838 258.409 411.838 258.31 411.744C258.211 411.649 258.014 411.649 257.916 411.555C257.817 411.459 257.621 411.459 257.521 411.366C257.423 411.272 257.226 411.272 257.128 411.176L306.39 383.709C306.488 383.803 306.586 383.805 306.685 383.899C306.783 383.992 306.883 384.088 306.981 384.088C307.079 384.182 307.178 384.276 307.276 384.276C307.572 384.465 307.671 384.559 307.769 384.654Z" fill="#485E68"/>
<path d="M311.71 388.146L265.108 414.103C264.91 414.103 264.812 414.008 264.615 414.008C264.418 413.914 264.32 413.914 264.222 413.914C264.024 413.82 263.925 413.82 263.729 413.82C263.531 413.725 263.334 413.725 263.236 413.631L310.724 387.202C310.822 387.296 310.921 387.391 310.921 387.391C311.019 387.485 311.119 387.579 311.119 387.674C311.217 387.768 311.315 387.862 311.315 387.957C311.512 387.957 311.61 388.051 311.71 388.146Z" fill="#485E68"/>
<path d="M311.414 405.419L296.143 413.914C295.945 414.008 295.749 414.008 295.65 414.103H295.552C295.157 414.197 294.862 414.292 294.468 414.386H294.369C293.975 414.48 293.581 414.575 293.285 414.669C292.793 414.763 292.497 414.858 292.104 414.952C291.906 415.047 291.709 415.047 291.513 415.047L313.582 402.776C313.484 402.871 313.484 402.965 313.384 403.059C313.187 403.342 313.089 403.531 312.892 403.72C312.695 403.909 312.596 404.097 312.399 404.38C312.399 404.38 312.399 404.38 312.399 404.475C312.203 404.664 312.103 404.852 311.907 405.041C311.907 405.041 311.907 405.041 311.907 405.135C311.611 405.23 311.512 405.324 311.414 405.419Z" fill="#485E68"/>
<path d="M314.37 392.394L272.695 415.613C272.497 415.613 272.3 415.613 272.202 415.519C271.61 415.424 271.019 415.33 270.526 415.236L313.877 391.072C314.074 391.355 314.173 391.639 314.272 392.016C314.272 392.205 314.37 392.299 314.37 392.394Z" fill="#485E68"/>
<path d="M282.152 415.99C281.463 415.99 280.773 415.99 280.083 415.99C279.788 415.99 279.592 415.99 279.394 415.99L315.256 396.074C315.256 396.168 315.256 396.357 315.256 396.451C315.256 396.829 315.256 397.301 315.256 397.678L282.152 415.99Z" fill="#485E68"/>
<path d="M260.379 396.829V376.442H297.522V396.829L278.999 407.023L260.379 396.829Z" fill="white"/>
<path d="M297.029 376.913V396.546L278.901 406.551L260.773 396.546V376.913H297.029ZM298.015 375.97H259.886V397.113L278.999 407.685L298.114 397.113L298.015 375.97Z" fill="#485E68"/>
<path d="M278.999 385.314C278.211 385.314 277.522 385.125 276.931 384.747L260.97 375.875L279.099 365.87L297.226 375.875L281.266 384.747C280.478 385.125 279.689 385.314 278.999 385.314Z" fill="white"/>
<path d="M278.999 366.531L296.143 375.97L280.871 384.37C280.28 384.653 279.69 384.842 278.999 384.842C278.31 384.842 277.718 384.653 277.128 384.37L261.857 375.97L278.999 366.531ZM278.999 365.398L259.886 375.97L276.635 385.219C277.325 385.597 278.211 385.787 278.999 385.787C279.788 385.787 280.675 385.597 281.364 385.219L298.114 375.97L278.999 365.398Z" fill="#485E68"/>
<path d="M295.848 356.714C312.661 356.714 326.291 343.656 326.291 327.548C326.291 311.44 312.661 298.382 295.848 298.382C279.034 298.382 265.404 311.44 265.404 327.548C265.404 343.656 279.034 356.714 295.848 356.714Z" fill="#94E0FF"/>
<path d="M279.099 321.979V385.125" stroke="#485E68" stroke-width="3" stroke-miterlimit="10"/>
<path d="M261.364 341.139C269.145 341.139 275.453 335.097 275.453 327.642C275.453 320.188 269.145 314.144 261.364 314.144C253.583 314.144 247.276 320.188 247.276 327.642C247.276 335.097 253.583 341.139 261.364 341.139Z" fill="#94E0FF"/>
<path d="M260.084 332.645L279.099 360.301" stroke="#485E68" stroke-width="3" stroke-miterlimit="10"/>
<path d="M279.099 327.642L292.399 319.054" stroke="#485E68" stroke-width="3" stroke-miterlimit="10"/>
<path d="M279.197 348.88L292.399 332.645" stroke="#485E68" stroke-width="3" stroke-miterlimit="10"/>
<path d="M401.07 340.95L406.194 338.119" stroke="#485E68" stroke-width="3" stroke-miterlimit="10"/>
<path d="M416.539 332.456L526.787 271.481C528.364 270.631 530.236 270.631 531.812 271.481L578.019 297.061C579.596 297.91 581.468 297.91 583.044 297.061L611.419 281.392" stroke="#485E68" stroke-width="3" stroke-miterlimit="10" stroke-dasharray="12.1 12.1"/>
<path d="M615.755 279.882C618.612 281.486 618.71 284.13 615.755 285.734L599.301 294.89C596.444 296.494 591.715 296.494 588.857 294.89C586.001 293.285 585.902 290.737 588.857 289.131L605.311 279.976C608.168 278.278 612.897 278.278 615.755 279.882Z" fill="#80C1DC"/>
<path d="M498.61 399.189C539.89 422.031 540.088 459.409 499.102 482.346C458.117 505.282 391.218 505.188 350.036 482.346C308.754 459.504 308.557 422.126 349.543 399.189C390.43 376.347 457.328 376.347 498.61 399.189Z" fill="white" stroke="#485E68" stroke-width="3" stroke-miterlimit="10"/>
<path d="M318.902 444.212L318.409 413.914L529.25 412.592L529.645 437.605" fill="white"/>
<path d="M318.902 444.212L318.409 413.914L529.25 412.592L529.645 437.605" stroke="#485E68" stroke-width="3" stroke-miterlimit="10"/>
<path d="M498.256 367.019C479.473 356.526 453.434 349.965 424.596 349.887C395.758 349.809 369.681 356.228 350.836 366.619C331.958 377.029 320.545 391.29 320.499 406.843L498.256 367.019ZM498.256 367.019C517.073 377.532 528.401 391.854 528.355 407.407M498.256 367.019L528.355 407.407M528.355 407.407C528.309 422.961 516.896 437.222 498.018 447.631C479.173 458.023 453.096 464.442 424.258 464.363C395.42 464.285 369.381 457.724 350.598 447.231M528.355 407.407L350.598 447.231M350.598 447.231C331.781 436.719 320.453 422.397 320.499 406.843L350.598 447.231Z" fill="white" stroke="black" stroke-width="2"/>
<path d="M452.501 352.277C453.387 352.654 454.373 352.466 455.357 352.277C459.2 351.711 464.028 352.56 465.604 356.053C465.9 356.619 466.097 357.374 466.688 357.657C467.181 357.94 467.871 357.846 468.56 357.752C471.811 357.185 475.358 357.374 478.216 358.978C482.157 361.15 484.029 365.492 485.605 369.55C488.954 367.096 493.683 366.53 497.723 367.663C501.763 368.795 505.309 371.438 507.969 374.647C509.053 375.969 510.039 377.479 510.137 379.178C510.236 380.877 509.25 382.671 507.576 383.048C510.137 383.709 512.599 384.464 515.161 385.313C518.512 386.447 521.96 387.862 523.93 390.599C525.704 393.054 525.999 396.451 524.62 399.094C523.241 401.831 520.384 403.72 517.329 404.003" fill="white"/>
<path d="M450.137 352.843C451.713 353.41 453.486 352.75 455.062 352.75C456.639 352.75 458.314 352.939 459.791 353.599C461.368 354.26 462.254 355.392 462.944 356.808C463.535 358.129 464.521 358.602 465.9 358.413C469.939 357.846 474.176 357.94 477.328 360.867C479.89 363.226 481.269 366.625 482.55 369.74C482.649 370.023 483.141 370.306 483.437 370.117C488.166 366.813 494.374 367.285 499.201 370.023C501.566 371.344 503.635 373.232 505.211 375.309C506.689 377.291 508.462 381.538 504.915 382.576C504.324 382.765 504.324 383.52 504.915 383.709C507.97 384.464 510.925 385.313 513.881 386.447C516.443 387.39 519.201 388.712 520.877 390.978C524.423 395.979 520.975 402.87 514.768 403.531C513.98 403.625 513.98 404.758 514.768 404.758C521.172 404.097 525.309 397.679 522.748 391.921C521.467 389.183 518.905 387.39 516.147 386.164C512.699 384.653 508.955 383.615 505.31 382.671C505.31 383.048 505.31 383.426 505.31 383.803C508.265 382.954 508.856 379.744 507.872 377.291C506.689 374.458 504.029 371.91 501.467 370.117C496.146 366.341 488.462 365.303 482.846 369.174C483.141 369.268 483.437 369.361 483.732 369.551C482.452 366.436 481.171 363.132 478.709 360.678C476.047 357.94 472.403 356.902 468.56 357.091C467.674 357.091 466.787 357.28 465.9 357.374C464.816 357.563 464.323 357.28 463.93 356.336C463.733 355.959 463.634 355.675 463.437 355.392C462.747 354.165 461.565 353.316 460.284 352.75C458.905 352.183 457.427 351.805 455.95 351.805C454.176 351.711 452.008 352.466 450.333 351.994C449.742 351.522 449.348 352.654 450.137 352.843Z" fill="#485E68"/>
<path d="M406.195 328.208C406.785 332.739 407.967 337.175 409.84 341.328L406.195 328.208Z" fill="white"/>
<path d="M405.603 328.208C406.195 332.739 407.476 337.27 409.249 341.517C409.544 342.177 410.727 341.894 410.432 341.233C408.658 337.081 407.476 332.739 406.786 328.208C406.688 327.453 405.505 327.453 405.603 328.208Z" fill="#485E68"/>
<path d="M438.018 325.942C438.018 330.662 438.018 335.382 437.032 339.913C436.737 341.139 436.441 342.366 436.835 343.594" fill="white"/>
<path d="M437.328 325.943C437.328 329.058 437.328 332.079 437.032 335.193C436.934 336.704 436.639 338.214 436.343 339.818C436.047 341.139 435.751 342.462 436.146 343.783C436.343 344.538 437.525 344.16 437.328 343.5C436.835 342.083 437.427 340.573 437.722 339.158C438.018 337.742 438.116 336.325 438.313 334.91C438.609 331.984 438.609 328.963 438.609 326.038C438.609 325.189 437.328 325.187 437.328 325.943Z" fill="#485E68"/>
<path d="M413.978 362.85C413.978 364.171 413.879 365.587 413.879 366.908C413.879 368.608 413.78 370.306 413.189 371.911C412.697 373.232 411.908 374.46 411.12 375.686C408.264 379.934 405.406 384.275 401.367 387.579" fill="white"/>
<path d="M413.387 362.849C413.289 365.304 413.485 367.852 412.992 370.306C412.599 372.666 411.022 374.648 409.741 376.725C407.179 380.501 404.519 384.181 400.973 387.108C400.382 387.58 401.268 388.429 401.859 387.957C405.604 384.842 408.46 380.972 411.12 377.008C412.401 375.025 413.88 373.043 414.273 370.684C414.766 368.135 414.668 365.492 414.668 362.849C414.569 362.094 413.387 362.094 413.387 362.849Z" fill="#485E68"/>
<path d="M433.19 360.49C433.584 365.681 434.372 370.873 435.653 375.97C436.146 377.857 436.639 379.745 437.623 381.444C440.776 387.296 448.067 390.223 454.964 390.695" fill="white"/>
<path d="M432.5 360.49C432.795 364.548 433.386 368.607 434.174 372.666C434.963 376.347 435.751 380.216 438.017 383.332C441.859 388.523 448.56 390.788 454.864 391.26C455.653 391.354 455.653 390.127 454.864 390.033C448.756 389.561 442.156 387.202 438.706 382.105C436.736 379.178 436.046 375.497 435.357 372.099C434.569 368.229 433.978 364.359 433.781 360.49C433.683 359.735 432.5 359.735 432.5 360.49Z" fill="#485E68"/>
<path d="M496.639 372.382C498.61 373.326 500.088 375.12 500.778 377.196C501.369 379.178 501.171 381.444 500.088 383.332" fill="white"/>
<path d="M496.343 372.854C500.087 374.836 501.566 379.367 499.594 382.954C499.201 383.615 500.284 384.181 500.678 383.52C502.945 379.367 501.368 374.081 497.034 371.816C496.245 371.533 495.654 372.477 496.343 372.854Z" fill="#485E68"/>
<path d="M359.79 401.36C361.563 401.643 368.263 410.421 388.756 406.174C388.756 406.174 397.229 415.99 413.978 407.306" fill="white"/>
<path d="M359.593 401.926C359.986 402.02 360.774 402.586 361.169 402.871C362.253 403.626 363.336 404.286 364.518 404.852C368.361 406.834 372.795 407.684 377.13 407.872C381.071 407.968 385.012 407.495 388.854 406.645C388.657 406.551 388.46 406.551 388.263 406.457C389.937 408.345 392.597 409.666 394.962 410.421C401.465 412.497 408.362 410.704 414.175 407.685C414.864 407.306 414.273 406.268 413.584 406.645C407.967 409.478 401.268 411.271 395.061 409.194C392.894 408.44 390.627 407.306 389.149 405.607C389.051 405.419 388.755 405.419 388.558 405.419C379.396 407.306 369.839 407.117 361.957 401.831C361.366 401.454 360.676 400.793 359.986 400.699C359.198 400.605 358.804 401.737 359.593 401.926Z" fill="#485E68"/>
<path d="M344.026 394.469C344.026 394.469 314.567 381.444 315.356 407.589C315.454 410.987 316.537 414.197 318.508 417.028C322.745 422.975 331.809 432.414 346.095 429.204C346.095 429.204 348.164 450.819 379.888 439.776C379.888 439.776 394.469 457.616 415.16 447.328C415.16 447.328 443.24 472.718 460.382 443.929C460.382 443.929 476.344 461.108 492.993 434.679C493.881 433.263 495.555 432.603 497.23 433.074C505.407 434.962 529.152 438.455 533.191 414.669C533.191 414.669 532.6 393.526 508.363 402.493" fill="white"/>
<path d="M344.321 393.903C342.154 392.96 339.789 392.205 337.523 391.638C333.286 390.599 328.656 390.033 324.42 391.167C319.493 392.488 316.341 396.263 315.256 400.982C314.37 404.853 314.37 409.1 315.651 412.781C316.833 416.179 319.099 419.106 321.661 421.748C324.42 424.675 327.77 427.128 331.612 428.638C336.243 430.527 341.268 430.715 346.193 429.582C345.898 429.393 345.7 429.204 345.405 429.016C345.602 431.47 346.686 434.018 348.164 436.096C351.415 440.814 356.933 443.08 362.746 443.363C368.657 443.646 374.47 442.136 379.987 440.248C379.79 440.154 379.593 440.154 379.396 440.059C381.169 442.231 383.436 444.118 385.8 445.628C390.726 449.027 396.638 451.103 402.746 450.914C407.179 450.82 411.515 449.593 415.456 447.611C415.161 447.611 414.963 447.517 414.668 447.517C417.821 450.348 421.662 452.802 425.604 454.596C432.598 457.9 440.875 459.41 448.165 456.106C453.781 453.652 457.821 448.932 460.777 443.93C460.481 443.93 460.087 444.024 459.791 444.024C463.437 447.894 469.348 450.253 474.767 449.593C480.58 448.838 485.408 444.968 488.954 440.72C490.333 439.021 491.614 437.323 492.797 435.528C493.881 433.83 495.162 432.98 497.329 433.452C498.906 433.83 500.58 434.113 502.157 434.302C510.827 435.434 520.581 434.49 526.985 428.166C528.857 426.279 530.334 424.107 531.419 421.654C532.403 419.483 533.487 416.745 533.586 414.292C533.684 412.592 533.093 410.705 532.502 409.1C531.419 406.079 529.645 403.343 526.886 401.549C522.846 399 517.724 399.095 513.192 400.039C511.418 400.416 509.644 400.982 507.97 401.643C507.279 401.926 507.576 403.059 508.265 402.776C513.192 400.982 519.103 399.472 524.226 401.549C527.378 402.776 529.547 405.324 530.827 408.251C531.615 410.044 532.207 412.12 532.305 414.103C532.403 415.707 531.714 417.406 531.221 418.917C530.334 421.465 529.054 424.013 527.28 426.09C521.565 432.886 512.108 434.302 503.536 433.358C501.861 433.169 500.285 432.886 498.61 432.603C496.344 432.131 493.979 431.754 492.403 433.83C491.023 435.528 490.038 437.417 488.659 439.116C487.575 440.531 486.294 441.853 485.013 443.08C482.945 444.968 480.58 446.667 477.821 447.705C471.713 449.97 465.309 447.8 460.777 443.646C460.678 443.552 460.579 443.458 460.481 443.363C460.186 443.08 459.693 443.175 459.496 443.458C456.836 447.894 453.289 452.142 448.461 454.596C444.914 456.389 440.973 457.144 437.032 456.766C430.333 456.2 424.027 453.18 418.707 449.404C417.525 448.555 416.244 447.705 415.161 446.667C414.963 446.479 414.668 446.479 414.372 446.573C407.869 449.782 400.579 450.631 393.583 448.366C389.149 446.856 385.11 444.307 381.761 441.097C381.071 440.437 380.381 439.776 379.79 439.116C379.692 438.927 379.396 438.927 379.199 438.927C371.612 441.57 362.056 443.93 354.469 440.154C350.725 438.361 348.065 435.058 346.784 431.187C346.588 430.621 346.39 430.055 346.292 429.393C346.193 429.016 346.193 428.921 346.193 428.827C346.193 428.45 345.8 428.166 345.405 428.261C337.227 430.055 329.444 427.6 323.533 422.126C321.169 419.955 319.001 417.5 317.523 414.669C315.454 410.893 315.158 406.457 315.749 402.303C316.439 397.679 319.001 393.715 323.729 392.205C327.671 390.977 332.006 391.45 335.947 392.393C338.41 392.96 340.971 393.715 343.14 394.658C344.421 395.225 345.011 394.281 344.321 393.903Z" fill="#485E68"/>
<path d="M359.79 401.36C361.563 401.643 368.263 410.421 388.756 406.174C388.756 406.174 397.229 415.99 413.978 407.306" fill="white"/>
<path d="M359.593 401.926C359.986 402.02 360.774 402.586 361.169 402.871C362.253 403.626 363.336 404.286 364.518 404.852C368.361 406.834 372.795 407.684 377.13 407.872C381.071 407.968 385.012 407.495 388.854 406.645C388.657 406.551 388.46 406.551 388.263 406.457C389.937 408.345 392.597 409.666 394.962 410.421C401.465 412.497 408.362 410.704 414.175 407.685C414.864 407.306 414.273 406.268 413.584 406.645C407.967 409.478 401.268 411.271 395.061 409.194C392.894 408.44 390.627 407.306 389.149 405.607C389.051 405.419 388.755 405.419 388.558 405.419C379.396 407.306 369.839 407.117 361.957 401.831C361.366 401.454 360.676 400.793 359.986 400.699C359.198 400.605 358.804 401.737 359.593 401.926Z" fill="#485E68"/>
<path d="M434.963 409.572C436.539 409.572 444.717 418.728 461.958 410.327C461.958 410.327 471.91 420.332 484.817 407.496" fill="white"/>
<path d="M434.963 410.233C434.963 410.233 435.062 410.233 435.16 410.327C435.358 410.421 435.555 410.516 435.751 410.704C436.343 410.988 436.835 411.365 437.427 411.648C439.101 412.592 440.973 413.348 442.845 413.82C449.446 415.518 456.343 413.724 462.254 410.893C461.958 410.893 461.762 410.799 461.466 410.799C463.339 412.592 465.999 413.914 468.56 414.386C474.963 415.707 480.876 412.214 485.21 407.968C485.801 407.4 484.915 406.551 484.324 407.117C480.186 411.176 474.57 414.575 468.462 413.158C466.294 412.686 463.93 411.554 462.353 409.949C462.156 409.761 461.86 409.761 461.565 409.855C455.654 412.686 448.756 414.48 442.254 412.403C440.58 411.837 438.904 411.082 437.427 410.233C436.737 409.761 435.85 409.006 434.865 409.006C434.175 409.006 434.175 410.138 434.963 410.233Z" fill="#485E68"/>
<path d="M355.75 386.068C359.297 384.275 363.139 383.237 367.08 383.143C369.248 383.048 371.317 383.331 373.091 384.653C374.372 385.691 375.455 386.918 376.736 387.957C379.1 389.75 382.057 390.977 385.012 390.977C388.066 390.977 390.825 389.372 392.598 387.012C394.569 384.37 395.652 381.16 396.539 378.14C397.622 374.458 398.214 370.683 398.51 366.908C399.101 359.167 398.214 351.428 396.736 343.783C395.948 339.535 395.16 335.098 393.583 331.039C392.401 328.114 389.445 323.96 386.884 320.751C386.489 320.279 385.11 320.845 385.603 321.317C387.869 324.149 390.233 326.98 391.711 330.19C393.288 333.588 393.978 337.363 394.667 341.045C396.243 348.501 397.426 356.147 397.229 363.887C397.031 370.967 395.948 378.517 392.5 384.936C390.923 387.957 388.361 390.41 384.519 390.127C381.071 389.938 378.214 387.957 375.849 385.691C374.667 384.558 373.484 383.426 371.908 382.86C370.233 382.199 368.263 382.293 366.39 382.388C362.351 382.576 358.509 383.615 354.962 385.408C354.273 385.785 355.061 386.446 355.75 386.068Z" fill="#485E68"/>
<path d="M464.028 319.996C458.51 323.866 455.457 330.568 453.092 336.514C450.333 343.404 448.756 350.577 448.067 357.94C447.772 361.432 447.574 364.831 447.772 368.323C447.87 371.155 448.165 374.175 449.249 376.818C450.235 379.273 451.909 381.537 454.373 382.859C457.131 384.37 460.382 384.37 463.535 383.898C467.476 383.331 471.417 381.915 475.456 381.915C477.328 381.915 479.397 382.292 480.678 383.708C481.86 384.936 482.353 386.635 483.732 387.767C484.127 388.05 485.506 387.578 485.013 387.201C483.929 386.351 483.339 385.125 482.55 383.991C481.762 382.859 480.678 382.104 479.397 381.632C476.639 380.688 473.486 381.16 470.629 381.726C467.083 382.387 463.535 383.425 459.989 383.236C456.638 383.047 453.781 381.537 451.909 378.895C448.56 373.892 448.954 367.001 449.249 361.338C449.644 354.259 450.825 347.274 452.993 340.573C454.274 336.703 455.85 332.927 457.722 329.341C459.496 326.037 461.663 322.733 464.914 320.468C465.702 319.902 464.521 319.713 464.028 319.996Z" fill="#485E68"/>
<path d="M397.82 350.107C397.82 350.201 398.017 350.957 398.017 350.957L449.053 350.768L449.446 348.974C449.446 348.974 412.894 342.933 398.608 348.974L397.82 350.107Z" fill="white"/>
<path d="M446.589 271.198C446.589 271.198 436.441 296.965 451.023 322.545C451.023 322.545 469.446 299.514 459.989 271.198H446.589Z" fill="#94E0FF"/>
<path d="M449.84 271.197L452.599 301.496L457.229 271.197H449.84Z" fill="#0135AF"/>
<path d="M394.076 273.368C394.076 273.368 384.717 297.061 398.214 320.469C398.214 320.469 415.16 299.326 406.49 273.368H394.076Z" fill="#94E0FF"/>
<path d="M397.031 273.368L399.593 301.119L403.83 273.368H397.031Z" fill="#0135AF"/>
<path d="M461.663 186.058L461.565 258.643C461.565 260.531 460.284 262.325 457.821 263.646C452.697 266.477 444.52 266.477 439.397 263.646C436.835 262.231 435.555 260.342 435.555 258.549V185.964C435.555 187.851 436.835 189.646 439.397 191.061C444.52 193.892 452.697 193.892 457.821 191.061C460.382 189.74 461.663 187.852 461.663 186.058Z" fill="white"/>
<path d="M461.663 186.059L461.565 258.644C461.565 259.871 460.973 261.098 459.889 262.136V189.551C460.973 188.513 461.663 187.286 461.663 186.059Z" fill="white" stroke="#485E68" stroke-width="3" stroke-miterlimit="10"/>
<path d="M459.889 189.551V262.136C459.298 262.702 458.609 263.174 457.821 263.646C457.033 264.118 455.948 264.495 454.964 264.873V192.288C455.948 192.005 456.934 191.533 457.821 191.061C458.707 190.589 459.298 190.117 459.889 189.551Z" fill="white" stroke="#485E68" stroke-width="3" stroke-miterlimit="10"/>
<path d="M454.964 192.288V264.873C452.697 265.629 450.234 265.818 447.772 265.723V193.137C450.234 193.327 452.697 193.043 454.964 192.288Z" fill="white" stroke="#485E68" stroke-width="3" stroke-miterlimit="10"/>
<path d="M447.772 193.138V265.723C445.505 265.629 443.238 265.251 441.268 264.402V191.817C443.238 192.666 445.505 193.138 447.772 193.138Z" fill="white" stroke="#485E68" stroke-width="3" stroke-miterlimit="10"/>
<path d="M441.269 192.005V264.59C440.578 264.307 439.988 264.024 439.397 263.741C436.835 262.325 435.555 260.437 435.555 258.643V185.964C435.555 187.851 436.835 189.646 439.397 191.061C439.988 191.439 440.578 191.722 441.269 192.005Z" fill="white" stroke="#485E68" stroke-width="3" stroke-miterlimit="10"/>
<path d="M461.663 186.058L461.565 258.643C461.565 260.531 460.284 262.325 457.821 263.646C452.697 266.477 444.52 266.477 439.397 263.646C436.835 262.231 435.555 260.342 435.555 258.549V185.964C435.555 187.851 436.835 189.646 439.397 191.061C444.52 193.892 452.697 193.892 457.821 191.061C460.382 189.74 461.663 187.852 461.663 186.058Z" stroke="#485E68" stroke-width="3" stroke-miterlimit="10"/>
<path d="M457.722 180.962C462.944 183.888 462.944 188.23 457.821 191.156C452.697 193.988 444.52 193.988 439.397 191.156C434.274 188.324 434.274 183.793 439.299 180.962C444.422 178.13 452.697 178.13 457.722 180.962Z" fill="white" stroke="#485E68" stroke-width="3" stroke-miterlimit="10"/>
<path fill-rule="evenodd" clip-rule="evenodd" d="M461.664 186.814C461.369 173.599 455.063 156.892 448.659 156.892C442.255 156.892 435.752 173.599 435.556 186.814C436.738 190.495 442.156 193.233 448.561 193.233C455.162 193.327 460.58 190.495 461.664 186.814Z" fill="white" stroke="#485E68" stroke-width="3" stroke-miterlimit="10"/>
<path d="M416.637 186.058L416.539 258.643C416.539 260.531 415.258 262.325 412.796 263.646C407.673 266.477 399.495 266.477 394.371 263.646C391.81 262.231 390.529 260.342 390.529 258.549V185.964C390.529 187.851 391.81 189.646 394.371 191.061C399.495 193.892 407.673 193.892 412.796 191.061C415.16 189.74 416.637 187.852 416.637 186.058Z" fill="white"/>
<path d="M416.638 186.059L416.54 258.644C416.54 259.871 415.948 261.098 414.864 262.136V189.551C415.85 188.513 416.638 187.286 416.638 186.059Z" fill="white" stroke="#485E68" stroke-width="3" stroke-miterlimit="10"/>
<path d="M414.766 189.551V262.136C414.175 262.702 413.485 263.174 412.696 263.646C411.908 264.118 410.824 264.495 409.839 264.873V192.288C410.824 192.005 411.81 191.533 412.696 191.061C413.584 190.589 414.175 190.117 414.766 189.551Z" fill="white" stroke="#485E68" stroke-width="3" stroke-miterlimit="10"/>
<path d="M409.839 192.288V264.873C407.574 265.629 405.11 265.818 402.647 265.723V193.137C405.11 193.327 407.574 193.043 409.839 192.288Z" fill="white" stroke="#485E68" stroke-width="3" stroke-miterlimit="10"/>
<path d="M402.647 193.138V265.723C400.382 265.629 398.115 265.251 396.145 264.402V191.817C398.017 192.666 400.282 193.138 402.647 193.138Z" fill="white" stroke="#485E68" stroke-width="3" stroke-miterlimit="10"/>
<path d="M396.145 192.005V264.59C395.455 264.307 394.864 264.024 394.274 263.741C391.712 262.325 390.43 260.437 390.43 258.643V185.964C390.43 187.851 391.712 189.646 394.274 191.061C394.864 191.439 395.455 191.722 396.145 192.005Z" fill="white" stroke="#485E68" stroke-width="3" stroke-miterlimit="10"/>
<path d="M416.637 186.058L416.539 258.643C416.539 260.531 415.258 262.325 412.796 263.646C407.673 266.477 399.495 266.477 394.371 263.646C391.81 262.231 390.529 260.342 390.529 258.549V185.964C390.529 187.851 391.81 189.646 394.371 191.061C399.495 193.892 407.673 193.892 412.796 191.061C415.16 189.74 416.637 187.852 416.637 186.058Z" stroke="#485E68" stroke-width="3" stroke-miterlimit="10"/>
<path d="M412.598 180.962C417.82 183.888 417.82 188.23 412.696 191.156C407.574 193.988 399.396 193.988 394.273 191.156C389.149 188.324 389.149 183.793 394.174 180.962C399.298 178.13 407.474 178.13 412.598 180.962Z" fill="white" stroke="#485E68" stroke-width="3" stroke-miterlimit="10"/>
<path fill-rule="evenodd" clip-rule="evenodd" d="M416.639 186.814C416.342 173.599 410.037 156.892 403.632 156.892C397.229 156.892 390.727 173.599 390.529 186.814C391.711 190.495 397.131 193.233 403.534 193.233C410.037 193.327 415.456 190.495 416.639 186.814Z" fill="white" stroke="#485E68" stroke-width="3" stroke-miterlimit="10"/>
<path d="M447.772 183.038L447.574 250.905C447.574 253.83 445.505 256.851 441.366 259.116C433.091 263.647 419.692 263.647 411.415 259.116C407.278 256.757 405.111 253.736 405.111 250.811L405.307 182.944C405.307 185.965 407.376 189.079 411.613 191.251C419.888 195.782 433.288 195.782 441.564 191.251C445.8 189.079 447.772 186.154 447.772 183.038Z" fill="#37404A"/>
<path d="M447.772 183.039L447.574 250.905C447.574 252.887 446.688 254.869 444.815 256.663L445.012 188.796C446.884 187.098 447.772 185.116 447.772 183.039Z" fill="#37404A"/>
<path d="M445.012 188.891L444.815 256.756C443.929 257.607 442.845 258.456 441.466 259.211C440.087 259.966 438.411 260.626 436.835 261.098L437.032 193.233C438.707 192.761 440.283 192.006 441.663 191.344C443.043 190.589 444.126 189.834 445.012 188.891Z" fill="#37404A"/>
<path d="M437.032 193.327L436.835 261.193C433.19 262.325 429.15 262.797 425.111 262.608L425.308 194.743C429.347 194.932 433.386 194.46 437.032 193.327Z" fill="#37404A"/>
<path d="M425.308 194.743L425.111 262.608C421.367 262.42 417.722 261.853 414.471 260.626L414.668 192.76C417.919 193.988 421.663 194.648 425.308 194.743Z" fill="#37404A"/>
<path d="M414.668 192.668L414.47 260.533C413.387 260.155 412.499 259.684 411.415 259.212C407.278 256.851 405.11 253.832 405.11 250.905L405.307 183.04C405.307 186.059 407.376 189.175 411.613 191.345C412.696 191.912 413.682 192.289 414.668 192.668Z" fill="#37404A"/>
<path d="M441.663 174.733C449.939 179.263 450.037 186.72 441.761 191.345C433.485 195.875 420.086 195.875 411.81 191.345C403.534 186.814 403.435 179.357 411.711 174.733C419.888 170.202 433.288 170.202 441.663 174.733Z" fill="#37404A"/>
<path d="M449.84 159.913L449.544 234.197C449.544 237.501 447.279 240.804 442.845 243.259C433.781 248.261 419.2 248.261 410.036 243.259C405.406 240.711 403.14 237.407 403.14 234.103L403.435 159.819C403.435 163.122 405.702 166.426 410.332 168.974C419.495 173.977 434.076 173.977 443.14 168.974C447.574 166.426 449.84 163.216 449.84 159.913Z" fill="white"/>
<path d="M449.84 159.913L449.544 234.197C449.544 237.501 447.279 240.804 442.845 243.259C433.781 248.261 419.2 248.261 410.036 243.259C405.406 240.711 403.14 237.407 403.14 234.103L403.435 159.819C403.435 163.122 405.702 166.426 410.332 168.974C419.495 173.977 434.076 173.977 443.14 168.974C447.574 166.426 449.84 163.216 449.84 159.913Z" stroke="#485E68" stroke-width="3" stroke-miterlimit="10"/>
<path d="M443.043 150.757C452.206 155.76 452.206 163.877 443.143 168.974C434.077 173.977 419.496 173.977 410.334 168.974C401.171 163.971 401.171 155.854 410.235 150.757C419.3 145.66 433.881 145.754 443.043 150.757Z" fill="white" stroke="#485E68" stroke-width="3" stroke-miterlimit="10"/>
<path d="M446.688 136.693L446.589 158.497C446.589 161.329 444.619 164.16 440.776 166.331C432.894 170.673 420.184 170.673 412.303 166.331C408.362 164.16 406.391 161.329 406.391 158.402L406.49 136.598C406.49 139.525 408.46 142.356 412.401 144.528C420.284 148.869 432.993 148.869 440.875 144.528C444.815 142.356 446.688 139.619 446.688 136.693Z" fill="#485E68"/>
<path d="M446.688 136.693L446.589 158.497C446.589 161.329 444.619 164.16 440.776 166.331C432.894 170.673 420.184 170.673 412.303 166.331C408.362 164.16 406.391 161.329 406.391 158.402L406.49 136.598C406.49 139.525 408.46 142.356 412.401 144.528C420.284 148.869 432.993 148.869 440.875 144.528C444.815 142.356 446.688 139.619 446.688 136.693Z" fill="#485E68"/>
<path d="M446.687 136.693L446.589 158.497C446.589 158.874 446.491 159.346 446.392 159.818L446.491 138.014C446.687 137.542 446.687 137.165 446.687 136.693Z" fill="#485E68"/>
<path d="M446.589 138.015L446.491 159.819C445.998 162.178 444.126 164.35 441.071 166.237L441.17 144.433C444.323 142.64 446.096 140.28 446.589 138.015Z" fill="#485E68"/>
<path d="M436.539 146.416L436.441 168.22C432.598 169.447 428.066 169.824 423.83 169.541L423.929 147.737C428.165 148.115 432.598 147.548 436.539 146.416Z" fill="#485E68"/>
<path d="M423.929 147.642L423.831 169.446C419.693 169.163 415.654 168.125 412.501 166.331C408.56 164.16 406.59 161.329 406.59 158.402L406.688 136.598C406.688 139.525 408.658 142.356 412.599 144.528C415.654 146.321 419.693 147.359 423.929 147.642Z" fill="#485E68"/>
<path d="M440.777 128.764C448.658 133.107 448.757 140.186 440.875 144.528C432.993 148.87 420.284 148.87 412.401 144.528C404.52 140.186 404.421 133.107 412.303 128.764C420.185 124.422 432.895 124.422 440.777 128.764Z" fill="#485E68"/>
<path d="M447.475 210.882C446.491 211.827 445.21 212.77 443.731 213.62C434.372 218.811 419.2 218.811 409.741 213.62C408.263 212.77 406.884 211.826 405.899 210.788C404.716 209.655 403.928 208.428 403.435 207.296V214.375V220.51C404.421 222.869 406.588 225.041 409.839 226.928C419.2 232.12 434.47 232.12 443.831 226.928C446.786 225.324 448.658 223.435 449.742 221.359V213.714V207.956C449.151 208.995 448.363 209.938 447.475 210.882Z" fill="#94E0FF"/>
<path d="M461.663 200.406L461.565 272.991C461.565 274.878 460.284 276.672 457.821 277.994C452.697 280.825 444.52 280.825 439.397 277.994C436.835 276.578 435.555 274.69 435.555 272.896V200.311C435.555 202.199 436.835 203.993 439.397 205.409C444.52 208.24 452.697 208.24 457.821 205.409C460.382 204.086 461.663 202.199 461.663 200.406Z" fill="white"/>
<path d="M461.663 200.406L461.565 272.991C461.565 274.878 460.284 276.672 457.821 277.994C452.697 280.825 444.52 280.825 439.397 277.994C436.835 276.578 435.555 274.69 435.555 272.896V200.311C435.555 202.199 436.835 203.993 439.397 205.409C444.52 208.24 452.697 208.24 457.821 205.409C460.382 204.086 461.663 202.199 461.663 200.406Z" stroke="#485E68" stroke-width="3" stroke-miterlimit="10"/>
<path d="M457.722 195.309C462.944 198.235 462.944 202.577 457.821 205.503C452.697 208.335 444.52 208.335 439.397 205.503C434.274 202.672 434.274 198.141 439.299 195.309C444.422 192.477 452.697 192.477 457.722 195.309Z" fill="white" stroke="#485E68" stroke-width="3" stroke-miterlimit="10"/>
<path fill-rule="evenodd" clip-rule="evenodd" d="M461.664 201.255C461.369 188.041 455.063 171.333 448.659 171.333C442.255 171.333 435.752 188.041 435.556 201.255C436.738 204.937 442.156 207.673 448.561 207.673C455.162 207.673 460.58 204.937 461.664 201.255Z" fill="white" stroke="#485E68" stroke-width="3" stroke-miterlimit="10"/>
<path d="M416.638 200.406L416.54 272.991C416.54 274.878 415.259 276.672 412.796 277.994C407.672 280.825 399.494 280.825 394.371 277.994C391.809 276.578 390.528 274.69 390.528 272.896V200.311C390.528 202.199 391.809 203.993 394.371 205.409C399.494 208.24 407.672 208.24 412.796 205.409C415.159 204.086 416.638 202.199 416.638 200.406Z" fill="white"/>
<path d="M416.638 200.406L416.54 272.991C416.54 274.878 415.259 276.672 412.796 277.994C407.672 280.825 399.494 280.825 394.371 277.994C391.809 276.578 390.528 274.69 390.528 272.896V200.311C390.528 202.199 391.809 203.993 394.371 205.409C399.494 208.24 407.672 208.24 412.796 205.409C415.159 204.086 416.638 202.199 416.638 200.406Z" stroke="#485E68" stroke-width="3" stroke-miterlimit="10"/>
<path d="M412.598 195.309C417.82 198.235 417.82 202.577 412.696 205.503C407.574 208.335 399.396 208.335 394.273 205.503C389.149 202.672 389.149 198.141 394.174 195.309C399.298 192.477 407.474 192.477 412.598 195.309Z" fill="white" stroke="#485E68" stroke-width="3" stroke-miterlimit="10"/>
<path fill-rule="evenodd" clip-rule="evenodd" d="M416.639 201.255C416.342 188.041 410.037 171.333 403.632 171.333C397.229 171.333 390.727 188.041 390.529 201.255C391.711 204.937 397.131 207.673 403.534 207.673C410.037 207.673 415.456 204.937 416.639 201.255Z" fill="white" stroke="#485E68" stroke-width="3" stroke-miterlimit="10"/>
<path d="M448.855 76.0024L448.56 147.077C448.56 150.192 446.392 153.307 442.155 155.761C433.584 160.575 419.495 160.575 410.825 155.761C406.49 153.401 404.323 150.192 404.323 146.983L404.618 75.9084C404.618 79.1169 406.786 82.2326 411.12 84.686C419.791 89.4998 433.879 89.4998 442.452 84.686C446.688 82.2326 448.855 79.1169 448.855 76.0024Z" fill="white"/>
<path d="M445.998 82.0425C447.968 80.1541 448.953 78.0777 448.953 75.9062L448.658 146.981C448.658 149.059 447.672 151.135 445.702 153.117" fill="white"/>
<path d="M445.998 82.0425C447.968 80.1541 448.953 78.0777 448.953 75.9062L448.658 146.981C448.658 149.059 447.672 151.135 445.702 153.117" stroke="#485E68" stroke-width="3" stroke-miterlimit="10"/>
<path d="M437.623 86.6673C439.397 86.1012 440.973 85.4401 442.451 84.5909C443.83 83.8358 445.012 82.8916 445.998 82.0425" fill="white"/>
<path d="M437.623 86.6673C439.397 86.1012 440.973 85.4401 442.451 84.5909C443.83 83.8358 445.012 82.8916 445.998 82.0425" stroke="#485E68" stroke-width="3" stroke-miterlimit="10"/>
<path d="M445.801 153.117C444.914 153.967 443.731 154.911 442.254 155.666C440.776 156.421 439.2 157.176 437.427 157.742" fill="white"/>
<path d="M445.801 153.117C444.914 153.967 443.731 154.911 442.254 155.666C440.776 156.421 439.2 157.176 437.427 157.742" stroke="#485E68" stroke-width="3" stroke-miterlimit="10"/>
<path d="M437.328 157.742C433.584 158.97 429.347 159.442 425.013 159.253L437.328 157.742Z" fill="white"/>
<path d="M437.328 157.742C433.584 158.97 429.347 159.442 425.013 159.253" stroke="#485E68" stroke-width="3" stroke-miterlimit="10"/>
<path d="M425.308 88.1769C429.445 88.366 433.879 87.8938 437.623 86.6677L425.308 88.1769Z" fill="white"/>
<path d="M425.308 88.1769C429.445 88.366 433.879 87.8938 437.623 86.6677" stroke="#485E68" stroke-width="3" stroke-miterlimit="10"/>
<path d="M414.175 86.0068C417.524 87.328 421.367 87.9892 425.308 88.1783L414.175 86.0068Z" fill="white"/>
<path d="M414.175 86.0068C417.524 87.328 421.367 87.9892 425.308 88.1783" stroke="#485E68" stroke-width="3" stroke-miterlimit="10"/>
<path d="M425.111 159.253C421.17 159.064 417.328 158.403 413.978 157.082L425.111 159.253Z" fill="white"/>
<path d="M425.111 159.253C421.17 159.064 417.328 158.403 413.978 157.082" stroke="#485E68" stroke-width="3" stroke-miterlimit="10"/>
<path d="M413.977 157.081C412.894 156.704 411.81 156.232 410.924 155.666C406.589 153.305 404.421 150.097 404.421 146.887L404.717 75.8125C404.717 79.0221 406.885 82.1367 411.219 84.59C412.205 85.1572 413.19 85.6293 414.274 86.0063" fill="white"/>
<path d="M413.977 157.081C412.894 156.704 411.81 156.232 410.924 155.666C406.589 153.305 404.421 150.097 404.421 146.887L404.717 75.8125C404.717 79.0221 406.885 82.1367 411.219 84.59C412.205 85.1572 413.19 85.6293 414.274 86.0063" stroke="#485E68" stroke-width="3" stroke-miterlimit="10"/>
<path d="M448.855 76.0024L448.56 147.077C448.56 150.192 446.392 153.307 442.155 155.761C433.584 160.575 419.495 160.575 410.825 155.761C406.49 153.401 404.323 150.192 404.323 146.983L404.618 75.9084C404.618 79.1169 406.786 82.2326 411.12 84.686C419.791 89.4998 433.879 89.4998 442.452 84.686C446.688 82.2326 448.855 79.1169 448.855 76.0024Z" stroke="#485E68" stroke-width="3" stroke-miterlimit="10"/>
<path d="M442.354 67.223C451.024 72.0368 451.024 79.7762 442.453 84.59C433.881 89.4039 419.792 89.4039 411.122 84.59C402.452 79.7762 402.452 72.0368 411.023 67.223C419.595 62.4091 433.684 62.4091 442.354 67.223Z" fill="white" stroke="#485E68" stroke-width="3" stroke-miterlimit="10"/>
<path d="M445.619 38.7719L445.42 77.9621C445.42 79.6898 443.526 81.4183 439.936 82.7138C432.559 85.3676 420.596 85.3676 413.219 82.7138C409.53 81.4183 407.636 79.6284 407.636 77.8999L407.836 38.7102C407.836 40.4383 409.73 42.228 413.418 43.5242C420.895 46.178 432.759 46.178 440.136 43.5242C443.724 42.228 445.519 40.5 445.619 38.7719Z" fill="white"/>
<path d="M442.943 19.745C444.519 18.1404 445.407 16.347 445.407 14.6479L445.21 74.5851C445.21 76.3784 444.421 78.0778 442.747 79.682" fill="white"/>
<path d="M442.842 36.6405C444.619 35.4821 445.62 34.1873 445.62 32.9607L445.397 76.233C445.397 77.5278 444.509 78.7546 442.621 79.9128" stroke="#485E68" stroke-width="3" stroke-miterlimit="10"/>
<path d="M435.948 23.6148C437.427 23.1428 438.806 22.5765 440.087 21.8214C441.269 21.1607 442.254 20.5 443.141 19.6504" fill="white"/>
<path d="M435.948 23.6148C437.427 23.1428 438.806 22.5765 440.087 21.8214C441.269 21.1607 442.254 20.5 443.141 19.6504" stroke="#485E68" stroke-width="3" stroke-miterlimit="10"/>
<path d="M442.747 79.6816C441.959 80.4368 440.973 81.1919 439.692 81.8531C438.411 82.6082 437.13 83.1743 435.555 83.6464" fill="white"/>
<path d="M442.747 79.6816C441.959 80.4368 440.973 81.1919 439.692 81.8531C438.411 82.6082 437.13 83.1743 435.555 83.6464" stroke="#485E68" stroke-width="3" stroke-miterlimit="10"/>
<path d="M425.604 24.9364C429.249 25.1253 432.796 24.6533 435.949 23.615L425.604 24.9364Z" fill="white"/>
<path d="M425.604 24.9364C429.249 25.1253 432.796 24.6533 435.949 23.615" stroke="#485E68" stroke-width="3" stroke-miterlimit="10"/>
<path d="M435.653 83.6472C432.5 84.5903 428.854 85.0624 425.308 84.9684L435.653 83.6472Z" fill="white"/>
<path d="M435.653 83.6472C432.5 84.5903 428.854 85.0624 425.308 84.9684" stroke="#485E68" stroke-width="3" stroke-miterlimit="10"/>
<path d="M416.145 23.1431C419.002 24.2757 422.253 24.8421 425.505 25.0308L416.145 23.1431Z" fill="white"/>
<path d="M416.145 23.1431C419.002 24.2757 422.253 24.8421 425.505 25.0308" stroke="#485E68" stroke-width="3" stroke-miterlimit="10"/>
<path d="M425.406 84.9681C422.155 84.779 418.904 84.213 416.047 83.0808L425.406 84.9681Z" fill="white"/>
<path d="M425.406 84.9681C422.155 84.779 418.904 84.213 416.047 83.0808" stroke="#485E68" stroke-width="3" stroke-miterlimit="10"/>
<path d="M415.947 83.0794C415.061 82.7964 414.076 82.3243 413.387 81.8521C409.741 79.8709 407.869 77.1334 407.869 74.4898L408.067 14.5532C408.067 17.1962 409.938 19.9334 413.584 21.9157C414.371 22.3875 415.259 22.7651 416.145 23.1427" fill="white"/>
<path d="M416.418 82.7874C415.454 82.5816 414.383 82.2384 413.634 81.8951C409.671 80.4545 407.636 78.464 407.636 76.5418L407.851 32.9607C407.851 34.8825 409.886 36.8727 413.849 38.3141C414.704 38.6572 415.669 38.9317 416.632 39.2063" stroke="#485E68" stroke-width="3" stroke-miterlimit="10"/>
<path d="M445.619 29.2028L445.42 76.5575C445.42 78.6452 443.526 80.7338 439.936 82.2992C432.559 85.5058 420.596 85.5058 413.219 82.2992C409.53 80.7338 407.636 78.571 407.636 76.4824L407.836 29.1282C407.836 31.2163 409.73 33.3789 413.418 34.945C420.895 38.1517 432.759 38.1517 440.136 34.945C443.724 33.3789 445.519 31.2908 445.619 29.2028Z" stroke="#485E68" stroke-width="3" stroke-miterlimit="10"/>
<path d="M439.988 21.916C432.698 25.9748 420.874 25.9748 413.583 21.916H439.988Z" fill="white"/>
<path d="M439.988 21.916C432.698 25.9748 420.874 25.9748 413.583 21.916" stroke="#485E68" stroke-width="3" stroke-miterlimit="10"/>
<path fill-rule="evenodd" clip-rule="evenodd" d="M445.619 32.8698C445.32 17.5081 435.824 2.22264 426.528 2.29862C417.231 2.3747 407.936 17.8884 407.636 33.0218C409.335 37.2806 417.032 40.6266 426.528 40.6266C436.023 40.6266 443.92 37.1284 445.619 32.8698Z" fill="white" stroke="#485E68" stroke-width="3" stroke-miterlimit="10"/>
<path d="M432.105 99.504C434.065 99.504 435.653 97.9824 435.653 96.1065C435.653 94.2294 434.065 92.7078 432.105 92.7078C430.147 92.7078 428.559 94.2294 428.559 96.1065C428.559 97.9824 430.147 99.504 432.105 99.504Z" fill="#37404A"/>
<path d="M432.105 110.17C434.065 110.17 435.653 108.648 435.653 106.772C435.653 104.895 434.065 103.374 432.105 103.374C430.147 103.374 428.559 104.895 428.559 106.772C428.559 108.648 430.147 110.17 432.105 110.17Z" fill="#37404A"/>
<path fill-rule="evenodd" clip-rule="evenodd" d="M435.554 117.532C435.554 119.42 433.979 120.931 432.007 120.931C430.038 120.931 428.461 119.42 428.461 117.532C428.461 115.645 430.038 114.134 432.007 114.134C433.979 114.228 435.554 115.739 435.554 117.532Z" fill="#37404A"/>
<path d="M446.119 31.5234C446.119 31.5234 503.707 66.6219 457.414 109.016C419.594 143.679 374.975 133.035 359.808 128.031C355.277 126.484 351.238 123.936 348.382 120.389C341.881 112.383 336.563 99.3734 399.697 100.283" stroke="#485E68" stroke-width="3" stroke-miterlimit="10"/>
<path d="M461.612 49.2505C461.612 49.2505 480.312 70.2784 468.938 90.4534" stroke="#485E68" stroke-width="3" stroke-miterlimit="10"/>
<path d="M346.981 100.258C346.981 100.258 312.4 121.779 348.361 130.18" stroke="#485E68" stroke-width="3" stroke-miterlimit="10"/>
<path d="M227.275 465.262L269.837 488.859" stroke="#485E68" stroke-width="3" stroke-miterlimit="10"/>
<path d="M186.092 493.012L227.077 515.665C227.373 515.76 227.669 515.76 227.866 515.665L290.132 481.213C290.625 480.93 290.625 480.174 290.132 479.891L250.329 457.9C249.344 457.332 248.26 457.332 247.276 457.9L186.19 491.691C185.5 491.974 185.5 492.729 186.092 493.012Z" fill="white" stroke="#485E68" stroke-width="3" stroke-miterlimit="10"/>
<path d="M232.497 458.937C233.187 459.314 233.187 459.881 232.497 460.259C231.807 460.636 230.723 460.636 230.034 460.259L221.561 455.634C220.871 455.256 220.871 454.69 221.561 454.313C222.25 453.935 223.334 453.935 224.024 454.313L232.497 458.937Z" fill="#80C1DC"/>
<path d="M215.551 488.292L217.225 496.504C217.225 498.487 220.28 500.185 224.122 500.185C227.965 500.185 231.018 498.581 231.018 496.504L232.694 488.292H215.551Z" fill="white" stroke="#485E68" stroke-width="3" stroke-miterlimit="10"/>
<path d="M234.171 481.496H229.442C227.965 481.025 226.093 480.646 224.221 480.646C222.053 480.646 219.985 481.025 218.309 481.685L214.172 481.78L214.467 485.839C214.467 488.67 218.802 491.029 224.221 491.029C229.639 491.029 233.974 488.67 233.974 485.839L234.171 481.496Z" fill="white" stroke="#485E68" stroke-width="3" stroke-miterlimit="10"/>
<path d="M224.221 480.647C228.26 480.647 231.709 481.969 233.186 483.763C233.679 483.101 233.974 482.44 233.974 481.685C233.974 478.854 229.639 476.494 224.221 476.494C218.802 476.494 214.467 478.854 214.467 481.685C214.467 482.44 214.762 483.101 215.255 483.763C216.634 481.969 220.181 480.647 224.221 480.647Z" fill="white" stroke="#485E68" stroke-width="3" stroke-miterlimit="10"/>
<path d="M224.221 476.495C218.705 476.495 214.173 478.856 214.173 481.876C214.173 484.802 218.705 487.256 224.221 487.256C229.738 487.256 234.27 484.897 234.27 481.876C234.172 478.856 229.738 476.495 224.221 476.495ZM224.221 485.935C219.886 485.935 216.34 484.047 216.34 481.781C216.34 479.516 219.886 477.628 224.221 477.628C228.557 477.628 232.103 479.516 232.103 481.781C232.005 484.142 228.557 485.935 224.221 485.935Z" fill="white" stroke="#485E68" stroke-width="3" stroke-miterlimit="10"/>
<path d="M224.221 487.349C218.506 487.349 213.974 484.801 213.974 481.78C213.974 478.664 218.604 476.211 224.221 476.211C229.935 476.211 234.467 478.759 234.467 481.78C234.467 484.895 229.837 487.349 224.221 487.349ZM224.221 476.683C218.802 476.683 214.467 478.948 214.467 481.78C214.467 484.612 218.802 486.877 224.221 486.877C229.64 486.877 233.974 484.612 233.974 481.78C233.974 478.948 229.541 476.683 224.221 476.683ZM224.221 477.909C220.083 477.909 216.635 479.703 216.635 481.874C216.635 484.045 220.083 485.839 224.221 485.839C228.359 485.839 231.807 484.045 231.807 481.874C231.807 479.703 228.359 477.909 224.221 477.909Z" fill="white" stroke="#485E68" stroke-width="3" stroke-miterlimit="10"/>
<path d="M224.221 483.856C223.334 483.856 222.645 483.195 222.645 482.346V469.981C222.645 469.132 223.334 468.47 224.221 468.47C225.107 468.47 225.798 469.132 225.798 469.981V482.346C225.798 483.195 225.009 483.856 224.221 483.856Z" fill="#E5E5E5"/>
<path d="M214.37 443.269C214.468 443.174 214.567 443.08 214.665 443.08C215.847 442.891 221.464 442.514 225.896 447.988C230.43 453.652 227.572 457.994 227.177 458.654C227.177 458.749 227.079 458.749 226.981 458.749C226.193 459.032 220.971 460.449 216.537 454.879C212.103 449.404 213.975 444.214 214.37 443.269Z" fill="#0066FF"/>
<path d="M224.417 459.409C222.25 459.409 219.097 458.653 216.24 455.067C211.708 449.498 213.679 444.118 214.072 443.174C214.172 442.986 214.368 442.797 214.565 442.797C215.649 442.703 221.56 442.231 225.994 447.8C230.526 453.556 227.866 457.993 227.275 458.842C227.177 458.938 227.077 459.032 226.979 459.032C226.684 459.125 225.698 459.409 224.417 459.409ZM215.846 443.174C215.353 443.174 214.96 443.174 214.663 443.269C214.663 443.269 214.565 443.269 214.565 443.363C214.172 444.307 212.3 449.404 216.634 454.784C220.969 460.259 225.896 458.938 226.782 458.559C227.373 457.71 229.935 453.556 225.6 448.083C222.25 443.835 217.915 443.174 215.846 443.174Z" fill="#0066FF"/>
<path d="M226.684 458.938C223.433 451.387 218.309 447.328 218.309 447.233L218.604 446.856C218.704 446.856 223.827 451.104 227.177 458.749L226.684 458.938Z" fill="#485E68"/>
<path d="M221.364 451.764C220.083 451.764 217.816 451.387 215.156 449.688L215.451 449.311C219.392 451.953 222.447 451.198 222.447 451.198L222.545 451.67C222.545 451.576 222.053 451.764 221.364 451.764Z" fill="#485E68"/>
<path d="M225.994 456.483L225.6 456.2C227.57 453.557 225.796 450.725 225.796 450.725L226.289 450.442C226.191 450.442 228.161 453.652 225.994 456.483Z" fill="#485E68"/>
<path d="M234.468 444.402C234.566 444.402 234.763 444.402 234.763 444.59C235.452 445.534 238.409 450.159 235.354 456.389C232.201 462.807 226.881 462.524 225.995 462.43C225.896 462.43 225.896 462.43 225.798 462.335C225.207 461.769 221.463 458.087 224.516 451.669C227.669 445.251 233.384 444.496 234.468 444.402Z" fill="#94E0FF"/>
<path d="M226.881 462.618C226.486 462.618 226.289 462.618 226.093 462.618C225.994 462.618 225.796 462.524 225.698 462.429C224.91 461.769 221.264 457.994 224.417 451.48C227.57 445.062 233.285 444.307 234.467 444.213C234.664 444.213 234.861 444.307 235.057 444.496C235.748 445.345 238.802 450.159 235.65 456.577C232.989 461.957 228.753 462.618 226.881 462.618ZM234.566 444.59C233.482 444.684 227.965 445.439 225.009 451.575C221.954 457.805 225.501 461.297 226.191 461.958C227.176 462.052 232.299 462.335 235.255 456.105C238.21 450.065 235.255 445.534 234.566 444.59Z" fill="#94E0FF"/>
<path d="M226.093 462.429L225.698 462.146C231.118 455.917 232.595 449.687 232.595 449.593L233.088 449.687C233.088 449.687 231.609 456.011 226.093 462.429Z" fill="#485E68"/>
<path d="M230.525 455.256C230.427 455.162 228.26 452.802 228.949 447.988L229.442 448.083C228.851 452.708 230.92 454.879 230.92 454.973L230.525 455.256Z" fill="#485E68"/>
<path d="M228.358 460.353C228.063 460.353 227.865 460.353 227.57 460.259L227.669 459.787C231.018 460.259 232.792 457.427 232.89 457.332L233.383 457.616C233.285 457.71 231.511 460.353 228.358 460.353Z" fill="#485E68"/>
<path d="M204.419 454.691C204.319 454.785 204.221 454.88 204.221 454.974C204.221 456.201 204.615 462.147 211.413 466.018C218.507 469.981 223.039 466.395 223.827 465.829C223.926 465.734 223.926 465.734 223.926 465.64C224.123 464.791 225.009 459.127 218.014 455.257C211.216 451.387 205.6 454.125 204.419 454.691Z" fill="#94E0FF"/>
<path d="M217.915 468.188C216.043 468.188 213.875 467.715 211.412 466.3C204.417 462.429 204.023 456.2 204.023 455.067C204.023 454.879 204.122 454.596 204.318 454.501C205.402 453.935 211.117 451.103 218.211 455.067C225.403 459.032 224.516 464.695 224.319 465.733C224.319 465.828 224.221 466.017 224.122 466.111C223.433 466.488 221.264 468.188 217.915 468.188ZM210.624 453.463C207.471 453.463 205.206 454.596 204.615 454.879L204.516 454.973C204.516 456.105 204.811 462.052 211.61 465.828C218.408 469.604 222.841 466.3 223.629 465.639C223.629 465.639 223.629 465.639 223.629 465.545C223.826 464.507 224.615 459.221 217.816 455.445C215.255 453.935 212.693 453.463 210.624 453.463Z" fill="#94E0FF"/>
<path d="M223.925 465.922C214.763 463.563 209.245 458.749 209.245 458.655L209.638 458.277C209.738 458.372 215.058 463.09 224.122 465.356L223.925 465.922Z" fill="#485E68"/>
<path d="M215.156 462.146L214.663 462.052C214.663 462.052 215.058 458.749 211.511 454.973L211.905 454.595C215.551 458.559 215.156 461.957 215.156 462.146Z" fill="#485E68"/>
<path d="M244.419 454.313C244.419 454.219 244.321 454.125 244.222 454.03C243.238 453.653 238.016 451.953 232.498 455.918C226.882 460.071 228.36 464.791 228.557 465.546C228.557 465.64 228.656 465.64 228.656 465.734C229.345 466.206 233.779 468.754 239.395 464.602C244.912 460.637 244.517 455.352 244.419 454.313Z" fill="#0066FF"/>
<path d="M232.99 467.244C230.625 467.244 228.949 466.3 228.556 466.017C228.458 465.922 228.359 465.828 228.359 465.734C228.063 464.79 226.585 460.07 232.398 455.823C238.015 451.67 243.335 453.463 244.319 453.841C244.516 453.935 244.616 454.124 244.714 454.312C244.812 455.352 245.305 460.731 239.689 464.884C237.127 466.677 234.862 467.244 232.99 467.244ZM240.182 453.558C238.113 453.558 235.453 454.124 232.694 456.107C227.275 460.07 228.556 464.601 228.851 465.45C229.64 466.017 233.876 468.377 239.294 464.318C244.714 460.353 244.319 455.256 244.123 454.218V454.124C243.63 454.124 242.152 453.558 240.182 453.558Z" fill="#0066FF"/>
<path d="M228.949 465.923L228.556 465.64C233.581 459.316 239.492 456.673 239.492 456.673L239.689 457.145C239.689 457.145 233.876 459.694 228.949 465.923Z" fill="#485E68"/>
<path d="M237.915 460.825C235.846 460.825 234.664 460.165 234.566 460.165L234.862 459.693C234.862 459.693 237.522 461.108 241.856 459.598L242.054 460.07C240.477 460.636 239.098 460.825 237.915 460.825Z" fill="#485E68"/>
<path d="M230.23 463.845C228.949 460.636 231.609 458.182 231.609 458.182L232.004 458.559C231.906 458.653 229.639 460.825 230.723 463.751L230.23 463.845Z" fill="#485E68"/>
<path d="M210.131 464.507C210.033 464.507 209.935 464.601 209.836 464.695C209.442 465.639 207.767 470.642 212.102 475.833C216.536 481.119 221.462 479.608 222.25 479.325C222.348 479.325 222.348 479.231 222.447 479.231C222.94 478.57 225.501 474.322 220.969 469.036C216.634 463.845 211.215 464.318 210.131 464.507Z" fill="#0066FF" stroke="#485E68" stroke-width="3" stroke-miterlimit="10"/>
<path d="M219.688 479.987C217.62 479.987 214.663 479.232 211.905 475.928C207.471 470.642 209.147 465.545 209.54 464.507C209.638 464.318 209.836 464.129 210.033 464.129C211.117 463.941 216.732 463.469 221.166 468.755C225.698 474.135 223.136 478.477 222.645 479.326C222.545 479.421 222.447 479.515 222.348 479.515C222.053 479.704 221.068 479.987 219.688 479.987ZM210.131 464.696C210.131 464.79 210.131 464.79 210.131 464.696C209.738 465.639 208.063 470.548 212.3 475.645C216.634 480.742 221.264 479.421 222.152 479.043C222.743 478.287 225.107 474.229 220.773 469.038C216.536 464.035 211.215 464.601 210.131 464.696Z" fill="#0066FF" stroke="#485E68" stroke-width="3" stroke-miterlimit="10"/>
<path d="M222.348 479.421C215.649 474.701 212.791 469.132 212.693 469.132L213.186 468.943C213.186 469.038 216.043 474.418 222.645 479.043L222.348 479.421Z" fill="#485E68"/>
<path d="M216.437 473.756L215.944 473.473C215.944 473.473 217.324 470.925 215.649 466.772L216.142 466.583C218.013 470.925 216.536 473.567 216.437 473.756Z" fill="#485E68"/>
<path d="M218.506 478.193C216.142 478.193 214.467 476.683 214.467 476.588L214.861 476.211C214.96 476.305 217.325 478.477 220.28 477.343L220.476 477.815C219.787 478.098 219.097 478.193 218.506 478.193Z" fill="#485E68"/>
<path d="M239.985 463.845C239.985 463.751 239.788 463.657 239.689 463.562C238.507 463.373 232.596 462.618 227.571 468.093C222.447 473.756 225.107 478.476 225.6 479.231C225.6 479.325 225.699 479.325 225.797 479.42C226.586 479.797 231.906 481.59 237.029 475.927C242.053 470.452 240.379 464.978 239.985 463.845Z" fill="#94E0FF"/>
<path d="M228.949 480.27C227.373 480.27 226.191 479.892 225.698 479.703C225.6 479.609 225.501 479.609 225.403 479.42C224.812 478.477 222.25 473.663 227.472 467.999C232.497 462.43 238.605 463.185 239.787 463.374C239.984 463.374 240.182 463.563 240.28 463.751C240.675 464.79 242.349 470.547 237.324 476.116C234.27 479.42 231.216 480.27 228.949 480.27ZM237.817 463.751C235.452 463.751 231.413 464.412 227.866 468.377C222.94 473.851 225.403 478.381 225.896 479.232C226.881 479.703 231.906 481.308 236.832 475.833C241.758 470.453 240.083 464.978 239.689 463.94C239.689 463.94 239.689 463.846 239.591 463.846C239.394 463.846 238.703 463.751 237.817 463.751Z" fill="#94E0FF"/>
<path d="M226.093 479.515L225.6 479.326C229.541 471.491 235.255 467.432 235.354 467.432L235.649 467.811C235.55 467.811 229.935 471.869 226.093 479.515Z" fill="#485E68"/>
<path d="M232.694 472.34C231.609 472.34 230.92 472.152 230.821 472.152L231.018 471.68C231.018 471.68 234.171 472.624 238.506 470.076L238.803 470.547C236.24 471.963 234.073 472.34 232.694 472.34Z" fill="#485E68"/>
<path d="M226.979 477.06C224.91 473.945 227.177 470.736 227.177 470.736L227.57 471.019C227.57 471.019 225.501 473.945 227.373 476.871L226.979 477.06Z" fill="#485E68"/>
<path d="M226.587 455.635C226.488 455.541 226.39 455.541 226.192 455.541C225.109 456.013 219.788 458.373 218.803 465.452C217.817 472.72 222.646 475.269 223.434 475.646C223.532 475.646 223.532 475.646 223.63 475.646C224.518 475.457 229.838 474.231 230.922 467.056C231.907 459.977 227.473 456.296 226.587 455.635Z" fill="#0066FF" stroke="#485E68" stroke-width="3" stroke-miterlimit="10"/>
<path d="M223.629 475.927C223.531 475.927 223.433 475.927 223.333 475.833C222.348 475.361 217.52 472.718 218.604 465.356C219.59 458.183 225.107 455.633 226.191 455.256C226.388 455.162 226.684 455.162 226.782 455.35C227.669 456.011 232.299 459.787 231.216 467.054C230.132 474.416 224.812 475.739 223.629 475.927C223.629 475.927 223.728 475.927 223.629 475.927ZM226.388 455.822C226.388 455.822 226.289 455.822 226.388 455.822C225.305 456.2 220.083 458.654 219.097 465.545C218.111 472.529 222.645 474.984 223.531 475.456C224.614 475.267 229.639 474.039 230.625 467.054C231.708 460.07 227.275 456.483 226.388 455.822Z" fill="#0066FF"/>
<path d="M223.629 475.927C223.531 475.927 223.433 475.927 223.333 475.833C222.348 475.361 217.52 472.718 218.604 465.356C219.59 458.183 225.107 455.633 226.191 455.256C226.388 455.162 226.684 455.162 226.782 455.35C227.669 456.011 232.299 459.787 231.216 467.054C230.132 474.416 224.812 475.739 223.629 475.927ZM223.629 475.927C223.728 475.927 223.629 475.927 223.629 475.927V475.927ZM226.388 455.822C226.388 455.822 226.289 455.822 226.388 455.822C225.305 456.2 220.083 458.654 219.097 465.545C218.111 472.529 222.645 474.984 223.531 475.456C224.614 475.267 229.639 474.039 230.625 467.054C231.708 460.07 227.275 456.483 226.388 455.822Z" stroke="#485E68" stroke-width="3" stroke-miterlimit="10"/>
<path d="M223.433 475.738C222.25 467.243 224.713 461.014 224.713 460.919L225.205 461.108C225.205 461.202 222.841 467.338 223.924 475.643L223.433 475.738Z" fill="#485E68"/>
<path d="M223.728 467.149L223.629 466.677C223.629 466.677 226.782 465.828 228.949 461.486L229.442 461.675C227.077 466.205 223.826 467.055 223.728 467.149Z" fill="#485E68"/>
<path d="M223.334 473.191C219.885 471.68 219.885 467.905 219.885 467.811H220.378C220.378 467.811 220.378 471.302 223.433 472.718L223.334 473.191Z" fill="#485E68"/>
<path d="M116.14 474.888C116.14 476.305 115.056 476.871 113.776 476.211C112.495 475.456 111.411 473.756 111.411 472.34C111.411 470.925 112.495 470.359 113.776 471.019C115.056 471.68 116.14 473.473 116.14 474.888Z" fill="#198CBF"/>
<path d="M115.647 478.664C115.155 478.664 114.662 478.57 114.17 478.287C112.692 477.437 111.411 475.456 111.411 473.757C111.411 472.812 111.805 472.057 112.495 471.68C113.184 471.302 114.071 471.397 114.958 471.868C116.436 472.718 117.716 474.701 117.716 476.399C117.716 477.343 117.322 478.098 116.633 478.476C116.337 478.57 116.042 478.664 115.647 478.664ZM113.578 472.907C113.48 472.907 113.381 472.907 113.381 473.001C113.184 473.095 113.086 473.378 113.086 473.851C113.086 474.984 113.973 476.494 115.056 477.06C115.45 477.249 115.746 477.343 115.943 477.249C116.14 477.154 116.239 476.871 116.239 476.399C116.239 475.267 115.352 473.757 114.268 473.191C113.973 473.001 113.776 472.907 113.578 472.907Z" fill="#454646"/>
<path d="M64.3164 446.856L119.588 416.273V355.109L64.3164 385.692V446.856Z" fill="white" stroke="#485E68" stroke-width="3" stroke-miterlimit="10"/>
<path d="M59.8828 391.449L116.731 360.017V422.88L59.8828 454.312V391.449ZM115.155 362.66L61.4593 392.393V451.858L115.155 422.125V362.66Z" fill="#454646"/>
<path d="M94.0863 437.174L92.7005 437.893L112.192 472.33L113.577 471.61L94.0863 437.174Z" fill="#454646"/>
<path d="M100.77 393.054C100.77 400.038 93.972 409.383 87.0754 419.011C80.2772 417.028 73.3806 415.235 73.3806 408.251C73.3806 402.776 76.5333 396.547 80.8684 394.186C85.1049 391.827 87.0754 394.375 87.0754 394.375C87.0754 394.375 89.0458 389.655 93.2823 387.296C97.6174 384.936 100.77 387.579 100.77 393.054Z" fill="#94E0FF"/>
<path d="M106.879 395.13C106.879 402.114 100.08 411.459 93.1839 421.086C86.3857 419.104 79.4891 417.311 79.4891 410.327C79.4891 404.851 82.6418 398.621 86.9768 396.262C91.2133 393.903 93.1839 396.451 93.1839 396.451C93.1839 396.451 95.1543 391.731 99.3908 389.372C103.726 387.012 106.879 389.75 106.879 395.13Z" stroke="#485E68" stroke-width="3" stroke-miterlimit="10"/>
<path d="M605.114 281.581C605.114 283.657 606.591 286.206 608.463 287.244C610.335 288.282 611.813 287.433 611.813 285.356C611.813 283.28 610.335 280.73 608.463 279.692C606.591 278.749 605.114 279.598 605.114 281.581Z" fill="#198CBF"/>
<path d="M608.858 289.51C608.267 289.51 607.577 289.321 606.887 288.943C604.72 287.716 603.045 284.979 603.045 282.525C603.045 281.204 603.538 280.165 604.522 279.693C605.508 279.221 606.691 279.221 607.872 279.882C610.04 281.108 611.715 283.846 611.715 286.3C611.715 287.622 611.223 288.66 610.237 289.132C609.842 289.415 609.351 289.51 608.858 289.51ZM605.803 281.108C605.607 281.108 605.508 281.108 605.41 281.204C605.114 281.393 604.917 281.864 604.917 282.525C604.917 284.318 606.296 286.49 607.872 287.339C608.463 287.622 608.956 287.716 609.351 287.528C609.646 287.339 609.842 286.867 609.842 286.206C609.842 284.412 608.463 282.242 606.887 281.393C606.493 281.204 606.099 281.108 605.803 281.108Z" fill="#454646"/>
<path d="M648.661 257.322L697.332 284.223V230.421L648.661 203.521V257.322Z" fill="white" stroke="#485E68" stroke-width="3" stroke-miterlimit="10"/>
<path d="M694.377 287.81L643.932 259.871V203.993L694.377 231.932V287.81ZM645.804 258.833L692.505 284.696V232.97L645.804 207.107V258.833Z" fill="#454646"/>
<path d="M644.134 258.684L609.16 281.922L610.228 283.395L645.201 260.157L644.134 258.684Z" fill="#454646"/>
<path d="M146.78 628.271C146.78 630.348 148.259 632.896 150.131 633.934C152.003 634.973 153.48 634.124 153.48 632.047C153.48 629.971 152.003 627.422 150.131 626.384C148.259 625.44 146.78 626.289 146.78 628.271Z" fill="#198CBF"/>
<path d="M150.524 636.201C149.933 636.201 149.244 636.012 148.554 635.634C146.387 634.408 144.711 631.67 144.711 629.215C144.711 627.894 145.204 626.856 146.19 626.384C147.175 625.912 148.357 625.912 149.54 626.573C151.707 627.8 153.382 630.537 153.382 632.991C153.382 634.312 152.889 635.351 151.904 635.823C151.51 636.106 151.017 636.201 150.524 636.201ZM147.471 627.8C147.273 627.8 147.175 627.8 147.076 627.894C146.78 628.083 146.583 628.555 146.583 629.215C146.583 631.009 147.963 633.18 149.54 634.029C150.131 634.312 150.623 634.408 151.017 634.218C151.312 634.029 151.51 633.557 151.51 632.897C151.51 631.104 150.131 628.932 148.554 628.083C148.16 627.894 147.766 627.8 147.471 627.8Z" fill="#454646"/>
<path d="M190.329 604.014L238.999 630.915V577.112L190.329 550.211V604.014Z" fill="white" stroke="#485E68" stroke-width="3" stroke-miterlimit="10"/>
<path d="M236.043 634.502L185.6 606.561V550.683L236.043 578.622V634.502ZM187.471 605.523L234.171 631.386V579.661L187.471 553.798V605.523Z" fill="#454646"/>
<path d="M185.894 605.306L150.92 628.545L151.987 630.019L186.961 606.78L185.894 605.306Z" fill="#454646"/>
<path d="M226.684 584.381L227.669 586.08L226.684 586.646V585.513V584.381Z" fill="#94E0FF"/>
<path d="M204.516 600.804V601.654V602.503L203.53 601.087L204.516 600.804Z" fill="#94E0FF"/>
<path d="M215.354 579.473C222.448 583.343 228.063 592.875 228.063 600.616C228.063 608.355 222.349 611.471 215.255 607.6C208.161 603.73 202.546 594.198 202.546 586.457C202.546 578.718 208.26 575.602 215.354 579.473Z" fill="#94E0FF"/>
<path d="M199.786 601.182L200.181 601.937L199.984 602.032L199.491 602.22L199.984 602.787L200.181 603.164L199.688 603.542L198.407 601.56L199.786 601.182Z" fill="#485E68"/>
<path d="M199.984 602.031L206.487 605.712L211.61 608.639V609.299V609.394L199.984 602.787L199.491 602.219L199.984 602.031Z" fill="#485E68"/>
<path d="M214.27 582.304C219.787 587.024 223.826 594.952 223.826 601.559C223.826 609.205 218.408 612.415 211.61 609.205V608.544L206.487 605.618C201.265 600.804 197.521 593.347 197.619 586.929C197.619 579.094 203.432 575.791 210.526 579.566V580.039L214.27 582.304ZM210.624 607.978C217.521 611.753 223.038 608.733 223.038 601.181C223.038 593.631 217.521 584.474 210.624 580.605C203.727 576.829 198.21 579.849 198.112 587.401C198.21 594.952 203.827 604.202 210.624 607.978Z" fill="#485E68"/>
<path d="M222.349 585.042L223.629 587.118L222.349 587.873L221.857 587.023L222.25 586.74L222.645 586.552L222.25 585.985L221.857 585.325L222.349 585.042Z" fill="#485E68"/>
<path d="M210.428 579.473L222.25 585.985L222.645 586.552L222.25 586.74L214.27 582.304L210.428 580.228V579.756V579.473Z" fill="#485E68"/>
<path d="M335.946 391.355C335.946 391.355 333.385 377.574 349.741 376.725C349.741 376.725 346.981 355.109 373.484 361.905C373.484 361.905 375.849 350.201 397.426 355.393" stroke="#485E68" stroke-width="3" stroke-miterlimit="10"/>
<path d="M633.389 438.731L602.173 421.628V387.919H664.509V421.629L633.389 438.731Z" fill="white" stroke="black" stroke-width="2"/>
<path d="M664.622 387.674V421.654L633.193 439.021L601.862 421.748V387.768H664.622V387.674ZM666.297 386.069H600.286V422.692L633.39 441.004L666.494 422.692L666.297 386.069Z" fill="#485E68"/>
<path d="M633.39 402.304C632.011 402.304 630.829 402.02 629.844 401.36L602.158 385.974L633.587 368.607L665.017 385.974L637.331 401.265C635.952 401.926 634.573 402.304 633.39 402.304Z" fill="white"/>
<mask id="path-219-inside-1" fill="white">
<path d="M633.39 369.74L663.045 386.069L636.642 400.605C635.656 401.077 634.572 401.454 633.39 401.454C632.208 401.454 631.124 401.171 630.139 400.605L603.734 386.069L633.39 369.74ZM633.39 367.757L600.286 386.069L629.252 402.116C630.434 402.776 632.01 403.059 633.39 403.059C634.77 403.059 636.247 402.776 637.528 402.116L666.494 386.069L633.39 367.757Z"/>
</mask>
<path d="M633.39 369.74L663.045 386.069L636.642 400.605C635.656 401.077 634.572 401.454 633.39 401.454C632.208 401.454 631.124 401.171 630.139 400.605L603.734 386.069L633.39 369.74ZM633.39 367.757L600.286 386.069L629.252 402.116C630.434 402.776 632.01 403.059 633.39 403.059C634.77 403.059 636.247 402.776 637.528 402.116L666.494 386.069L633.39 367.757Z" fill="#485E68"/>
<path d="M633.39 369.74L634.837 367.112L633.39 366.315L631.943 367.112L633.39 369.74ZM663.045 386.069L664.492 388.697L669.265 386.069L664.492 383.441L663.045 386.069ZM636.642 400.605L637.938 403.311L638.014 403.274L638.089 403.233L636.642 400.605ZM630.139 400.605L631.633 398.004L631.609 397.99L631.585 397.977L630.139 400.605ZM603.734 386.069L602.287 383.441L597.514 386.069L602.287 388.697L603.734 386.069ZM633.39 367.757L634.842 365.132L633.39 364.329L631.937 365.132L633.39 367.757ZM600.286 386.069L598.833 383.443L594.091 386.067L598.832 388.693L600.286 386.069ZM629.252 402.116L630.715 399.496L630.706 399.491L629.252 402.116ZM637.528 402.116L638.902 404.782L638.942 404.762L638.982 404.74L637.528 402.116ZM666.494 386.069L667.947 388.693L672.688 386.067L667.946 383.443L666.494 386.069ZM631.943 372.368L661.598 388.697L664.492 383.441L634.837 367.112L631.943 372.368ZM661.598 383.441L635.195 397.977L638.089 403.233L664.492 388.697L661.598 383.441ZM635.346 397.9C634.549 398.281 633.934 398.454 633.39 398.454V404.454C635.211 404.454 636.763 403.874 637.938 403.311L635.346 397.9ZM633.39 398.454C632.71 398.454 632.145 398.298 631.633 398.004L628.644 403.207C630.103 404.045 631.705 404.454 633.39 404.454V398.454ZM631.585 397.977L605.181 383.441L602.287 388.697L628.692 403.233L631.585 397.977ZM605.181 388.697L634.837 372.368L631.943 367.112L602.287 383.441L605.181 388.697ZM631.937 365.132L598.833 383.443L601.738 388.694L634.842 370.382L631.937 365.132ZM598.832 388.693L627.799 404.74L630.706 399.491L601.739 383.444L598.832 388.693ZM627.789 404.735C629.561 405.725 631.692 406.059 633.39 406.059V400.059C632.329 400.059 631.307 399.827 630.715 399.496L627.789 404.735ZM633.39 406.059C635.149 406.059 637.116 405.703 638.902 404.782L636.154 399.449C635.378 399.849 634.391 400.059 633.39 400.059V406.059ZM638.982 404.74L667.947 388.693L665.04 383.444L636.074 399.491L638.982 404.74ZM667.946 383.443L634.842 365.132L631.937 370.382L665.041 388.694L667.946 383.443Z" fill="black" mask="url(#path-219-inside-1)"/>
<path d="M630.73 380.311C631.42 380.688 632.011 381.16 632.306 381.822C633.292 383.615 631.518 385.597 628.365 386.163C626.198 386.54 623.833 386.163 622.356 385.314C621.666 384.936 621.075 384.37 620.779 383.804C619.794 382.011 621.567 380.028 624.72 379.556C626.888 379.084 629.153 379.461 630.73 380.311Z" fill="#94E0FF"/>
<path d="M645.706 387.957C646.396 388.334 646.987 388.806 647.282 389.467C648.268 391.26 646.494 393.243 643.341 393.809C641.174 394.186 638.809 393.809 637.331 392.959C636.642 392.581 636.05 392.109 635.754 391.449C634.77 389.656 636.542 387.674 639.695 387.106C641.863 386.729 644.227 387.106 645.706 387.957Z" fill="#94E0FF"/>
<path d="M259.492 478.098C260.281 478.475 260.281 479.136 259.492 479.608C258.802 479.985 257.521 480.081 256.832 479.608L248.26 474.984C247.472 474.606 247.472 473.85 248.26 473.473C248.95 473.095 250.231 473.001 250.92 473.473L259.492 478.098Z" fill="#94E0FF"/>
<path d="M279.985 480.081C280.871 480.553 280.871 481.308 279.985 481.779C279.197 482.251 277.817 482.251 276.931 481.779L256.142 470.547C255.256 470.075 255.256 469.319 256.142 468.847C256.93 468.376 258.309 468.376 259.197 468.847L279.985 480.081Z" fill="#94E0FF"/>
</svg>
