<svg width="124" height="124" viewBox="0 0 124 124" fill="none" xmlns="http://www.w3.org/2000/svg">
<circle cx="22.5" cy="22.5" r="22.5" fill="#94E0FF"/>
<path d="M50.375 87.8333L46.5 103.333L41.3333 108.5H82.6667L77.5 103.333L73.625 87.8333H50.375ZM15.5 67.1667H108.5H15.5ZM25.8333 87.8333H98.1667C100.907 87.8333 103.536 86.7446 105.473 84.8068C107.411 82.8689 108.5 80.2406 108.5 77.5V25.8333C108.5 23.0928 107.411 20.4644 105.473 18.5266C103.536 16.5887 100.907 15.5 98.1667 15.5H25.8333C23.0928 15.5 20.4644 16.5887 18.5266 18.5266C16.5887 20.4644 15.5 23.0928 15.5 25.8333V77.5C15.5 80.2406 16.5887 82.8689 18.5266 84.8068C20.4644 86.7446 23.0928 87.8333 25.8333 87.8333Z" stroke="#5F727B" stroke-width="4" stroke-linecap="round" stroke-linejoin="round"/>
</svg>
