<svg width="128" height="128" viewBox="0 0 128 128" fill="none" xmlns="http://www.w3.org/2000/svg">
<g clip-path="url(#clip0)">
<path d="M66.6916 127.905C65.2189 127.905 64.0249 126.711 64.0249 125.238V114.572C64.0249 113.099 65.2189 111.905 66.6916 111.905C68.1644 111.905 69.3584 113.099 69.3584 114.572V125.238C69.3584 126.711 68.1644 127.905 66.6916 127.905Z" fill="#5F727B"/>
<path d="M88.0248 127.905H45.3584C43.8857 127.905 42.6917 126.711 42.6917 125.238C42.6917 123.766 43.8857 122.572 45.3584 122.572H88.0248C89.4976 122.572 90.6916 123.766 90.6916 125.238C90.6916 126.711 89.4978 127.905 88.0248 127.905Z" fill="#5F727B"/>
<path d="M98.5625 32.3709L98.8727 33.8636L100.394 33.9599C114.782 34.871 125.988 46.7994 126 61.2153C126.013 76.3109 113.785 88.5587 98.6897 88.5715H24.0248H24.0229C12.761 88.5825 3.30948 80.0867 2.124 68.8873C0.845031 56.8048 9.60328 45.973 21.6861 44.694L23.6285 44.4884L23.4689 42.5418C23.3934 41.6203 23.3585 40.7536 23.3583 39.91C23.4492 21.9765 36.0664 6.54746 53.6255 2.89814C74.1732 -1.37234 94.2923 11.8231 98.5625 32.3709Z" fill="#94E0FF" stroke="#5F727B" stroke-width="4"/>
<path d="M18.0252 66.5719V66.5718C18.025 60.3125 23.0992 55.2384 29.3584 55.2384H104.025C110.284 55.2384 115.358 60.3125 115.358 66.5716V103.905C115.358 110.164 110.284 115.238 104.025 115.238H29.3584C23.0993 115.238 18.0252 110.164 18.0252 103.905V66.5719Z" fill="#4CAF50" stroke="#5F727B" stroke-width="4"/>
<path d="M29.3584 58.5719H104.025C108.443 58.5719 112.025 62.1536 112.025 66.5719V95.9051H21.3585V66.5719C21.3585 62.1536 24.9402 58.5719 29.3584 58.5719Z" fill="#FAFAFA"/>
<path d="M78.4 60.8001C76.4158 60.7965 74.8043 62.4021 74.8007 64.3864C74.799 65.3216 75.1621 66.2207 75.8128 66.8925L69.2356 80.0445C69.0915 80.0206 68.946 80.0058 68.8 80.0001C68.3353 80.0011 67.8751 80.0924 67.4452 80.269L62.3392 74.527C62.6373 74 62.7959 73.4056 62.8 72.8001C62.8 70.8119 61.1883 69.2001 59.2 69.2001C57.2118 69.2001 55.6 70.8119 55.6 72.8001C55.6036 73.6595 55.9172 74.4887 56.4832 75.1354L50.2432 86.0649C50.0312 86.0241 49.8159 86.0024 49.6 86.0001C47.6118 86.0001 46 87.6118 46 89.6001C46 91.5883 47.6118 93.2001 49.6 93.2001C51.5882 93.2001 53.2 91.5883 53.2 89.6001C53.1965 88.7407 52.8828 87.9115 52.3168 87.2648L58.5568 76.3353C59.2267 76.4676 59.9208 76.3966 60.55 76.1313L65.6561 81.8733C65.3597 82.4007 65.2027 82.995 65.2001 83.6001C65.1941 85.5883 66.801 87.2049 68.7892 87.2109C70.7774 87.2169 72.394 85.61 72.4 83.6218C72.4028 82.6838 72.0395 81.7818 71.3872 81.1077L77.9644 67.9557C78.1086 67.9796 78.254 67.9944 78.4 68.0001C80.3882 68.0001 82 66.3883 82 64.4001C82 62.4118 80.3882 60.8001 78.4 60.8001ZM49.6 90.8001C48.9372 90.8001 48.4 90.2628 48.4 89.6001C48.4 88.9373 48.9372 88.4 49.6 88.4C50.2628 88.4 50.8 88.9373 50.8 89.6001C50.8 90.2628 50.2628 90.8001 49.6 90.8001ZM59.2 74C58.5372 74 58 73.4628 58 72.8C58 72.1372 58.5372 71.6 59.2 71.6C59.8627 71.6 60.4 72.1372 60.4 72.8C60.4 73.4628 59.8627 74 59.2 74ZM68.8 84.8C68.1373 84.8 67.6 84.2628 67.6 83.6C67.6 82.9372 68.1373 82.4 68.8 82.4C69.4628 82.4 70 82.9372 70 83.6C70 84.2628 69.4627 84.8 68.8 84.8ZM78.4 65.6001C77.7372 65.6001 77.2 65.0628 77.2 64.4001C77.2 63.7373 77.7372 63.2 78.4 63.2C79.0628 63.2 79.6 63.7373 79.6 64.4001C79.6 65.0628 79.0628 65.6001 78.4 65.6001Z" fill="#5F727B"/>
</g>
<defs>
<clipPath id="clip0">
<rect width="128" height="128" fill="white"/>
</clipPath>
</defs>
</svg>
