<svg width="70" height="70" viewBox="0 0 70 70" fill="none" xmlns="http://www.w3.org/2000/svg">
<g clip-path="url(#clip0)">
<path d="M63.1083 29.698L63.891 28.7906C66.1428 26.1797 65.8515 22.2381 63.2405 19.9861L63.1083 29.698ZM63.1083 29.698L64.1412 30.3056M63.1083 29.698L64.1412 30.3056M64.1412 30.3056C67.5008 32.2819 69.3801 36.0521 68.9355 39.9247C68.3144 45.3314 63.4275 49.2111 58.021 48.5896L56.9944 48.4715L56.9101 49.5014C56.8324 50.4507 56.5735 51.3763 56.1471 52.2272C54.3085 55.8959 49.8438 57.3795 46.1751 55.541L44.9835 54.9437L44.7434 56.2549C44.096 59.7916 41.0151 62.3615 37.4202 62.3638H16.6927V57.1209H21.7281H22.7274L22.7281 56.1216C22.7286 55.474 22.8302 54.8306 23.0292 54.2136L23.0292 54.2135C24.087 50.9319 27.6048 49.1293 30.8864 50.1871L31.4993 50.3847L31.9328 49.9085C32.7351 49.027 33.7367 48.3496 34.8534 47.9337L36.165 47.4452L35.2778 46.3627C34.9979 46.0211 34.7489 45.6549 34.5336 45.2687C32.5311 41.6742 33.8217 37.1376 37.4157 35.135L38.6256 34.4609L37.6051 33.5246C36.7988 32.7848 36.1401 31.8992 35.6638 30.914M64.1412 30.3056L52.4378 25.8656M52.4378 25.8656L51.2386 23.3847C49.1596 19.0836 43.9876 17.2826 39.6863 19.3617C35.3856 21.4407 33.5846 26.6127 35.6638 30.914M52.4378 25.8656L53.1089 23.1931M52.4378 25.8656L53.1089 23.1931M35.6638 30.914L34.7634 31.3492L35.6638 30.914ZM53.1089 23.1931C53.3459 22.2491 53.8002 21.374 54.436 20.6364M53.1089 23.1931L54.436 20.6364M54.436 20.6364C56.6873 18.0257 60.6294 17.7346 63.2405 19.986L54.436 20.6364Z" fill="#94E0FF" stroke="#6B6B6B" stroke-width="2"/>
<path d="M0 54.9139H13.2783V64.5708H0V54.9139Z" fill="#6B6B6B"/>
<path d="M12.0713 52.4994H16.8997V66.9852H12.0713V52.4994Z" fill="#6B6B6B"/>
</g>
<defs>
<clipPath id="clip0">
<rect width="70" height="70" fill="white"/>
</clipPath>
</defs>
</svg>
