<svg width="70" height="70" viewBox="0 0 70 70" fill="none" xmlns="http://www.w3.org/2000/svg">
<g clip-path="url(#clip0)">
<path d="M63.1083 29.698L63.8909 28.7906C66.1427 26.1797 65.8515 22.2381 63.2405 19.9861L63.1083 29.698ZM63.1083 29.698L64.1412 30.3056M63.1083 29.698L64.1412 30.3056M64.1412 30.3056C67.5008 32.2819 69.3801 36.0521 68.9355 39.9247C68.3144 45.3314 63.4275 49.2111 58.021 48.5896L56.9944 48.4715L56.9101 49.5014C56.8324 50.4507 56.5735 51.3762 56.1471 52.2272M64.1412 30.3056L52.4378 25.8656M52.4378 25.8656L51.2386 23.3847C49.1596 19.0836 43.9877 17.2826 39.6863 19.3617C35.3856 21.4407 33.5846 26.6127 35.6637 30.914C36.1401 31.8992 36.7988 32.7849 37.605 33.5246L38.6256 34.4609L37.4157 35.135C33.8217 37.1376 32.5311 41.6742 34.5336 45.2687C34.7489 45.6549 34.9979 46.0211 35.2778 46.3627L36.165 47.4452L34.8534 47.9337C33.7367 48.3496 32.7351 49.027 31.9328 49.9085L31.4993 50.3847L30.8864 50.1871C27.6048 49.1293 24.087 50.9319 23.0292 54.2135L23.0292 54.2136C22.8302 54.8306 22.7286 55.474 22.7281 56.1217L22.7274 57.1209H21.7281H16.6927V62.3638H37.4202C41.0151 62.3615 44.096 59.7916 44.7434 56.2549L44.9834 54.9437L46.1751 55.541C49.8438 57.3795 54.3085 55.8959 56.1471 52.2272M52.4378 25.8656L53.1089 23.1931M52.4378 25.8656L53.1089 23.1931M56.1471 52.2272L57.0411 52.6752L56.1471 52.2272ZM53.1089 23.1931C53.3459 22.2491 53.8002 21.374 54.436 20.6364M53.1089 23.1931L54.436 20.6364M54.436 20.6364C56.6872 18.0257 60.6294 17.7346 63.2404 19.986L54.436 20.6364Z" fill="#94E0FF" stroke="#5F727B" stroke-width="2"/>
<path d="M0 54.9139H13.2783V64.5708H0V54.9139Z" fill="#5F727B"/>
<path d="M12.0713 52.4994H16.8997V66.9852H12.0713V52.4994Z" fill="#5F727B"/>
</g>
<defs>
<clipPath id="clip0">
<rect width="70" height="70" fill="white"/>
</clipPath>
</defs>
</svg>
