<svg width="235" height="62" viewBox="0 0 235 62" fill="none" xmlns="http://www.w3.org/2000/svg">
<g clip-path="url(#clip0)">
<path fill-rule="evenodd" clip-rule="evenodd" d="M0.134014 30.1145C0.134014 33.6574 2.49313 35.4288 4.26247 38.9716C6.62158 41.924 11.3398 48.4193 14.2887 49.6002C16.058 50.7812 22.5456 45.4669 24.3149 44.2859C34.3412 36.6097 34.931 36.0193 24.3149 23.6193C22.5456 21.2574 20.1865 18.305 16.6478 23.0288C15.4683 24.8002 15.4683 24.8002 14.8785 26.5716H14.2887C14.2887 27.1621 14.2887 27.1621 14.2887 27.1621C16.058 29.524 20.1865 33.6574 21.3661 36.6097C20.7763 37.2002 19.0069 39.5621 17.8274 39.5621C17.2376 39.5621 15.4683 37.7907 14.8785 37.2002C13.1091 35.4288 7.80114 28.3431 7.80114 27.1621C7.80114 24.2097 18.4172 14.7621 19.0069 14.7621C20.7763 14.7621 24.3149 18.305 25.4945 19.4859C26.0843 20.6669 26.6741 20.6669 27.8536 21.2574L31.3923 25.3907C32.5718 26.5716 36.1105 29.524 37.2901 30.705C38.4696 31.2954 39.0594 31.8859 40.239 31.8859C44.3674 34.2478 47.9061 31.8859 50.855 29.524C52.0346 28.3431 54.3937 25.9812 54.9834 25.9812C54.9834 24.2097 54.3937 24.2097 54.3937 23.0288C51.4448 23.0288 48.4959 28.3431 45.547 27.1621C43.7776 25.9812 42.5981 24.8002 42.0083 23.6193C38.4696 18.8954 34.3412 14.1716 30.2127 11.2193C22.5456 5.3145 21.9558 5.3145 13.1091 14.1716C11.3398 16.5335 11.9296 15.3526 8.9807 18.305C8.39092 18.8954 7.80114 19.4859 7.21136 20.0764C5.44202 21.8478 0.134014 27.1621 0.134014 30.1145Z" fill="#5F727B"/>
<path fill-rule="evenodd" clip-rule="evenodd" d="M92.1395 40.7429C92.1395 43.6952 78.5746 45.4667 76.2155 46.0571C70.9075 46.6476 71.4973 46.6476 73.8564 52.5524C75.0359 55.5048 75.6257 56.6857 78.5746 56.6857C82.7031 56.6857 102.756 53.1429 101.576 46.6476C101.576 44.2857 98.0373 40.1524 96.268 37.7905C95.6782 37.2 95.6782 36.6095 95.0884 36.0191C94.4987 35.4286 93.9089 34.8381 93.9089 34.2476C92.7293 32.4762 91.5498 31.2952 90.96 30.1143C86.8315 24.2095 90.96 22.4381 96.8578 18.8952L105.704 14.1714C109.243 12.4 113.372 10.6286 113.372 7.67619C113.372 5.31429 110.423 0 109.243 0C108.064 0 103.345 2.3619 102.166 2.95238C96.8578 5.31429 88.6009 10.0381 85.0622 14.1714C80.9337 18.8952 81.5235 23.619 84.4724 28.9333C85.0622 30.7048 92.1395 40.1524 92.1395 40.7429Z" fill="#5F727B"/>
<path fill-rule="evenodd" clip-rule="evenodd" d="M182.965 28.9335C182.965 42.5144 189.453 53.143 203.608 53.143C214.814 53.143 221.891 50.1906 229.558 44.2858C231.917 42.5144 237.225 38.9715 233.686 36.6096C232.507 36.6096 228.378 40.743 224.25 43.1049C217.762 46.0573 214.224 46.6477 207.736 46.6477C195.351 46.6477 191.222 36.6096 192.992 25.9811C193.581 19.4858 197.12 12.9906 192.992 8.85727C191.812 8.26679 190.043 7.08584 188.273 6.49536C184.735 11.8096 182.965 23.0287 182.965 28.9335Z" fill="#5F727B"/>
<path fill-rule="evenodd" clip-rule="evenodd" d="M111.012 34.2477C110.423 32.4763 111.012 28.3429 111.012 25.3905C111.012 22.4382 103.345 19.4858 101.576 21.8477C101.576 22.4382 101.576 23.6191 100.986 24.2096C100.396 28.3429 100.396 34.2477 102.756 37.7905C103.345 38.9715 106.294 41.3334 109.243 41.3334C111.012 41.3334 113.961 38.9715 115.731 37.7905C116.32 39.562 117.5 41.9239 119.269 42.5144C120.449 43.1048 121.628 43.6953 122.808 43.6953C126.936 44.2858 125.167 40.1524 125.167 34.8382L124.577 23.6191C124.577 22.4382 123.988 21.2572 123.398 20.6667C121.628 18.3048 119.859 17.7144 116.91 17.7144C115.141 17.7144 115.731 20.0763 115.141 21.8477C114.551 25.981 114.551 31.8858 111.012 34.2477Z" fill="#5F727B"/>
<path fill-rule="evenodd" clip-rule="evenodd" d="M142.861 25.3905C142.861 30.7048 144.04 32.4762 148.169 34.8381C149.938 36.0191 150.528 36.0191 150.528 38.381C150.528 40.7429 146.989 43.6953 145.22 44.8762L139.912 48.4191C136.963 50.1905 138.732 52.5524 144.04 52.5524C148.169 52.5524 151.117 50.781 154.656 47.2381C157.015 44.8762 159.964 42.5143 159.964 38.381C159.964 36.0191 158.195 34.2476 156.425 33.6572C155.836 33.0667 154.656 33.0667 153.477 32.4762C150.528 31.2953 152.297 27.1619 154.066 25.3905C155.246 23.6191 156.425 23.6191 156.425 21.2572C156.425 19.4857 154.656 15.9429 152.887 15.9429C148.758 15.9429 142.861 21.8476 142.861 25.3905Z" fill="#5F727B"/>
<path fill-rule="evenodd" clip-rule="evenodd" d="M128.706 15.3525C128.706 24.8002 127.526 34.2478 135.193 40.1525C136.963 41.3335 138.732 42.5144 141.681 42.5144C142.271 42.5144 142.86 41.3335 142.86 41.3335C142.86 38.3811 138.142 36.0192 138.142 25.3906C138.142 22.4382 138.732 20.0763 138.732 17.7144C138.732 15.3525 139.322 12.9906 139.322 10.0383C139.322 7.67635 131.065 0.590635 129.296 8.8573C128.706 10.6287 128.706 12.9906 128.706 15.3525Z" fill="#5F727B"/>
<path fill-rule="evenodd" clip-rule="evenodd" d="M170.58 29.5237C170.58 27.7523 172.349 24.7999 173.529 24.7999C174.119 24.7999 174.709 25.3904 174.709 25.3904C174.709 26.5713 174.119 27.1618 172.939 27.7523C172.349 28.3428 171.17 28.9332 170.58 29.5237ZM172.939 44.8761C175.298 44.8761 174.709 44.8761 175.298 44.2856V42.5142C172.939 41.9237 169.401 38.9713 169.401 37.1999C169.401 36.019 171.76 35.4285 172.349 34.838C174.119 33.6571 181.786 28.9332 181.786 26.5713C181.786 18.3047 171.76 15.9428 164.682 22.438C164.093 23.619 162.913 24.7999 162.323 26.5713C161.733 28.3428 161.144 28.9332 161.144 31.8856C160.554 39.5618 168.221 44.8761 172.939 44.8761Z" fill="#5F727B"/>
<path fill-rule="evenodd" clip-rule="evenodd" d="M18.4171 55.5051C18.4171 56.0955 20.7763 59.6384 21.9558 60.2289C22.5456 61.4098 23.1354 62.0003 23.7252 62.0003H24.3149C24.9047 61.4098 26.0843 60.2289 28.4434 58.4574L36.7003 51.3717C40.239 47.2384 41.4185 47.8289 38.4696 43.1051C35.5207 38.9717 36.1105 38.9717 28.4434 44.8765C27.8536 46.0574 27.2638 46.0574 26.0843 47.2384L21.9558 50.7812C20.7763 51.3717 18.4171 53.1431 18.4171 55.5051Z" fill="#5F727B"/>
<path fill-rule="evenodd" clip-rule="evenodd" d="M47.9061 18.3048C50.2652 18.3048 54.3937 13.581 53.2141 11.8095C53.2141 11.8095 48.4959 5.90479 46.7266 5.90479C44.9572 5.90479 42.0083 8.85717 41.4185 10.0381C40.8288 10.6286 40.8288 11.2191 40.8288 12.4C42.0083 14.1715 45.547 18.3048 47.9061 18.3048Z" fill="#5F727B"/>
</g>
<defs>
<clipPath id="clip0">
<rect width="235" height="62" fill="white"/>
</clipPath>
</defs>
</svg>
