<svg width="70" height="70" viewBox="0 0 70 70" fill="none" xmlns="http://www.w3.org/2000/svg">
<g clip-path="url(#clip0)">
<path d="M68.9746 28.465C68.9746 35.6837 63.1217 41.5353 55.9029 41.5353H1.02539V28.465H42.8326C42.8326 21.2462 48.6842 15.3947 55.9029 15.3947C59.5123 15.3947 62.7799 16.8575 65.1465 19.2228C67.5117 21.588 68.9746 24.8556 68.9746 28.465V28.465Z" fill="#94E0FF"/>
<path d="M55.9025 15.3936C51.5057 17.4977 48.4691 23.2645 48.4691 28.4652C48.4691 30.2699 49.2006 31.9037 50.3832 33.0863C50.9041 33.6072 51.5139 34.0406 52.1865 34.3633C51.3334 34.7721 50.3777 35.0004 49.3674 35.0004C47.5627 35.0004 45.9289 34.2689 44.7463 33.0863C43.5637 31.9037 42.8322 30.2699 42.8322 28.4652C42.8324 21.2465 48.6838 15.3936 55.9025 15.3936V15.3936Z" fill="#5F727B"/>
<path d="M39.3545 15.3948C39.3545 22.6135 33.5016 28.4651 26.2828 28.4651H1.02539V15.3948H13.2125C13.2125 8.17602 19.0641 2.32446 26.2828 2.32446C29.8922 2.32446 33.1598 3.78735 35.5264 6.15259C37.8916 8.51782 39.3545 11.7854 39.3545 15.3948Z" fill="#94E0FF"/>
<path d="M26.2824 2.32251C21.8855 4.42661 18.849 10.1934 18.849 15.3942C18.849 17.1989 19.5805 18.8327 20.7631 20.0153C21.284 20.5362 21.8937 20.9696 22.5664 21.2922C21.7133 21.701 20.7576 21.9293 19.7473 21.9293C17.9426 21.9293 16.3088 21.1979 15.1262 20.0153C13.9435 18.8327 13.2121 17.1989 13.2121 15.3942C13.2121 8.17544 19.0637 2.32251 26.2824 2.32251V2.32251Z" fill="#5F727B"/>
<path d="M57.7392 54.6062C57.7392 47.3875 51.8863 41.5359 44.6675 41.5359H1.02539V54.6062H31.5972C31.5972 61.825 37.4488 67.6765 44.6675 67.6765C48.2769 67.6765 51.5445 66.2136 53.9111 63.8484C56.2763 61.4832 57.7392 58.2156 57.7392 54.6062Z" fill="#94E0FF"/>
<path d="M44.6672 67.6777C40.2704 65.5735 37.2338 59.8067 37.2338 54.606C37.2338 52.8013 37.9653 51.1675 39.1479 49.9849C39.6688 49.464 40.2786 49.0306 40.9512 48.7079C40.0981 48.2991 39.1424 48.0708 38.1321 48.0708C36.3274 48.0708 34.6936 48.8022 33.511 49.9849C32.3284 51.1675 31.5969 52.8013 31.5969 54.606C31.5969 61.8247 37.4484 67.6777 44.6672 67.6777V67.6777Z" fill="#5F727B"/>
<path d="M70 28.4649C70 20.6923 63.6765 14.3688 55.9039 14.3688C48.4762 14.3688 42.3724 20.1438 41.8454 27.4395H33.5981C37.6607 24.9631 40.3789 20.4901 40.3789 15.3941C40.3789 7.62715 34.0644 1.30747 26.2996 1.29831C26.294 1.29817 26.2886 1.29749 26.2828 1.29749C21.7278 1.29749 17.4301 3.51739 14.787 7.23586C14.459 7.69743 14.5671 8.33754 15.0287 8.66567C15.2089 8.79377 15.4164 8.8553 15.6219 8.8553C15.9428 8.8553 16.2586 8.70532 16.4586 8.42395C18.716 5.24838 22.3843 3.35155 26.2732 3.3484C26.2765 3.3484 26.2797 3.34895 26.2829 3.34895C32.9247 3.34895 38.3283 8.75249 38.3283 15.3943C38.3283 22.0361 32.9249 27.4396 26.2829 27.4396H7.11867C6.55225 27.4396 6.09328 27.8987 6.09328 28.465C6.09328 29.0313 6.55225 29.4904 7.11867 29.4904H41.8793C42.3814 33.1759 45.5474 36.0258 49.3685 36.0258C53.5374 36.0258 56.9293 32.6341 56.9293 28.465C56.9293 27.8987 56.4703 27.4396 55.9039 27.4396C55.3375 27.4396 54.8785 27.8987 54.8785 28.465C54.8785 31.5032 52.4068 33.975 49.3685 33.975C46.3303 33.975 43.8586 31.5033 43.8586 28.465C43.8586 21.8232 49.262 16.4197 55.9039 16.4197C62.5458 16.4197 67.9492 21.8231 67.9492 28.4649C67.9492 35.1067 62.5458 40.5102 55.9039 40.5102L1.02539 40.5098C0.458965 40.5098 0 40.9689 0 41.5352C0 42.1015 0.458965 42.5606 1.02539 42.5606L44.695 42.5608C51.3246 42.5752 56.7137 47.9733 56.7137 54.6067C56.7137 57.1724 55.9184 59.6201 54.4138 61.6852C54.0803 62.1429 54.181 62.7843 54.6387 63.1177C54.8209 63.2505 55.0323 63.3145 55.2418 63.3145C55.5583 63.3145 55.8707 63.1683 56.0712 62.8928C57.8333 60.4747 58.7645 57.6093 58.7645 54.6067C58.7645 49.5105 56.0463 45.0374 51.984 42.5608H55.9039C63.6765 42.5608 70 36.2375 70 28.4649V28.4649Z" fill="#5F727B"/>
<path d="M51.7484 64.3518C49.6845 65.8556 47.2378 66.6508 44.6724 66.6516C44.6711 66.6516 44.6698 66.6515 44.6686 66.6515C38.0268 66.6515 32.6231 61.2479 32.6231 54.6061C32.6231 51.5679 35.0949 49.0961 38.1332 49.0961C41.1715 49.0961 43.6432 51.5678 43.6432 54.6061C43.6432 55.1724 44.1022 55.6315 44.6686 55.6315C45.235 55.6315 45.694 55.1724 45.694 54.6061C45.694 50.4371 42.3021 47.0453 38.1332 47.0453C34.3122 47.0453 31.146 49.8952 30.6439 53.5807H9.47897C8.91255 53.5807 8.45358 54.0398 8.45358 54.6061C8.45358 55.1724 8.91255 55.6315 9.47897 55.6315H30.6099C31.1369 62.9249 37.237 68.6985 44.6618 68.7021C44.6641 68.7021 44.6664 68.7025 44.6687 68.7025C47.6724 68.7025 50.5382 67.7712 52.9562 66.0094C53.414 65.676 53.5146 65.0346 53.1811 64.5769C52.8475 64.119 52.206 64.0185 51.7484 64.3518V64.3518Z" fill="#5F727B"/>
<path d="M1.02539 16.4196H12.2572C12.477 18.0502 13.218 19.5573 14.4014 20.7407C15.8294 22.1686 17.7282 22.9552 19.7477 22.9552C23.9165 22.9552 27.3082 19.5636 27.3082 15.3946C27.3082 14.8283 26.8492 14.3692 26.2828 14.3692C25.7164 14.3692 25.2574 14.8283 25.2574 15.3946C25.2574 18.4327 22.7858 20.9044 19.7477 20.9044C18.2757 20.9044 16.8921 20.3313 15.8516 19.2907C14.8109 18.25 14.2378 16.8664 14.2378 15.3946C14.2378 14.1702 14.4208 12.9629 14.7818 11.8064C14.9505 11.2659 14.649 10.6908 14.1086 10.5221C13.568 10.3533 12.9929 10.6549 12.8241 11.1953C12.5025 12.2252 12.3024 13.2887 12.2244 14.3688H1.02539C0.458965 14.3688 0 14.8279 0 15.3942C0 15.9605 0.458965 16.4196 1.02539 16.4196V16.4196Z" fill="#5F727B"/>
</g>
<defs>
<clipPath id="clip0">
<rect width="70" height="70" fill="white"/>
</clipPath>
</defs>
</svg>
