<svg width="212" height="71" viewBox="0 0 212 71" fill="none" xmlns="http://www.w3.org/2000/svg">
<g clip-path="url(#clip0)">
<path fill-rule="evenodd" clip-rule="evenodd" d="M22.9973 50.8512H22.2637V50.6067H21.9376V50.3621H21.4485V50.1176H21.2039V49.7915H20.8779V49.547H20.6333V49.3024H20.3887V49.0578H20.1442V48.7318H19.8181V48.4872H19.5736V48.2427H19.329V47.9981H19.0845V47.4275H18.7584V47.1829H18.5138V46.6123H18.2693V46.1232H18.0247V45.8786H17.6986V45.308H18.0247V45.0634H18.2693V44.8189H18.5138V44.4928H18.7584V44.2483H19.0845V44.0037H19.329V43.7592H19.5736V43.4331H19.8181V43.1885H20.3887V42.944H20.6333V42.6994H21.2039V42.3733H21.9376V42.1288H23.3234V41.8842H24.3016V42.1288H25.6874V42.3733H26.7472V38.2159H26.9917V36.8301H27.2363V35.7704H27.4808V35.0367H27.8069V34.2215H28.0515V33.6509H28.296V33.1618H28.5406V32.5911H28.8667V32.3466H29.1112V31.8575H29.3558V31.5314H29.6003V31.2868H29.9264V31.0423H30.171V30.7977H30.4155V30.4717H30.6601V30.2271H30.9861V29.9825H31.4752V29.738H31.7198V29.4119H32.2904V29.1674H32.7795V28.9228H33.3502V28.6783H33.8393V28.3522H34.4099V28.1076H35.2251V27.8631H35.7142V27.6185H36.2033V27.2924H36.5294V27.6185H37.0185V27.8631H37.2631V28.1076H37.8337V28.3522H38.0782V28.6783H38.3228V28.9228H38.8934V29.1674H39.138V29.4119H39.3825V29.9825H39.9532V30.4717H40.1977V30.7977H40.4423V31.0423H40.7683V31.5314H41.0129V31.8575H41.2575V32.3466H41.502V32.9172H41.8281V33.1618H42.0726V33.6509H42.3172V34.4661H42.5617V35.2812H42.8878V35.7704H43.6215V35.5258H44.1921V35.2812H45.0073V35.0367H46.3116V35.2812H46.8007V35.5258H47.3713V35.7704H47.8604V36.0964H49.1647V35.7704H49.7354V35.5258H50.2245V35.2812H50.7951V35.0367H51.8548V35.2812H52.344V35.5258H52.9146V35.7704H53.4037V36.0964H54.4634V35.7704H55.0341V35.5258H55.5232V35.2812H56.0938V35.0367H57.1535V35.2812H58.2133V35.5258H59.0285V35.7704H59.5176V35.0367H59.273V33.4063H59.0285V32.102H58.7024V31.2868H58.4578V30.2271H58.2133V29.4119H57.9687V28.9228H57.6426V28.1076H57.3981V27.2924H57.1535V27.0479H56.5829V26.8033H55.8492V26.5588H53.1591V26.8033H52.344V27.0479H51.6103V27.2924H51.0397V27.6185H50.7951V27.8631H50.2245V28.1076H49.9799V28.3522H49.7354V28.6783H49.4908V29.1674H49.1647V29.4119H48.6756V29.738H47.3713V29.4119H46.8007V29.1674H47.6159V28.9228H48.4311V28.6783H48.6756V28.3522H48.9202V28.1076H49.1647V27.8631H49.4908V27.2924H49.7354V26.8033H50.2245V26.5588H50.7951V26.3142H51.6103V25.9881H52.344V25.7436H52.9146V25.499H53.1591V25.2545H53.7298V24.6839H53.9743V24.4393H54.2189V23.8687H54.4634V22.3198H54.2189V21.7492H53.9743V21.5046H53.7298V21.2601H53.4037V20.6895H53.1591V20.4449H52.9146V20.2003H52.67V19.9558H52.344V19.6297H52.0994V19.3852H51.8548V18.896H51.6103V18.57H51.2842V18.3254H51.0397V18.0809H50.7951V17.8363H50.5505V17.5102H49.9799V17.2657H48.6756V17.5102H47.6159V17.8363H47.1268V18.0809H46.8007V18.3254H46.5561V18.57H46.3116V18.896H46.067V19.1406H45.741V19.3852H45.4964V19.9558H45.2519V20.4449H45.0073V21.2601H44.6812V21.7492H44.4367V22.3198H44.1921V22.8089H43.9476V23.135H43.6215V23.3796H43.3769V23.6241H42.8878V23.8687H41.502V23.6241H42.0726V23.3796H42.3172V23.135H42.5617V22.8089H42.8878V22.5644H43.1324V22.0753H43.3769V21.5046H43.6215V20.2003H43.9476V19.1406H44.1921V18.896H44.4367V18.3254H44.6812V18.0809H45.0073V17.8363H45.2519V17.5102H45.741V17.2657H46.067V16.7766H46.3116V16.4505H46.5561V14.6571H46.3116V14.4125H46.067V14.0865H45.741V13.8419H45.2519V13.5974H44.6812V13.3528H44.4367V13.0267H43.9476V12.7822H43.3769V12.5376H42.8878V12.2931H42.3172V11.967H41.502V11.7224H41.0129V11.4779H38.8934V11.7224H38.3228V11.967H38.0782V12.2931H37.8337V12.5376H37.5891V12.7822H37.2631V13.3528H37.0185V13.8419H36.7739V14.6571H36.5294V17.5102H36.2033V19.1406H35.9588V19.6297H35.7142V19.9558H35.4696V20.2003H35.2251V20.4449H34.6545V20.6895H34.1654V20.2003H34.4099V19.9558H34.6545V19.3852H34.899V18.896H35.2251V14.6571H35.4696V13.8419H35.7142V13.0267H35.9588V12.2931H36.2033V10.6627H35.9588V10.4181H35.7142V10.1736H35.4696V9.84751H34.4099V9.60295H31.2307V9.3584H28.5406V9.60295H25.6874V9.84751H24.6277V10.1736H24.0571V10.4181H23.8125V12.2931H24.0571V13.0267H24.3016V13.8419H24.6277V14.6571H24.8723V18.896H25.1168V19.3852H25.3614V19.9558H25.6874V20.2003H25.932V20.4449H25.1168V20.2003H24.6277V19.9558H24.3016V19.6297H24.0571V19.3852H23.8125V19.1406H23.568V17.8363H23.3234V14.0865H22.9973V13.3528H22.7528V12.7822H22.5082V12.5376H22.2637V11.967H21.9376V11.7224H21.4485V11.4779H20.8779V11.2333H19.329V11.4779H18.5138V11.7224H18.0247V11.967H17.4541V12.2931H16.965V12.5376H16.3943V12.7822H15.9052V13.0267H15.3346V13.3528H14.8455V13.5974H14.5194V13.8419H14.2749V14.0865H14.0303V14.4125H13.7858V14.9016H13.4597V16.4505H13.7858V16.7766H14.0303V17.2657H14.2749V17.5102H14.8455V17.8363H15.0901V18.0809H15.3346V18.57H15.5792V18.896H15.9052V19.6297H16.1498V21.0155H16.3943V21.7492H16.6389V22.3198H16.965V22.5644H17.2095V22.8089H17.4541V23.135H17.6986V23.3796H18.2693V23.6241H16.6389V23.3796H16.3943V23.135H16.1498V22.8089H15.9052V22.5644H15.5792V22.0753H15.3346V21.5046H15.0901V20.6895H14.8455V20.2003H14.5194V19.3852H14.2749V19.1406H14.0303V18.896H13.7858V18.57H13.4597V18.3254H13.2151V18.0809H12.726V17.8363H12.3999V17.5102H11.6663V17.2657H9.54681V17.5102H9.30225V17.8363H8.97618V18.0809H8.73162V18.3254H8.48707V18.57H7.91644V18.896H7.67188V19.1406H7.42733V19.6297H7.18277V19.9558H6.8567V20.2003H6.61214V20.4449H6.36759V21.0155H6.12303V21.2601H5.79696V21.7492H5.5524V22.3198H5.30785V23.8687H5.5524V24.4393H5.79696V24.6839H6.12303V24.9284H6.36759V25.2545H6.61214V25.499H7.18277V25.7436H7.67188V25.9881H8.97618V26.3142H9.54681V26.5588H9.79136V26.8033H10.0359V27.0479H10.362V27.2924H10.6065V27.8631H10.8511V28.1076H11.0957V28.3522H11.4217V28.6783H11.9108V28.9228H12.3999V29.1674H12.9706V29.4119H10.8511V29.1674H10.6065V28.9228H10.362V28.3522H10.0359V28.1076H9.79136V27.8631H9.30225V27.6185H8.97618V27.2924H8.48707V27.0479H7.91644V26.8033H7.18277V26.5588H6.12303V26.3142H4.24811V26.5588H3.43293V26.8033H2.94382V27.0479H2.37319V27.6185H2.12863V28.1076H1.88408V28.9228H1.558V29.738H1.31345V30.4717H1.06889V31.2868H0.824339V32.3466H0.498266V33.9769H0.25371V35.7704H0.824339V35.5258H1.31345V35.2812H2.12863V35.0367H3.67748V35.2812H4.24811V35.5258H4.49267V35.7704H5.06329V36.0964H6.36759V35.7704H7.18277V35.5258H7.42733V35.2812H8.24251V35.0367H8.48707V35.2812H9.54681V35.5258H9.79136V35.7704H10.6065V36.0964H11.9108V35.7704H12.3999V35.5258H12.9706V35.2812H13.4597V35.0367H14.8455V35.2812H15.3346V35.5258H15.9052V35.7704H16.3943V36.0964H16.6389V35.2812H16.965V34.4661H17.2095V33.9769H17.4541V33.4063H17.6986V32.9172H18.0247V32.3466H18.2693V31.8575H18.5138V31.5314H18.7584V31.0423H19.0845V30.7977H19.329V30.4717H19.5736V30.2271H19.8181V29.9825H20.1442V29.738H20.3887V29.4119H20.6333V29.1674H20.8779V28.9228H21.2039V28.6783H21.4485V28.3522H21.9376V28.1076H22.2637V27.8631H22.7528V27.6185H22.9973V27.2924H23.568V27.0479H24.0571V26.8033H24.8723V26.5588H25.6874V26.3142H26.4211V25.9881H28.0515V25.7436H31.7198V25.9881H33.1056V26.3142H34.1654V26.5588H34.899V26.8033H35.4696V27.0479H35.9588V27.2924H35.2251V27.6185H34.1654V27.8631H33.3502V28.1076H32.535V28.3522H31.7198V28.6783H31.2307V28.9228H30.6601V29.1674H30.171V29.4119H29.6003V29.738H29.1112V29.9825H28.8667V30.2271H28.296V30.4717H28.0515V30.7977H27.4808V31.0423H27.2363V31.2868H26.9917V31.5314H26.4211V31.8575H26.1766V32.102H25.932V32.3466H25.6874V32.5911H25.3614V32.9172H25.1168V33.1618H24.8723V33.4063H24.6277V33.6509H24.3016V33.9769H24.0571V34.2215H23.8125V34.4661H23.568V35.0367H23.3234V35.2812H22.9973V35.5258H22.7528V35.7704H22.5082V36.341H22.2637V36.5855H21.9376V36.8301H21.693V37.4007H21.4485V37.6453H21.2039V38.2159H20.8779V38.705H20.6333V38.9496H20.3887V39.5202H20.1442V40.0093H19.8181V40.5799H19.5736V41.069H19.329V41.6397H19.0845V42.1288H18.7584V42.6994H18.5138V43.1885H18.2693V43.7592H18.0247V44.4928H17.6986V45.0634H17.4541V44.4928H17.2095V44.0037H16.965V42.944H16.6389V42.1288H16.3943V40.5799H16.1498V39.1941H15.9052V38.9496H15.3346V38.705H15.0901V38.4605H14.8455V38.2159H14.5194V37.8898H13.2151V38.2159H12.726V38.4605H12.1554V38.705H11.6663V38.9496H10.6065V38.705H10.0359V38.4605H9.54681V38.2159H8.97618V37.8898H7.67188V38.2159H7.18277V38.4605H6.61214V38.705H5.79696V38.9496H5.30785V38.705H4.73722V38.4605H4.24811V38.2159H3.67748V37.8898H2.12863V38.2159H1.558V38.4605H1.06889V38.705H0.824339V38.9496H0.25371V39.1941H0.00915527V42.6994H0.25371V44.8189H0.498266V46.1232H0.824339V47.1829H1.06889V47.9981H1.31345V48.2427H1.558V47.9981H1.88408V47.672H2.12863V47.4275H2.37319V47.1829H2.61774V46.9384H3.18837V46.6123H3.43293V46.3677H4.00356V46.1232H4.49267V45.8786H5.06329V45.5526H5.5524V45.308H6.36759V45.0634H10.0359V45.308H10.8511V45.5526H11.4217V45.8786H11.9108V46.1232H12.3999V46.3677H12.9706V46.6123H13.2151V46.9384H13.7858V47.1829H14.0303V47.4275H14.2749V47.672H14.5194V47.9981H15.0901V48.2427H15.3346V48.4872H15.5792V48.7318H15.9052V49.0578H16.1498V49.3024H16.3943V49.547H16.6389V49.7915H16.965V50.1176H17.2095V50.3621H17.4541V50.6067H17.6986V50.8512H18.0247V51.0958H18.2693V51.4219H18.7584V51.6664H19.0845V51.911H19.329V52.1555H19.8181V52.4816H20.1442V52.7262H20.6333V52.9707H21.2039V53.2153H21.693V53.5414H22.2637V53.7859H22.7528V54.0305H23.3234V54.275H24.0571V54.6011H24.8723V54.8456H25.6874V55.0902H26.9917V55.3348H33.3502V55.0902H34.4099V54.8456H35.4696V54.6011H36.2033V54.275H36.7739V54.0305H37.5891V53.7859H38.0782V53.5414H38.6489V53.2153H39.138V52.9707H39.3825V52.7262H39.9532V52.4816H40.1977V52.1555H40.7683V51.911H41.0129V51.6664H41.2575V51.4219H41.502V51.0958H42.0726V50.8512H42.3172V50.6067H42.5617V50.3621H42.8878V50.1176H43.1324V49.7915H43.3769V49.547H43.6215V49.3024H43.9476V49.0578H44.1921V48.7318H44.4367V48.4872H45.0073V48.2427H45.2519V47.9981H45.4964V47.672H45.741V47.4275H46.3116V47.1829H46.5561V46.9384H47.1268V46.6123H47.3713V46.3677H47.8604V46.1232H48.4311V45.8786H49.1647V45.5526H49.7354V45.308H50.7951V45.0634H53.9743V45.308H54.7895V45.5526H55.2786V45.8786H55.8492V46.1232H56.3384V46.3677H56.909V46.6123H57.1535V46.9384H57.3981V47.1829H57.6426V47.4275H57.9687V47.672H58.2133V47.9981H58.4578V47.4275H58.7024V46.3677H59.0285V45.308H59.273V43.4331H59.5176V40.5799H59.7621V39.1941H59.5176V38.9496H59.0285V38.705H58.7024V38.4605H58.2133V38.2159H57.6426V37.8898H56.3384V38.2159H55.8492V38.4605H55.5232V38.705H55.2786V38.9496H53.7298V38.705H53.1591V38.4605H52.67V38.2159H52.344V37.8898H50.7951V38.2159H50.2245V38.4605H49.9799V38.705H49.4908V38.9496H47.8604V38.705H47.3713V38.4605H47.1268V38.2159H46.5561V37.8898H45.4964V38.2159H45.0073V38.4605H44.4367V38.705H43.9476V38.9496H43.6215V39.1941H43.3769V40.8245H43.1324V42.1288H42.8878V42.944H42.5617V43.7592H42.3172V44.4928H42.0726V45.0634H41.8281V45.5526H41.502V46.1232H41.2575V46.6123H41.0129V46.9384H40.7683V47.4275H40.4423V47.672H40.1977V47.9981H39.9532V48.4872H39.7086V48.7318H39.3825V49.0578H39.138V49.3024H38.8934V49.547H38.3228V49.7915H38.0782V50.1176H37.8337V50.3621H37.5891V50.6067H37.0185V50.8512H36.5294V51.0958H36.2033V51.4219H35.7142V51.6664H35.2251V51.911H34.4099V52.1555H33.5947V52.4816H32.535V52.7262H30.6601V52.9707H28.5406V52.7262H26.7472V52.4816H25.6874V52.1555H24.8723V51.911H24.3016V51.6664H23.8125V51.4219H23.3234V51.0958H22.9973V50.8512Z" fill="#5F727B"/>
<path fill-rule="evenodd" clip-rule="evenodd" d="M157.095 56.7206H159.459V56.3945H160.845V56.1499H161.579V55.9054H162.394V55.6608H162.964V55.3347H163.453V55.0902H164.024V54.8456H164.269V54.6011H164.513V54.275H164.758V54.0304H165.084V53.7859H165.328V53.5413H165.573V53.2153H165.818V52.7262H166.144V52.1555H166.388V51.4219H166.633V50.1176H166.877V28.9228H167.122V29.1673H167.448V29.4119H167.692V29.738H167.937V29.9825H168.182V30.2271H168.508V30.4716H168.752V30.7977H168.997V31.0423H169.241V31.2868H169.567V31.5314H169.812V31.8574H170.056V32.3466H170.301V32.5911H170.627V32.9172H170.872V33.1617H171.116V33.4063H171.361V33.6509H171.687V33.9769H171.931V34.2215H172.176V34.466H172.421V34.7106H172.747V35.0367H172.991V35.2812H173.236V35.7703H173.48V36.0964H173.806V36.341H174.051V36.5855H174.295V36.8301H174.54V37.1561H174.866V37.4007H175.111V37.6453H175.355V37.8898H175.6V38.2159H175.926V38.4604H176.17V38.705H176.415V38.9495H176.659V39.5202H176.986V39.7647H177.23V40.0093H177.475V40.2538H177.719V40.5799H178.045V40.8245H178.29V41.069H178.534V41.3136H178.779V41.6397H179.024V41.8842H179.35V42.1288H179.594V42.3733H179.839V42.9439H180.083V43.1885H180.409V43.4331H180.654V43.7591H180.898V44.0037H181.143V44.2482H181.469V44.4928H181.714V44.8189H181.958V45.0634H182.529V44.8189H182.773V44.4928H183.018V44.2482H183.262V44.0037H183.589V43.7591H183.833V43.4331H184.078V43.1885H184.322V42.9439H184.648V42.3733H184.893V42.1288H185.137V41.8842H185.382V41.6397H185.708V41.3136H185.953V41.069H186.197V40.8245H186.442V40.5799H186.768V40.2538H187.012V40.0093H187.257V39.7647H187.501V39.5202H187.827V38.9495H188.072V38.705H188.317V38.4604H188.561V38.2159H188.887V37.8898H189.132V37.6453H189.376V37.4007H189.621V37.1561H189.947V36.8301H190.192V36.5855H190.436V36.341H190.681V36.0964H190.925V35.7703H191.251V35.2812H191.496V35.0367H191.74V34.7106H191.985V34.466H192.311V34.2215H192.556V33.9769H192.8V33.6509H193.045V33.4063H193.371V33.1617H193.615V32.9172H193.86V32.5911H194.104V32.3466H194.43V31.8574H194.675V31.5314H194.92V31.2868H195.164V31.0423H195.49V30.7977H195.735V30.4716H195.979V30.2271H196.224V29.9825H196.55V29.738H196.795V29.4119H197.039V29.1673H197.284V28.9228H197.61V50.1176H197.854V51.4219H198.099V52.1555H198.343V52.7262H198.669V53.2153H198.914V53.5413H199.159V53.7859H199.403V54.0304H199.729V54.275H199.974V54.6011H200.218V54.8456H200.463V55.0902H201.033V55.3347H201.523V55.6608H202.093V55.9054H202.827V56.1499H203.642V56.3945H204.946V56.7206H207.392V15.7168H207.636V14.6571H207.881V14.0864H208.126V13.5973H208.452V13.3528H208.941V13.0267H209.511V12.7821H211.631V10.9072H204.946V11.2333H203.642V11.4779H202.827V11.7224H202.093V11.967H201.523V12.293H201.033V12.5376H200.463V12.7821H200.218V13.0267H199.729V13.3528H199.403V13.5973H199.159V13.8419H198.914V14.0864H198.669V14.4125H198.099V14.6571H197.854V14.9016H197.61V15.1462H197.284V15.3907H197.039V15.9614H196.795V16.2059H196.55V16.4505H196.224V16.7765H195.979V17.0211H195.735V17.2657H195.49V17.5102H195.164V17.8363H194.92V18.0808H194.675V18.3254H194.43V18.896H194.104V19.1406H193.86V19.3851H193.615V19.6297H193.371V19.9558H193.045V20.2003H192.8V20.4449H192.556V20.6894H192.311V21.0155H191.985V21.2601H191.74V21.5046H191.496V21.7492H191.251V22.0752H190.925V22.5644H190.681V22.8089H190.436V23.135H190.192V23.3795H189.947V23.6241H189.621V23.8686H189.376V24.1947H189.132V24.4393H188.887V24.6838H188.561V24.9284H188.317V25.2545H188.072V25.499H187.827V25.9881H187.501V26.3142H187.257V26.5588H187.012V26.8033H186.768V27.0479H186.442V27.2924H186.197V27.6185H185.953V27.863H185.708V28.1076H185.382V28.3522H185.137V28.6782H184.893V28.9228H184.648V29.4119H184.322V29.738H184.078V29.9825H183.833V30.2271H183.589V30.4716H183.262V30.7977H183.018V31.0423H182.773V31.2868H182.529V31.5314H181.958V31.2868H181.714V31.0423H181.469V30.7977H181.143V30.4716H180.898V30.2271H180.654V29.9825H180.409V29.738H180.083V29.4119H179.839V28.9228H179.594V28.6782H179.35V28.3522H179.024V28.1076H178.779V27.863H178.534V27.6185H178.29V27.2924H178.045V27.0479H177.719V26.8033H177.475V26.5588H177.23V26.3142H176.986V25.9881H176.659V25.499H176.415V25.2545H176.17V24.9284H175.926V24.6838H175.6V24.4393H175.355V24.1947H175.111V23.8686H174.866V23.6241H174.54V23.3795H174.295V23.135H174.051V22.8089H173.806V22.5644H173.48V22.3198H173.236V21.7492H172.991V21.5046H172.747V21.2601H172.421V21.0155H172.176V20.6894H171.931V20.4449H171.687V20.2003H171.361V19.9558H171.116V19.6297H170.872V19.3851H170.627V19.1406H170.301V18.896H170.056V18.3254H169.812V18.0808H169.567V17.8363H169.241V17.5102H168.997V17.2657H168.752V17.0211H168.508V16.7765H168.182V16.4505H167.937V16.2059H167.692V15.9614H167.448V15.7168H167.122V15.1462H166.877V14.9016H166.633V14.6571H166.388V14.4125H165.818V14.0864H165.573V13.8419H165.328V13.5973H165.084V13.3528H164.758V13.0267H164.269V12.7821H164.024V12.5376H163.453V12.293H162.964V11.967H162.394V11.7224H161.579V11.4779H160.845V11.2333H159.459V10.9072H157.095V56.7206Z" fill="#5F727B"/>
<path fill-rule="evenodd" clip-rule="evenodd" d="M116.417 56.3946H118.211V56.15H119.841V55.9055H120.901V55.6609H121.635V55.3348H122.205V55.0903H122.694V54.8457H123.265V54.6012H123.509V54.2751H124.08V54.0305H124.325V53.786H124.569V53.5414H124.814V52.9708H125.14V52.7262H125.384V52.1556H125.629V51.6665H125.874V50.8513H126.2V49.0579H126.444V29.412H126.689V29.7381H126.933V29.9826H127.259V30.2272H127.504V30.4717H127.748V30.7978H127.993V31.0424H128.319V31.2869H128.564V31.5315H128.808V31.8575H129.053V32.1021H129.379V32.3467H129.623V32.9173H129.868V33.1618H130.112V33.4064H130.439V33.6509H130.683V33.977H130.928V34.2216H131.172V34.4661H131.417V34.7107H131.743V35.0368H131.987V35.2813H132.232V35.5259H132.477V35.7704H132.803V36.0965H133.047V36.3411H133.292V36.5856H133.536V36.8302H133.862V37.1562H134.107V37.4008H134.351V37.6453H134.596V38.216H134.922V38.4605H135.167V38.7051H135.411V38.9496H135.656V39.1942H135.982V39.5203H136.226V39.7648H136.471V40.0094H136.715V40.2539H137.042V40.58H137.286V40.8246H137.531V41.0691H137.775V41.3137H138.101V41.6397H138.346V41.8843H138.59V42.1289H138.835V42.3734H139.161V42.6995H139.406V42.944H139.65V43.4332H139.895V43.7592H140.221V44.0038H140.465V44.2483H140.71V44.4929H140.954V44.819H141.28V45.0635H141.525V45.3081H141.77V45.5526H142.014V45.8787H142.34V46.1233H142.585V46.3678H142.829V46.6124H143.074V46.9384H143.318V47.183H143.645V47.4276H143.889V47.6721H144.134V47.9982H144.378V48.2427H144.704V48.7318H144.949V49.0579H145.193V49.3025H145.438V49.547H145.764V49.7916H146.009V50.1177H146.253V50.3622H146.498V50.6068H146.824V50.8513H147.068V51.0959H147.313V51.422H147.557V51.6665H147.883V51.9111H148.128V52.1556H148.373V52.4817H148.617V52.7262H148.943V52.9708H149.188V53.2154H149.432V53.5414H149.677V53.786H150.248V54.0305H150.492V54.2751H150.737V54.6012H151.307V54.8457H151.552V55.0903H152.122V55.3348H152.367V55.6609H152.856V55.9055H153.427V56.15H154.242V56.3946H154.976V15.1463H154.731V14.4126H154.486V13.842H154.242V13.3529H153.916V13.0268H153.671V12.5377H153.427V12.2931H152.856V11.9671H152.612V11.7225H152.367V11.478H151.796V11.2334H151.307V10.9073H150.492V10.6628H148.943V10.4182H140.954V12.2931H141.525V12.5377H143.074V12.7822H143.645V13.0268H143.889V13.3529H144.134V13.5974H144.378V13.842H144.704V14.4126H144.949V35.2813H144.704V35.0368H144.378V34.7107H144.134V34.4661H143.889V34.2216H143.645V33.977H143.318V33.6509H143.074V33.4064H142.829V33.1618H142.585V32.9173H142.34V32.5912H142.014V32.3467H141.77V31.8575H141.525V31.5315H141.28V31.2869H140.954V31.0424H140.71V30.7978H140.465V30.4717H140.221V30.2272H139.895V29.9826H139.65V29.7381H139.406V29.412H139.161V29.1674H138.835V28.6783H138.59V28.3523H138.346V28.1077H138.101V27.8631H137.775V27.6186H137.531V27.2925H137.286V27.048H137.042V26.8034H136.715V26.5589H136.471V26.3143H136.226V25.9882H135.982V25.4991H135.656V25.2546H135.411V24.9285H135.167V24.6839H134.922V24.4394H134.596V24.1948H134.351V23.8687H134.107V23.6242H133.862V23.3796H133.536V23.1351H133.292V22.809H133.047V22.3199H132.803V22.0753H132.477V21.7493H132.232V21.5047H131.987V21.2602H131.743V21.0156H131.417V20.6895H131.172V20.445H130.928V20.2004H130.683V19.9559H130.439V19.6298H130.112V19.1407H129.868V18.8961H129.623V18.5701H129.379V18.3255H129.053V18.0809H128.808V17.8364H128.564V17.5103H128.319V17.2658H127.993V17.0212H127.748V16.7766H127.504V16.4506H127.259V15.9615H126.933V15.7169H126.689V15.3908H126.444V15.1463H126.2V14.9017H125.874V14.6572H125.629V14.4126H125.384V14.0865H125.14V13.842H124.814V13.5974H124.325V13.3529H124.08V13.0268H123.754V12.7822H123.265V12.5377H123.02V12.2931H122.45V11.9671H122.205V11.7225H121.635V11.478H120.901V11.2334H120.33V10.9073H119.271V10.6628H117.477V10.4182H116.417V56.3946Z" fill="#5F727B"/>
<path fill-rule="evenodd" clip-rule="evenodd" d="M95.4672 53.5414H95.7117V53.786H95.4672V53.5414ZM95.4672 53.5414H95.2226V53.2154H95.4672V53.5414ZM94.7335 52.9708H94.9781V53.2154H94.7335V52.9708ZM94.7335 52.9708H94.4074V52.7262H94.7335V52.9708ZM94.4074 52.7262H94.1629V52.4817H94.4074V52.7262ZM94.1629 52.4817H93.9183V52.1556H93.6738V51.9111H93.3477V51.6665H93.1031V51.422H92.8586V51.0959H92.614V50.8513H92.288V50.6068H92.0434V50.1177H91.7988V49.7916H91.5543V49.547H91.2282V49.0579H90.9837V48.7318H90.7391V48.2427H90.4945V47.6721H90.1685V47.183H89.9239V46.6124H89.6794V46.1233H89.4348V45.5526H89.1087V44.819H88.8642V44.0038H88.6196V42.944H88.3751V41.8843H88.049V40.58H87.8044V38.4605H87.5599V17.8364H87.3153V15.9615H86.9893V15.1463H86.7447V14.6572H86.5001V14.0865H86.2556V13.842H85.9295V13.3529H85.685V13.0268H85.4404V12.7822H85.1959V12.5377H84.6252V12.2931H84.3807V11.9671H83.81V11.7225H83.3209V11.478H82.8318V11.2334H81.7721V10.9073H80.7123V10.6628H78.5929V10.4182H72.7235V12.2931H73.7833V12.5377H74.843V12.7822H75.4136V13.0268H75.9028V13.3529H76.1473V13.842H76.4734V14.4126H76.7179V37.6453H76.9625V40.58H77.2071V42.1289H77.5331V43.1886H77.7777V44.2483H78.0222V45.0635H78.2668V45.8787H78.5929V46.3678H78.8374V46.9384H79.082V47.4276H79.3265V47.9982H79.6526V48.4873H79.8972V48.7318H80.1417V49.3025H80.3863V49.547H80.7123V50.1177H80.9569V50.3622H81.2015V50.6068H81.446V50.8513H81.7721V51.0959H82.0166V51.422H82.2612V51.6665H82.5057V51.9111H82.8318V52.1556H83.0764V52.4817H83.3209V52.7262H83.5655V52.9708H84.1361V53.2154H84.3807V53.5414H84.8698V53.786H85.1959V54.0305H85.685V54.2751H86.2556V54.6012H86.7447V54.8457H87.3153V55.0903H88.049V55.3348H88.8642V55.6609H89.6794V55.9055H90.9837V56.15H92.614V56.3946H98.4018V56.15H99.9507V55.9055H101.336V55.6609H102.07V55.3348H102.885V55.0903H103.701V54.8457H104.19V54.6012H104.76V54.2751H105.249V54.0305H105.82V53.786H106.065V53.5414H106.635V53.2154H106.88V52.9708H107.369V52.7262H107.613V52.4817H107.939V52.1556H108.184V51.9111H108.429V51.6665H108.673V51.422H108.999V51.0959H109.244V50.8513H109.488V50.6068H109.733V50.3622H110.059V50.1177H110.304V49.547H110.548V49.3025H110.793V48.7318H111.119V48.4873H111.363V47.9982H111.608V47.4276H111.852V46.9384H112.178V46.3678H112.423V45.8787H112.668V45.0635H112.912V44.2483H113.238V43.4332H113.483V42.3734H113.727V40.8246H113.972V38.7051H114.298V10.6628H113.972V10.4182H113.483V10.6628H111.363V10.9073H110.304V11.2334H109.244V11.478H108.673V11.7225H108.184V11.9671H107.613V12.2931H107.369V12.5377H106.88V12.7822H106.635V13.0268H106.309V13.3529H106.065V13.842H105.82V14.0865H105.575V14.6572H105.249V15.1463H105.005V15.9615H104.76V17.5103H104.516V39.1942H104.19V40.2539H103.945V41.3137H103.701V41.8843H103.456V42.3734H103.13V42.944H102.885V43.4332H102.641V43.7592H102.396V44.0038H102.07V44.2483H101.826V44.4929H101.581V44.819H101.336V45.0635H101.01V45.3081H100.521V45.5526H99.9507V45.8787H99.4616V46.1233H98.6464V46.3678H97.0975V46.6124H94.9781V46.3678H93.3477V46.1233H92.614V45.8787H92.0434V45.5526H91.5543V45.3081H90.9837V45.0635H90.7391V44.819H90.4945V45.5526H90.7391V46.3678H90.9837V47.183H91.2282V47.9982H91.5543V48.4873H91.7988V49.0579H92.0434V49.547H92.288V49.7916H92.614V50.3622H92.8586V50.6068H93.1031V51.0959H93.3477V51.422H93.6738V51.6665H93.9183V51.9111H94.1629V52.4817Z" fill="#5F727B"/>
<path fill-rule="evenodd" clip-rule="evenodd" d="M49.7354 49.7914H48.6756V50.1175H47.6159V50.3621H46.8007V50.6066H46.3116V50.8512H45.741V51.0957H45.0073V51.4218H44.4367V51.6664H43.9476V51.9109H43.3769V52.1555H42.8878V52.4815H42.5618V52.7261H42.0727V52.9706H41.502V53.2152H41.0129V53.5413H40.7684V53.7858H40.1977V54.0304H39.7086V54.2749H39.3825V54.601H38.8934V54.8456H38.0783V55.0901H37.5891V55.3347H37.0185V55.6608H36.2033V55.9053H35.4697V56.1499H34.4099V56.3944H32.7796V56.7205H27.2363V56.3944H25.6875V56.1499H24.6277V55.9053H23.8125V55.6608H22.9974V55.3347H22.5082V55.0901H21.6931V54.8456H21.2039V54.601H20.6333V54.2749H20.1442V54.0304H19.8181V53.7858H19.329V53.5413H18.7584V53.2152H18.5138V52.9706H18.0247V52.7261H17.4541V52.4815H16.965V52.1555H16.3944V51.9109H15.9053V51.6664H15.3346V51.4218H14.8455V51.0957H14.2749V50.8512H13.4597V50.6066H12.9706V50.3621H11.9109V50.1175H10.8511V49.7914H7.91645V50.1175H6.85671V50.3621H6.3676V50.6066H5.79697V50.8512H5.30786V51.0957H5.06331V51.4218H4.73723V51.6664H4.24812V51.9109H4.00357V52.1555H3.6775V52.4815H3.43294V52.7261H3.18839V53.5413H3.43294V54.0304H3.6775V54.601H4.00357V54.8456H4.24812V55.3347H4.49268V55.6608H4.73723V56.1499H5.06331V56.3944H5.30786V56.7205H5.55242V57.2096H5.79697V57.4542H6.12305V57.7802H6.3676V58.0248H6.61216V58.5139H6.85671V58.84H7.42734V58.5139H7.6719V58.2693H7.91645V58.0248H8.24252V57.7802H8.73163V57.4542H8.97619V57.2096H9.30226V56.965H9.79137V56.7205H10.0359V56.3944H10.6066V56.1499H11.0957V55.9053H11.9109V55.6608H12.726V55.3347H14.5194V55.0901H16.1498V55.3347H18.0247V55.6608H19.0845V55.9053H19.8181V56.1499H20.3888V56.3944H21.2039V56.7205H21.9376V56.965H22.5082V57.2096H23.3234V57.4542H24.3016V57.7802H25.3614V58.0248H26.7472V58.2693H28.8667V58.5139H31.4753V58.2693H33.8393V58.0248H34.899V57.7802H35.9588V57.4542H36.774V57.2096H37.5891V56.965H38.3228V56.7205H38.8934V56.3944H39.7086V56.1499H40.1977V55.9053H41.0129V55.6608H41.8281V55.3347H43.1324V55.0901H47.1268V55.3347H48.105V55.6608H48.6756V55.9053H49.4908V56.1499H49.7354V56.3944H50.2245V56.7205H50.5506V56.965H50.7951V57.2096H51.2842V57.4542H51.6103V57.7802H51.8549V58.2693H52.0994V58.5139H52.344V58.84H52.67V58.5139H52.9146V58.2693H53.1591V58.0248H53.4037V57.4542H53.7298V57.2096H53.9743V56.965H54.2189V56.3944H54.4634V56.1499H54.7895V55.6608H55.0341V55.3347H55.2786V54.8456H55.5232V54.2749H55.8493V54.0304H56.0938V53.5413H56.3384V52.4815H56.0938V52.1555H55.8493V51.6664H55.5232V51.4218H55.2786V51.0957H55.0341V50.8512H54.7895V50.6066H54.2189V50.3621H53.9743V50.1175H53.1591V49.7914H52.344V49.5469H49.7354V49.7914Z" fill="#5F727B"/>
<path fill-rule="evenodd" clip-rule="evenodd" d="M42.5617 58.2695H40.1977V58.514H38.6489V58.8401H37.0185V59.0846H35.2251V59.3292H32.0459V59.5738H28.5406V59.3292H25.3614V59.0846H23.3234V58.8401H21.693V58.514H20.1442V58.2695H15.3346V58.514H14.5194V58.8401H14.0303V59.0846H13.7858V59.3292H13.4597V59.5738H13.2151V59.8998H12.9706V60.1444H12.726V60.3889H12.3999V60.6335H12.1554V61.2041H11.9108V61.4487H11.6663V62.0193H11.4217V62.9975H11.6663V63.3236H12.1554V63.5682H12.3999V63.8127H12.9706V64.0573H13.2151V64.3833H13.7858V64.6279H14.0303V64.8724H14.5194V65.117H15.09V65.4431H15.3346V65.6876H15.9052V65.9322H16.3943V66.1767H16.965V66.5028H17.4541V66.7474H18.0247V65.9322H18.2693V65.4431H18.5138V65.117H18.7584V64.6279H19.0844V64.3833H19.329V64.0573H19.5736V63.8127H19.8181V63.5682H20.3887V63.3236H20.6333V62.9975H21.2039V62.753H21.4485V62.5084H21.9376V62.2639H22.7528V62.0193H23.3234V61.6932H24.0571V61.4487H25.1168V61.2041H26.4211V60.9596H28.5406V60.6335H31.7198V60.9596H33.8393V61.2041H35.2251V61.4487H35.9588V61.6932H36.7739V62.0193H37.5891V62.2639H38.0782V62.5084H38.6489V62.753H39.138V62.9975H39.3825V63.3236H39.7086V63.5682H40.1977V63.8127H40.4423V64.0573H40.7683V64.3833H41.0129V64.8724H41.2574V65.117H41.502V65.6876H41.8281V66.5028H42.5617V66.1767H43.1324V65.9322H43.6215V65.6876H44.1921V65.4431H44.6812V65.117H45.0073V64.8724H45.4964V64.6279H46.067V64.3833H46.3116V64.0573H46.8007V63.8127H47.1268V63.5682H47.6159V63.3236H47.8604V62.9975H48.105V62.753H48.4311V61.6932H48.105V61.2041H47.8604V60.6335H47.6159V60.3889H47.3713V59.8998H47.1268V59.5738H46.8007V59.3292H46.5561V59.0846H46.3116V58.8401H45.741V58.514H45.0073V58.2695H43.3769V58.0249H42.5617V58.2695Z" fill="#5F727B"/>
<path fill-rule="evenodd" clip-rule="evenodd" d="M28.8667 62.0192H27.8069V62.2637H26.9917V62.5083H26.4211V62.7529H25.932V62.9974H25.6875V63.3235H25.3614V63.568H25.1168V63.8126H24.8723V64.0571H24.6277V64.3832H24.3016V64.6278H24.0571V65.1169H23.8125V65.6875H23.568V66.1766H23.3234V67.2364H22.9973V68.2961H23.3234V68.6222H24.3016V68.8667H26.1766V69.1113H33.1056V68.8667H35.2251V68.6222H36.5294V68.2961H36.774V66.9918H36.5294V65.9321H36.2033V65.443H35.9588V64.8723H35.7142V64.3832H35.4697V64.0571H35.2251V63.8126H34.899V63.568H34.6545V63.3235H34.4099V62.9974H34.1654V62.7529H33.5947V62.5083H33.1056V62.2637H32.2904V62.0192H30.9861V61.6931H28.8667V62.0192Z" fill="#5F727B"/>
<path fill-rule="evenodd" clip-rule="evenodd" d="M22.9973 50.8513H23.3234V50.6067H23.8125V50.3622H24.0571V50.1176H24.6277V49.7915H25.1168V49.547H25.932V49.3024H26.7472V49.0579H29.6003V49.3024H30.6601V49.547H31.2307V49.7915H31.7198V50.1176H32.0459V50.3622H32.2904V46.1232H32.535V44.0037H32.7795V42.6994H33.1056V41.6397H33.3502V40.8245H33.5947V40.0093H33.8393V39.5202H34.1654V38.9496H34.4099V38.4605H34.6545V38.2159H34.899V37.6453H35.2251V37.4007H35.4697V37.1562H35.7142V36.8301H35.9588V36.5856H36.2033V36.341H36.5294V36.0965H36.774V35.7704H37.0185V35.5258H37.2631V35.2813H37.8337V35.0367H38.0782V34.7106H38.6489V34.4661H39.138V34.2215H39.3825V33.977H39.9532V33.6509H40.4423V33.4063H41.0129V33.1618H41.502V32.9172H40.7684V33.1618H39.9532V33.4063H39.3825V33.6509H38.6489V33.977H38.0782V34.2215H37.5891V34.4661H37.0185V34.7106H36.5294V35.0367H36.2033V35.2813H35.7142V35.5258H35.4697V35.7704H34.899V36.0965H34.6545V36.341H34.4099V36.5856H33.8393V36.8301H33.5947V37.1562H33.3502V37.4007H33.1056V37.6453H32.7795V37.8899H32.535V38.2159H32.2904V38.4605H32.0459V38.9496H31.7198V39.1942H31.4753V39.5202H31.2307V40.0093H30.9861V40.2539H30.6601V41.3136H30.4155V42.944H30.171V47.4275H29.6003V47.183H29.1112V46.9384H28.296V46.6123H27.4809V46.3678H25.6875V46.6123H25.3614V46.9384H25.1168V47.183H24.8723V47.4275H24.6277V47.9981H24.3016V48.2427H24.0571V48.7318H23.8125V49.3024H23.568V49.7915H23.3234V50.3622H22.9973V50.8513Z" fill="#5F727B"/>
<path fill-rule="evenodd" clip-rule="evenodd" d="M20.1442 48.7319H20.3888V48.4873H20.6333V48.2428H20.8779V47.9982H21.2039V47.6722H21.4485V47.4276H21.693V47.183H22.2637V46.9385H22.5082V46.6124H22.9973V46.3679H23.3234V46.1233H24.0571V45.8787H24.8723V45.5527H27.4808V45.8787H28.296V46.1233H29.1112V46.3679H29.3558V41.3137H29.6003V40.0094H29.9264V39.1942H30.171V38.4606H30.4155V37.6454H30.6601V37.1563H30.9861V36.5857H31.2307V36.3411H31.4752V35.7705H31.7198V35.5259H32.0459V35.0368H32.2904V34.7107H32.535V34.4662H32.7795V34.2216H33.1056V33.9771H33.3502V33.651H33.5947V33.4064H33.8393V33.1619H34.1654V32.9173H34.4099V32.5913H34.899V32.3467H35.2251V32.1021H35.4697V31.8576H35.9588V31.5315H36.5294V31.287H36.7739V31.0424H37.2631V30.7978H38.0782V30.4718H38.6489V30.2272H39.138V29.9827H38.3228V30.2272H37.5891V30.4718H36.7739V30.7978H36.2033V31.0424H35.7142V31.287H35.2251V31.5315H34.6545V31.8576H34.1654V32.1021H33.5947V32.3467H33.3502V32.5913H32.7795V32.9173H32.535V33.1619H32.0459V33.4064H31.7198V33.651H31.4752V33.9771H31.2307V34.2216H30.6601V34.4662H30.4155V34.7107H30.171V35.0368H29.9264V35.2814H29.6003V35.5259H29.3558V35.7705H29.1112V36.0965H28.8667V36.3411H28.5406V36.5857H28.296V36.8302H28.0515V37.1563H27.8069V37.8899H27.4808V40.0094H27.2363V43.7593H26.7472V43.4332H26.1766V43.1886H25.3614V42.9441H22.9973V43.1886H22.7528V43.4332H22.5082V43.7593H22.2637V44.2484H21.9376V44.819H21.693V45.3081H21.4485V45.8787H21.2039V46.3679H20.8779V46.9385H20.6333V47.4276H20.3888V48.2428H20.1442V48.7319Z" fill="#5F727B"/>
<path fill-rule="evenodd" clip-rule="evenodd" d="M66.3651 20.4449H66.1206V56.9652H66.3651V73.1058H66.6912V64.8724H66.9357V11.967H66.6912V3H66.3651V20.4449Z" fill="#5F727B"/>
<path fill-rule="evenodd" clip-rule="evenodd" d="M164.758 65.117H164.513V66.9919H164.269V68.8668H164.024V69.682H164.758V67.8071H165.084V65.443H165.328V65.9321H165.573V66.5028H165.818V66.9919H166.144V67.5625H166.388V68.0516H166.633V68.6223H166.877V69.1114H167.122V69.682H167.692V69.1114H167.937V68.6223H168.182V68.0516H168.508V67.5625H168.752V66.9919H168.997V66.5028H169.241V65.9321H169.567V65.6876H169.812V66.9919H170.056V69.682H171.116V68.2962H170.872V65.9321H170.627V63.5681H170.056V63.8127H169.812V64.3833H169.567V64.8724H169.241V65.443H168.997V65.6876H168.752V66.1767H168.508V66.7473H168.182V67.2364H167.937V67.8071H167.692V68.0516H167.448V67.5625H167.122V66.9919H166.877V66.5028H166.633V65.9321H166.388V65.6876H166.144V65.117H165.818V64.6279H165.573V64.0572H165.328V63.5681H164.758V65.117Z" fill="#5F727B"/>
<path fill-rule="evenodd" clip-rule="evenodd" d="M207.066 65.9321H206.577V66.1767H205.272V64.0572H206.821V64.3833H207.066V64.8724H207.392V65.443H207.066V65.9321ZM204.213 69.682H205.272V66.9919H205.517V67.2364H205.762V67.5625H206.006V67.8071H206.332V68.0516H206.577V68.6223H206.821V68.8668H207.066V69.1114H207.392V69.682H208.696V69.3559H208.452V69.1114H208.126V68.6223H207.881V68.2962H207.636V68.0516H207.392V67.8071H207.066V67.2364H206.821V66.9919H206.577V66.7473H206.821V66.5028H207.392V66.1767H207.881V65.6876H208.126V64.0572H207.881V63.8127H207.392V63.5681H204.213V69.682Z" fill="#5F727B"/>
<path fill-rule="evenodd" clip-rule="evenodd" d="M105.005 65.9321H104.76V66.1767H103.13V64.0572H104.76V64.3833H105.005V64.8724H105.249V65.443H105.005V65.9321ZM102.07 69.682H103.13V66.9919H103.456V67.2364H103.701V67.5625H103.945V67.8071H104.19V68.0516H104.516V68.6223H104.76V68.8668H105.005V69.1114H105.249V69.682H106.635V69.3559H106.309V69.1114H106.065V68.6223H105.82V68.2962H105.575V68.0516H105.249V67.8071H105.005V67.2364H104.76V66.9919H104.516V66.7473H104.76V66.5028H105.249V66.1767H105.82V65.6876H106.065V64.0572H105.82V63.8127H105.249V63.5681H102.07V69.682Z" fill="#5F727B"/>
<path fill-rule="evenodd" clip-rule="evenodd" d="M156.851 65.9321H156.606V66.1767H154.976V64.0572H156.606V64.3833H156.851V64.6279H157.095V65.6876H156.851V65.9321ZM153.916 64.6279H154.242V68.8668H153.916V69.682H154.976V66.7473H155.22V66.9919H155.546V67.2364H155.791V67.8071H156.035V68.0516H156.28V68.2962H156.606V68.6223H156.851V69.1114H157.095V69.3559H157.34V69.682H158.399V69.1114H158.155V68.8668H157.91V68.6223H157.666V68.2962H157.34V67.8071H157.095V67.5625H156.851V67.2364H156.606V66.9919H156.28V66.7473H156.851V66.5028H157.34V66.1767H157.666V65.9321H157.91V65.443H158.155V64.6279H157.91V64.0572H157.666V63.8127H157.34V63.5681H153.916V64.6279Z" fill="#5F727B"/>
<path fill-rule="evenodd" clip-rule="evenodd" d="M131.743 63.568H131.417V63.8126H131.743V66.7473H131.417V69.6819H132.232V65.443H132.477V65.6875H132.803V65.9321H133.047V66.1766H133.292V66.5027H133.536V66.7473H133.862V66.9918H134.107V67.2364H134.351V67.5624H134.596V67.807H134.922V68.0516H135.167V68.6222H135.411V68.8667H135.656V69.1113H135.982V69.3558H136.226V69.6819H136.471V69.9265H136.715V63.8126H137.042V63.568H136.226V67.807H135.982V67.5624H135.656V67.2364H135.411V66.9918H135.167V66.7473H134.922V66.5027H134.596V66.1766H134.351V65.9321H134.107V65.6875H133.862V65.443H133.536V65.1169H133.292V64.8723H133.047V64.6278H132.803V64.3832H132.477V63.8126H132.232V63.568H131.987V63.3235H131.743V63.568Z" fill="#5F727B"/>
<path fill-rule="evenodd" clip-rule="evenodd" d="M145.193 63.568H144.378V63.8126H143.889V64.0572H143.318V64.3832H143.074V64.8723H142.829V65.443H142.585V68.0516H142.829V68.6222H143.074V68.8667H143.318V69.1113H143.645V69.3558H144.134V69.6819H144.949V69.9265H146.824V69.6819H148.128V69.3558H148.373V66.7473H147.313V69.1113H146.824V69.3558H145.193V69.1113H144.704V68.8667H144.134V68.2961H143.889V68.0516H143.645V65.1169H143.889V64.8723H144.134V64.6278H144.378V64.3832H144.704V64.0572H145.193V63.8126H146.498V64.0572H147.313V64.3832H147.557V64.6278H148.128V64.3832H148.373V63.8126H147.883V63.568H146.824V63.3235H145.193V63.568Z" fill="#5F727B"/>
<path fill-rule="evenodd" clip-rule="evenodd" d="M82.5058 69.682H83.3209V68.0516H83.0764V65.117H83.3209V65.443H83.5655V65.6876H83.81V65.9321H84.1361V66.1767H84.3807V66.5028H84.6252V66.7473H84.8698V66.9919H85.1959V67.2364H85.4404V67.8071H85.685V68.0516H85.9295V68.2962H86.2556V68.6223H86.5002V68.8668H86.7447V69.1114H86.9893V69.3559H87.3153V69.682H87.5599V69.9265H87.8044V63.5681H86.9893V64.0572H87.3153V68.0516H86.9893V67.8071H86.7447V67.5625H86.5002V67.2364H86.2556V66.9919H85.9295V66.5028H85.685V66.1767H85.4404V65.9321H85.1959V65.6876H84.8698V65.443H84.6252V65.117H84.3807V64.8724H84.1361V64.6279H83.81V64.3833H83.5655V64.0572H83.3209V63.8127H83.0764V63.5681H82.5058V69.682Z" fill="#5F727B"/>
<path fill-rule="evenodd" clip-rule="evenodd" d="M75.6582 68.6223H75.9028V69.1114H76.1473V69.3559H76.7179V69.682H77.2071V69.9265H79.082V69.682H79.6526V69.3559H80.1417V69.1114H80.3863V68.6223H80.7123V67.5625H80.9569V63.5681H80.1417V68.2962H79.8972V68.6223H79.6526V68.8668H79.3265V69.1114H78.8374V69.3559H77.7777V69.1114H77.2071V68.8668H76.9625V68.6223H76.7179V67.8071H76.4734V64.0572H76.7179V63.5681H75.6582V68.6223Z" fill="#5F727B"/>
<path fill-rule="evenodd" clip-rule="evenodd" d="M178.045 64.0572H178.29V69.1114H178.045V69.682H179.024V66.7473H179.35V66.9919H179.594V67.5625H179.839V67.8071H180.083V68.0516H180.409V68.2962H180.654V68.6223H180.898V69.1114H181.143V69.3559H181.469V69.682H182.773V69.3559H182.529V69.1114H182.203V68.8668H181.958V68.6223H181.714V68.2962H181.469V67.8071H181.143V67.5625H180.898V67.2364H180.654V66.9919H180.409V66.7473H180.083V66.5028H179.839V66.1767H180.083V65.9321H180.409V65.6876H180.654V65.443H180.898V65.117H181.143V64.8724H181.469V64.6279H181.714V64.3833H181.958V64.0572H182.203V63.8127H182.529V63.5681H181.714V63.8127H181.469V64.0572H181.143V64.3833H180.898V64.6279H180.654V64.8724H180.409V65.117H180.083V65.443H179.839V65.6876H179.594V65.9321H179.35V66.1767H179.024V63.5681H178.045V64.0572Z" fill="#5F727B"/>
<path fill-rule="evenodd" clip-rule="evenodd" d="M199.729 66.1766H199.974V65.443H200.218V64.8723H200.463V65.443H200.789V66.1766H201.033V66.7473H199.729V66.1766ZM200.463 63.568H200.218V64.0572H199.974V64.6278H199.729V65.443H199.403V65.9321H199.159V66.5027H198.914V67.2364H198.669V67.807H198.343V68.2961H198.099V68.8667H197.854V69.3558H197.61V69.6819H198.669V68.8667H198.914V68.0516H199.159V67.5624H199.974V67.2364H200.789V67.5624H201.523V68.0516H201.849V68.8667H202.093V69.3558H202.338V69.6819H203.398V69.3558H203.153V68.8667H202.827V68.0516H202.582V67.5624H202.338V66.9918H202.093V66.1766H201.849V65.6875H201.523V65.1169H201.278V64.3832H201.033V63.8126H200.789V63.3235H200.463V63.568Z" fill="#5F727B"/>
<path fill-rule="evenodd" clip-rule="evenodd" d="M184.893 66.1766H185.137V65.6875H185.382V65.1169H185.708V65.443H185.953V65.9321H186.197V66.5027H186.442V66.7473H184.893V66.1766ZM185.708 63.568H185.382V64.3832H185.137V64.8723H184.893V65.443H184.648V66.1766H184.322V66.7473H184.078V67.2364H183.833V67.807H183.589V68.2961H183.262V69.1113H183.018V69.6819H183.833V68.8667H184.078V68.2961H184.322V67.5624H185.137V67.2364H185.953V67.5624H186.768V68.0516H187.012V68.6222H187.257V69.1113H187.501V69.6819H188.561V69.1113H188.317V68.6222H188.072V68.0516H187.827V67.5624H187.501V66.7473H187.257V66.1766H187.012V65.443H186.768V64.8723H186.442V64.3832H186.197V63.568H185.953V63.3235H185.708V63.568Z" fill="#5F727B"/>
<path fill-rule="evenodd" clip-rule="evenodd" d="M173.48 66.5027H173.806V65.9321H174.051V65.1169H174.54V65.6875H174.866V66.5027H175.111V66.7473H173.48V66.5027ZM174.295 63.8126H174.051V64.3832H173.806V65.1169H173.48V65.6875H173.236V66.1766H172.991V66.7473H172.747V67.5624H172.421V68.0516H172.176V68.6222H171.931V69.1113H171.687V69.6819H172.421V69.1113H172.747V68.2961H172.991V67.807H173.236V67.5624H173.806V67.2364H174.54V67.5624H175.355V67.807H175.6V68.2961H175.926V69.1113H176.17V69.6819H177.23V69.1113H176.986V68.6222H176.659V67.807H176.415V67.2364H176.17V66.7473H175.926V65.9321H175.6V65.443H175.355V64.6278H175.111V64.0572H174.866V63.568H174.54V63.3235H174.295V63.8126Z" fill="#5F727B"/>
<path fill-rule="evenodd" clip-rule="evenodd" d="M120.086 66.1766H120.33V65.443H120.575V64.8723H120.901V65.443H121.145V66.1766H121.39V66.7473H120.086V66.1766ZM120.901 63.568H120.575V64.0572H120.33V64.6278H120.086V65.443H119.841V65.9321H119.515V66.5027H119.271V66.9918H119.026V67.807H118.781V68.2961H118.537V68.8667H118.211V69.3558H117.966V69.6819H118.781V69.3558H119.026V68.6222H119.271V68.0516H119.515V67.5624H120.33V67.2364H121.145V67.5624H121.961V68.0516H122.205V68.8667H122.45V69.3558H122.694V69.6819H123.754V69.3558H123.509V68.8667H123.265V68.2961H123.02V67.5624H122.694V66.9918H122.45V66.5027H122.205V65.6875H121.961V65.1169H121.635V64.3832H121.39V63.8126H121.145V63.3235H120.901V63.568Z" fill="#5F727B"/>
<path fill-rule="evenodd" clip-rule="evenodd" d="M125.629 63.568H125.14V63.8126H124.814V64.0572H124.569V64.3832H124.325V65.9321H124.569V66.1766H124.814V66.5027H125.14V66.7473H125.629V66.9918H126.2V67.2364H126.689V67.5624H126.933V68.8667H126.689V69.1113H126.444V69.3558H125.384V69.1113H124.814V68.6222H124.325V69.1113H124.08V69.3558H124.325V69.6819H124.814V69.9265H126.444V69.6819H126.933V69.3558H127.504V68.8667H127.748V68.2961H127.993V67.2364H127.748V66.7473H127.504V66.5027H126.933V66.1766H126.444V65.9321H125.629V65.6875H125.384V65.1169H125.14V64.6278H125.384V64.0572H125.874V63.8126H126.689V64.0572H126.933V64.3832H127.259V64.6278H127.504V64.0572H127.748V63.8126H127.504V63.568H126.933V63.3235H125.629V63.568Z" fill="#5F727B"/>
<path fill-rule="evenodd" clip-rule="evenodd" d="M97.5866 69.682H101.01V69.1114H98.6464V66.7473H100.766V66.1767H98.6464V64.0572H101.01V63.5681H97.5866V69.682Z" fill="#5F727B"/>
<path fill-rule="evenodd" clip-rule="evenodd" d="M108.673 63.568H107.939V63.8126H107.613V64.0572H107.369V64.8723H107.124V65.443H107.369V66.1766H107.613V66.5027H108.184V66.7473H108.673V66.9918H109.244V67.2364H109.733V67.5624H110.059V68.8667H109.733V69.1113H109.244V69.3558H108.429V69.1113H107.939V68.8667H107.613V68.6222H107.124V69.3558H107.369V69.6819H107.939V69.9265H109.488V69.6819H110.059V69.3558H110.304V69.1113H110.548V68.8667H110.793V66.9918H110.548V66.7473H110.304V66.5027H109.733V66.1766H109.244V65.9321H108.673V65.6875H108.429V65.443H108.184V64.3832H108.429V64.0572H108.673V63.8126H109.488V64.0572H109.733V64.3832H110.059V64.6278H110.548V63.568H109.733V63.3235H108.673V63.568Z" fill="#5F727B"/>
<path fill-rule="evenodd" clip-rule="evenodd" d="M194.92 63.568H194.43V63.8126H194.104V64.0572H193.86V64.3832H193.615V65.9321H193.86V66.1766H194.104V66.5027H194.43V66.7473H194.92V66.9918H195.735V67.2364H195.979V67.5624H196.224V68.8667H195.979V69.1113H195.735V69.3558H194.675V69.1113H194.104V68.6222H193.615V69.6819H194.104V69.9265H195.735V69.6819H196.224V69.3558H196.795V68.8667H197.039V68.2961H197.284V67.2364H197.039V66.7473H196.795V66.5027H196.224V66.1766H195.735V65.9321H194.92V65.6875H194.675V65.1169H194.43V64.6278H194.675V64.0572H195.164V63.8126H195.979V64.0572H196.224V64.3832H196.55V64.6278H196.795V64.0572H197.039V63.8126H196.795V63.568H196.224V63.3235H194.92V63.568Z" fill="#5F727B"/>
<path fill-rule="evenodd" clip-rule="evenodd" d="M138.346 69.682H141.77V69.1114H139.406V66.7473H141.525V66.1767H139.406V64.0572H141.525V63.5681H138.346V69.682Z" fill="#5F727B"/>
<path fill-rule="evenodd" clip-rule="evenodd" d="M91.2282 64.3833H91.5543V64.8724H91.7988V65.443H92.0434V66.1767H92.2879V66.7473H92.614V67.5625H92.8586V68.0516H93.1031V68.8668H93.3477V69.3559H93.6738V69.682H94.4074V69.1114H94.7335V68.6223H94.9781V67.8071H95.2226V67.2364H95.4672V66.5028H95.7117V65.9321H96.0378V65.443H96.2823V64.6279H96.5269V64.0572H96.7715V63.5681H96.0378V64.0572H95.7117V64.8724H95.4672V65.443H95.2226V66.1767H94.9781V66.9919H94.7335V67.5625H94.4074V68.2962H93.9183V67.5625H93.6738V66.9919H93.3477V66.1767H93.1031V65.6876H92.8586V64.8724H92.614V64.0572H92.2879V63.5681H91.2282V64.3833Z" fill="#5F727B"/>
<path fill-rule="evenodd" clip-rule="evenodd" d="M190.681 63.568H189.947V63.8126H189.621V64.0572H189.376V64.6278H189.132V65.6875H189.376V66.1766H189.621V66.5027H189.947V66.7473H190.436V66.9918H191.251V67.2364H191.496V67.5624H191.74V67.807H191.985V68.6222H191.74V69.1113H191.251V69.3558H190.192V69.1113H189.947V68.8667H189.621V68.6222H189.132V69.3558H189.376V69.6819H189.947V69.9265H191.251V69.6819H191.985V69.3558H192.311V69.1113H192.556V68.6222H192.8V66.9918H192.556V66.7473H192.311V66.5027H191.74V66.1766H191.251V65.9321H190.681V65.6875H190.192V64.0572H190.681V63.8126H191.496V64.0572H191.74V64.3832H191.985V64.6278H192.311V64.3832H192.556V63.8126H192.311V63.568H191.74V63.3235H190.681V63.568Z" fill="#5F727B"/>
<path fill-rule="evenodd" clip-rule="evenodd" d="M149.677 69.682H152.856V69.1114H150.492V66.7473H152.612V66.1767H150.492V64.0572H152.856V63.5681H149.677V69.682Z" fill="#5F727B"/>
<path fill-rule="evenodd" clip-rule="evenodd" d="M113.727 64.0572H115.602V69.682H116.662V64.0572H118.537V63.5681H113.727V64.0572Z" fill="#5F727B"/>
<path fill-rule="evenodd" clip-rule="evenodd" d="M111.852 69.682H112.912V63.5681H111.852V69.682Z" fill="#5F727B"/>
<path fill-rule="evenodd" clip-rule="evenodd" d="M159.459 69.682H160.519V67.8071H160.274V65.443H160.519V63.5681H159.459V69.682Z" fill="#5F727B"/>
<path fill-rule="evenodd" clip-rule="evenodd" d="M89.4348 69.682H90.4946V68.8668H90.1685V64.3833H90.4946V63.5681H89.4348V69.682Z" fill="#5F727B"/>
</g>
<defs>
<clipPath id="clip0">
<rect width="211.64" height="70.1058" fill="white"/>
</clipPath>
</defs>
</svg>
